<ttFont>
<head>
    <!-- Most of this table will be recalculated by the compiler -->
    <tableVersion value="1.0"/>
    <fontRevision value="1.002"/>
    <checkSumAdjustment value="0xf30fc878"/>
    <magicNumber value="0x5f0f3cf5"/>
    <flags value="00000000 00000011"/>
    <unitsPerEm value="1000"/>
    <created value="Thu Jan 14 20:43:10 2016"/>
    <modified value="Thu Jan 14 20:43:13 2016"/>
    <xMin value="-10"/>
    <yMin value="-294"/>
    <xMax value="664"/>
    <yMax value="1150"/>
    <macStyle value="00000000 00000000"/>
    <lowestRecPPEM value="6"/>
    <fontDirectionHint value="2"/>
    <indexToLocFormat value="0"/>
    <glyphDataFormat value="0"/>
  </head>
    <TTGlyph name=".notdef" xMin="5" yMin="-200" xMax="545" yMax="800">
      <contour>
        <pt x="5" y="-200" on="1"/>
        <pt x="5" y="800" on="1"/>
        <pt x="545" y="800" on="1"/>
        <pt x="545" y="-200" on="1"/>
      </contour>
      <contour>
        <pt x="82" y="750" on="1"/>
        <pt x="275" y="360" on="1"/>
        <pt x="468" y="750" on="1"/>
      </contour>
      <contour>
        <pt x="491" y="676" on="1"/>
        <pt x="305" y="300" on="1"/>
        <pt x="491" y="-76" on="1"/>
      </contour>
      <contour>
        <pt x="59" y="-76" on="1"/>
        <pt x="245" y="300" on="1"/>
        <pt x="59" y="676" on="1"/>
      </contour>
      <contour>
        <pt x="275" y="240" on="1"/>
        <pt x="82" y="-150" on="1"/>
        <pt x="468" y="-150" on="1"/>
      </contour>
    </TTGlyph>
    <TTGlyph name="A" xMin="27" yMin="-4" xMax="524" yMax="621">
      <contour>
        <pt x="408" y="-4" on="1"/>
        <pt x="398" y="39" on="0"/>
        <pt x="376" y="128" on="0"/>
        <pt x="366" y="172" on="1"/>
        <pt x="182" y="172" on="1"/>
        <pt x="172" y="129" on="0"/>
        <pt x="151" y="43" on="0"/>
        <pt x="141" y="0" on="1"/>
        <pt x="27" y="0" on="1"/>
        <pt x="67" y="154" on="0"/>
        <pt x="150" y="467" on="0"/>
        <pt x="196" y="621" on="1"/>
        <pt x="355" y="621" on="1"/>
        <pt x="401" y="467" on="0"/>
        <pt x="484" y="158" on="0"/>
        <pt x="524" y="4" on="1"/>
      </contour>
      <contour>
        <pt x="270" y="527" on="1"/>
        <pt x="253" y="460" on="0"/>
        <pt x="218" y="324" on="0"/>
        <pt x="202" y="256" on="1"/>
        <pt x="346" y="256" on="1"/>
        <pt x="330" y="324" on="0"/>
        <pt x="295" y="461" on="0"/>
        <pt x="278" y="527" on="1"/>
      </contour>
    </TTGlyph>
    <TTGlyph name="AE" xMin="-2" yMin="0" xMax="521" yMax="620">
      <contour>
        <pt x="253" y="524" on="1"/>
        <pt x="234" y="456" on="0"/>
        <pt x="195" y="318" on="0"/>
        <pt x="176" y="249" on="1"/>
        <pt x="258" y="249" on="1"/>
        <pt x="258" y="524" on="1"/>
      </contour>
      <contour>
        <pt x="258" y="0" on="1"/>
        <pt x="258" y="165" on="1"/>
        <pt x="152" y="165" on="1"/>
        <pt x="140" y="124" on="0"/>
        <pt x="117" y="41" on="0"/>
        <pt x="106" y="0" on="1"/>
        <pt x="-2" y="0" on="1"/>
        <pt x="41" y="154" on="0"/>
        <pt x="139" y="467" on="0"/>
        <pt x="185" y="620" on="1"/>
        <pt x="515" y="620" on="1"/>
        <pt x="515" y="524" on="1"/>
        <pt x="353" y="524" on="1"/>
        <pt x="353" y="354" on="1"/>
        <pt x="486" y="354" on="1"/>
        <pt x="486" y="270" on="1"/>
        <pt x="353" y="270" on="1"/>
        <pt x="353" y="96" on="1"/>
        <pt x="521" y="96" on="1"/>
        <pt x="513" y="0" on="1"/>
      </contour>
    </TTGlyph>
    <TTGlyph name="AEacute" xMin="-2" yMin="0" xMax="521" yMax="907">
      <contour>
        <pt x="202" y="730" on="1"/>
        <pt x="224" y="744" on="0"/>
        <pt x="278" y="787" on="0"/>
        <pt x="334" y="835" on="0"/>
        <pt x="387" y="885" on="0"/>
        <pt x="407" y="907" on="1"/>
        <pt x="489" y="823" on="1"/>
        <pt x="464" y="803" on="0"/>
        <pt x="397" y="761" on="0"/>
        <pt x="327" y="723" on="0"/>
        <pt x="257" y="691" on="0"/>
        <pt x="230" y="681" on="1"/>
      </contour>
      <contour>
        <pt x="253" y="524" on="1"/>
        <pt x="234" y="456" on="0"/>
        <pt x="195" y="318" on="0"/>
        <pt x="176" y="249" on="1"/>
        <pt x="258" y="249" on="1"/>
        <pt x="258" y="524" on="1"/>
      </contour>
      <contour>
        <pt x="258" y="0" on="1"/>
        <pt x="258" y="165" on="1"/>
        <pt x="152" y="165" on="1"/>
        <pt x="140" y="124" on="0"/>
        <pt x="117" y="41" on="0"/>
        <pt x="106" y="0" on="1"/>
        <pt x="-2" y="0" on="1"/>
        <pt x="41" y="154" on="0"/>
        <pt x="139" y="467" on="0"/>
        <pt x="185" y="620" on="1"/>
        <pt x="515" y="620" on="1"/>
        <pt x="515" y="524" on="1"/>
        <pt x="353" y="524" on="1"/>
        <pt x="353" y="354" on="1"/>
        <pt x="486" y="354" on="1"/>
        <pt x="486" y="270" on="1"/>
        <pt x="353" y="270" on="1"/>
        <pt x="353" y="96" on="1"/>
        <pt x="521" y="96" on="1"/>
        <pt x="513" y="0" on="1"/>
      </contour>
    </TTGlyph>
    <TTGlyph name="Aacute" xMin="27" yMin="-4" xMax="524" yMax="907">
      <contour>
        <pt x="155" y="730" on="1"/>
        <pt x="177" y="744" on="0"/>
        <pt x="231" y="787" on="0"/>
        <pt x="287" y="835" on="0"/>
        <pt x="340" y="885" on="0"/>
        <pt x="360" y="907" on="1"/>
        <pt x="442" y="823" on="1"/>
        <pt x="417" y="803" on="0"/>
        <pt x="350" y="761" on="0"/>
        <pt x="280" y="723" on="0"/>
        <pt x="210" y="691" on="0"/>
        <pt x="183" y="681" on="1"/>
      </contour>
      <contour>
        <pt x="408" y="-4" on="1"/>
        <pt x="398" y="39" on="0"/>
        <pt x="376" y="128" on="0"/>
        <pt x="366" y="172" on="1"/>
        <pt x="182" y="172" on="1"/>
        <pt x="172" y="129" on="0"/>
        <pt x="151" y="43" on="0"/>
        <pt x="141" y="0" on="1"/>
        <pt x="27" y="0" on="1"/>
        <pt x="67" y="154" on="0"/>
        <pt x="150" y="467" on="0"/>
        <pt x="196" y="621" on="1"/>
        <pt x="355" y="621" on="1"/>
        <pt x="401" y="467" on="0"/>
        <pt x="484" y="158" on="0"/>
        <pt x="524" y="4" on="1"/>
      </contour>
      <contour>
        <pt x="270" y="527" on="1"/>
        <pt x="253" y="460" on="0"/>
        <pt x="218" y="324" on="0"/>
        <pt x="202" y="256" on="1"/>
        <pt x="346" y="256" on="1"/>
        <pt x="330" y="324" on="0"/>
        <pt x="295" y="461" on="0"/>
        <pt x="278" y="527" on="1"/>
      </contour>
    </TTGlyph>
    <TTGlyph name="Abreve" xMin="27" yMin="-4" xMax="524" yMax="877">
      <contour>
        <pt x="274" y="686" on="1"/>
        <pt x="220" y="686" on="0"/>
        <pt x="120" y="760" on="0"/>
        <pt x="80" y="832" on="1"/>
        <pt x="157" y="877" on="1"/>
        <pt x="191" y="823" on="0"/>
        <pt x="250" y="775" on="0"/>
        <pt x="284" y="775" on="1"/>
        <pt x="320" y="775" on="0"/>
        <pt x="380" y="826" on="0"/>
        <pt x="412" y="872" on="1"/>
        <pt x="475" y="840" on="1"/>
        <pt x="433" y="769" on="0"/>
        <pt x="330" y="686" on="0"/>
      </contour>
      <contour>
        <pt x="408" y="-4" on="1"/>
        <pt x="398" y="39" on="0"/>
        <pt x="376" y="128" on="0"/>
        <pt x="366" y="172" on="1"/>
        <pt x="182" y="172" on="1"/>
        <pt x="172" y="129" on="0"/>
        <pt x="151" y="43" on="0"/>
        <pt x="141" y="0" on="1"/>
        <pt x="27" y="0" on="1"/>
        <pt x="67" y="154" on="0"/>
        <pt x="150" y="467" on="0"/>
        <pt x="196" y="621" on="1"/>
        <pt x="355" y="621" on="1"/>
        <pt x="401" y="467" on="0"/>
        <pt x="484" y="158" on="0"/>
        <pt x="524" y="4" on="1"/>
      </contour>
      <contour>
        <pt x="270" y="527" on="1"/>
        <pt x="253" y="460" on="0"/>
        <pt x="218" y="324" on="0"/>
        <pt x="202" y="256" on="1"/>
        <pt x="346" y="256" on="1"/>
        <pt x="330" y="324" on="0"/>
        <pt x="295" y="461" on="0"/>
        <pt x="278" y="527" on="1"/>
      </contour>
    </TTGlyph>
    <TTGlyph name="Acircumflex" xMin="27" yMin="-4" xMax="524" yMax="888">
      <contour>
        <pt x="392" y="683" on="1"/>
        <pt x="265" y="785" on="1"/>
        <pt x="141" y="684" on="1"/>
        <pt x="87" y="735" on="1"/>
        <pt x="269" y="888" on="1"/>
        <pt x="276" y="888" on="1"/>
        <pt x="460" y="748" on="1"/>
      </contour>
      <contour>
        <pt x="408" y="-4" on="1"/>
        <pt x="398" y="39" on="0"/>
        <pt x="376" y="128" on="0"/>
        <pt x="366" y="172" on="1"/>
        <pt x="182" y="172" on="1"/>
        <pt x="172" y="129" on="0"/>
        <pt x="151" y="43" on="0"/>
        <pt x="141" y="0" on="1"/>
        <pt x="27" y="0" on="1"/>
        <pt x="67" y="154" on="0"/>
        <pt x="150" y="467" on="0"/>
        <pt x="196" y="621" on="1"/>
        <pt x="355" y="621" on="1"/>
        <pt x="401" y="467" on="0"/>
        <pt x="484" y="158" on="0"/>
        <pt x="524" y="4" on="1"/>
      </contour>
      <contour>
        <pt x="270" y="527" on="1"/>
        <pt x="253" y="460" on="0"/>
        <pt x="218" y="324" on="0"/>
        <pt x="202" y="256" on="1"/>
        <pt x="346" y="256" on="1"/>
        <pt x="330" y="324" on="0"/>
        <pt x="295" y="461" on="0"/>
        <pt x="278" y="527" on="1"/>
      </contour>
    </TTGlyph>
    <TTGlyph name="Adieresis" xMin="27" yMin="-4" xMax="524" yMax="835">
      <contour>
        <pt x="441" y="695" on="1"/>
        <pt x="329" y="695" on="1"/>
        <pt x="331" y="835" on="1"/>
        <pt x="444" y="835" on="1"/>
      </contour>
      <contour>
        <pt x="219" y="695" on="1"/>
        <pt x="106" y="695" on="1"/>
        <pt x="108" y="835" on="1"/>
        <pt x="222" y="835" on="1"/>
      </contour>
      <contour>
        <pt x="408" y="-4" on="1"/>
        <pt x="398" y="39" on="0"/>
        <pt x="376" y="128" on="0"/>
        <pt x="366" y="172" on="1"/>
        <pt x="182" y="172" on="1"/>
        <pt x="172" y="129" on="0"/>
        <pt x="151" y="43" on="0"/>
        <pt x="141" y="0" on="1"/>
        <pt x="27" y="0" on="1"/>
        <pt x="67" y="154" on="0"/>
        <pt x="150" y="467" on="0"/>
        <pt x="196" y="621" on="1"/>
        <pt x="355" y="621" on="1"/>
        <pt x="401" y="467" on="0"/>
        <pt x="484" y="158" on="0"/>
        <pt x="524" y="4" on="1"/>
      </contour>
      <contour>
        <pt x="270" y="527" on="1"/>
        <pt x="253" y="460" on="0"/>
        <pt x="218" y="324" on="0"/>
        <pt x="202" y="256" on="1"/>
        <pt x="346" y="256" on="1"/>
        <pt x="330" y="324" on="0"/>
        <pt x="295" y="461" on="0"/>
        <pt x="278" y="527" on="1"/>
      </contour>
    </TTGlyph>
    <TTGlyph name="Agrave" xMin="27" yMin="-4" xMax="524" yMax="906">
      <contour>
        <pt x="386" y="726" on="1"/>
        <pt x="355" y="678" on="1"/>
        <pt x="329" y="689" on="0"/>
        <pt x="261" y="722" on="0"/>
        <pt x="192" y="759" on="0"/>
        <pt x="126" y="798" on="0"/>
        <pt x="100" y="816" on="1"/>
        <pt x="175" y="906" on="1"/>
        <pt x="196" y="885" on="0"/>
        <pt x="252" y="835" on="0"/>
        <pt x="310" y="786" on="0"/>
        <pt x="366" y="741" on="0"/>
      </contour>
      <contour>
        <pt x="408" y="-4" on="1"/>
        <pt x="398" y="39" on="0"/>
        <pt x="376" y="128" on="0"/>
        <pt x="366" y="172" on="1"/>
        <pt x="182" y="172" on="1"/>
        <pt x="172" y="129" on="0"/>
        <pt x="151" y="43" on="0"/>
        <pt x="141" y="0" on="1"/>
        <pt x="27" y="0" on="1"/>
        <pt x="67" y="154" on="0"/>
        <pt x="150" y="467" on="0"/>
        <pt x="196" y="621" on="1"/>
        <pt x="355" y="621" on="1"/>
        <pt x="401" y="467" on="0"/>
        <pt x="484" y="158" on="0"/>
        <pt x="524" y="4" on="1"/>
      </contour>
      <contour>
        <pt x="270" y="527" on="1"/>
        <pt x="253" y="460" on="0"/>
        <pt x="218" y="324" on="0"/>
        <pt x="202" y="256" on="1"/>
        <pt x="346" y="256" on="1"/>
        <pt x="330" y="324" on="0"/>
        <pt x="295" y="461" on="0"/>
        <pt x="278" y="527" on="1"/>
      </contour>
    </TTGlyph>
    <TTGlyph name="Amacron" xMin="27" yMin="-4" xMax="524" yMax="813">
      <contour>
        <pt x="446" y="813" on="1"/>
        <pt x="446" y="718" on="1"/>
        <pt x="100" y="718" on="1"/>
        <pt x="100" y="813" on="1"/>
      </contour>
      <contour>
        <pt x="408" y="-4" on="1"/>
        <pt x="398" y="39" on="0"/>
        <pt x="376" y="128" on="0"/>
        <pt x="366" y="172" on="1"/>
        <pt x="182" y="172" on="1"/>
        <pt x="172" y="129" on="0"/>
        <pt x="151" y="43" on="0"/>
        <pt x="141" y="0" on="1"/>
        <pt x="27" y="0" on="1"/>
        <pt x="67" y="154" on="0"/>
        <pt x="150" y="467" on="0"/>
        <pt x="196" y="621" on="1"/>
        <pt x="355" y="621" on="1"/>
        <pt x="401" y="467" on="0"/>
        <pt x="484" y="158" on="0"/>
        <pt x="524" y="4" on="1"/>
      </contour>
      <contour>
        <pt x="270" y="527" on="1"/>
        <pt x="253" y="460" on="0"/>
        <pt x="218" y="324" on="0"/>
        <pt x="202" y="256" on="1"/>
        <pt x="346" y="256" on="1"/>
        <pt x="330" y="324" on="0"/>
        <pt x="295" y="461" on="0"/>
        <pt x="278" y="527" on="1"/>
      </contour>
    </TTGlyph>
    <TTGlyph name="Aogonek" xMin="27" yMin="-220" xMax="524" yMax="621">
      <contour>
        <pt x="502" y="-220" on="1"/>
        <pt x="391" y="-215" on="0"/>
        <pt x="297" y="-158" on="0"/>
        <pt x="297" y="-119" on="1"/>
        <pt x="297" y="-90" on="0"/>
        <pt x="349" y="-30" on="0"/>
        <pt x="406" y="3" on="1"/>
        <pt x="396" y="45" on="0"/>
        <pt x="376" y="129" on="0"/>
        <pt x="366" y="172" on="1"/>
        <pt x="182" y="172" on="1"/>
        <pt x="172" y="129" on="0"/>
        <pt x="151" y="43" on="0"/>
        <pt x="141" y="0" on="1"/>
        <pt x="27" y="0" on="1"/>
        <pt x="67" y="154" on="0"/>
        <pt x="150" y="467" on="0"/>
        <pt x="196" y="621" on="1"/>
        <pt x="355" y="621" on="1"/>
        <pt x="401" y="467" on="0"/>
        <pt x="484" y="158" on="0"/>
        <pt x="524" y="4" on="1"/>
        <pt x="454" y="-27" on="0"/>
        <pt x="402" y="-72" on="0"/>
        <pt x="402" y="-88" on="1"/>
        <pt x="402" y="-105" on="0"/>
        <pt x="452" y="-128" on="0"/>
        <pt x="512" y="-133" on="1"/>
      </contour>
      <contour>
        <pt x="270" y="527" on="1"/>
        <pt x="253" y="460" on="0"/>
        <pt x="218" y="324" on="0"/>
        <pt x="202" y="256" on="1"/>
        <pt x="346" y="256" on="1"/>
        <pt x="330" y="324" on="0"/>
        <pt x="295" y="461" on="0"/>
        <pt x="278" y="527" on="1"/>
      </contour>
    </TTGlyph>
    <TTGlyph name="Aring" xMin="27" yMin="-4" xMax="524" yMax="890">
      <contour>
        <pt x="273" y="890" on="1"/>
        <pt x="332" y="890" on="0"/>
        <pt x="407" y="827" on="0"/>
        <pt x="407" y="784" on="1"/>
        <pt x="407" y="736" on="0"/>
        <pt x="333" y="673" on="0"/>
        <pt x="273" y="673" on="1"/>
        <pt x="213" y="673" on="0"/>
        <pt x="139" y="735" on="0"/>
        <pt x="139" y="780" on="1"/>
        <pt x="139" y="826" on="0"/>
        <pt x="212" y="890" on="0"/>
      </contour>
      <contour>
        <pt x="408" y="-4" on="1"/>
        <pt x="398" y="39" on="0"/>
        <pt x="376" y="128" on="0"/>
        <pt x="366" y="172" on="1"/>
        <pt x="182" y="172" on="1"/>
        <pt x="172" y="129" on="0"/>
        <pt x="151" y="43" on="0"/>
        <pt x="141" y="0" on="1"/>
        <pt x="27" y="0" on="1"/>
        <pt x="67" y="154" on="0"/>
        <pt x="150" y="467" on="0"/>
        <pt x="196" y="621" on="1"/>
        <pt x="355" y="621" on="1"/>
        <pt x="401" y="467" on="0"/>
        <pt x="484" y="158" on="0"/>
        <pt x="524" y="4" on="1"/>
      </contour>
      <contour>
        <pt x="270" y="527" on="1"/>
        <pt x="253" y="460" on="0"/>
        <pt x="218" y="324" on="0"/>
        <pt x="202" y="256" on="1"/>
        <pt x="346" y="256" on="1"/>
        <pt x="330" y="324" on="0"/>
        <pt x="295" y="461" on="0"/>
        <pt x="278" y="527" on="1"/>
      </contour>
    </TTGlyph>
    <TTGlyph name="Aringacute" xMin="27" yMin="-4" xMax="524" yMax="1150">
      <contour>
        <pt x="155" y="973" on="1"/>
        <pt x="177" y="987" on="0"/>
        <pt x="231" y="1030" on="0"/>
        <pt x="287" y="1078" on="0"/>
        <pt x="340" y="1128" on="0"/>
        <pt x="360" y="1150" on="1"/>
        <pt x="442" y="1066" on="1"/>
        <pt x="417" y="1046" on="0"/>
        <pt x="350" y="1004" on="0"/>
        <pt x="280" y="966" on="0"/>
        <pt x="210" y="934" on="0"/>
        <pt x="183" y="924" on="1"/>
      </contour>
      <contour>
        <pt x="273" y="890" on="1"/>
        <pt x="332" y="890" on="0"/>
        <pt x="407" y="827" on="0"/>
        <pt x="407" y="784" on="1"/>
        <pt x="407" y="736" on="0"/>
        <pt x="333" y="673" on="0"/>
        <pt x="273" y="673" on="1"/>
        <pt x="213" y="673" on="0"/>
        <pt x="139" y="735" on="0"/>
        <pt x="139" y="780" on="1"/>
        <pt x="139" y="826" on="0"/>
        <pt x="212" y="890" on="0"/>
      </contour>
      <contour>
        <pt x="408" y="-4" on="1"/>
        <pt x="398" y="39" on="0"/>
        <pt x="376" y="128" on="0"/>
        <pt x="366" y="172" on="1"/>
        <pt x="182" y="172" on="1"/>
        <pt x="172" y="129" on="0"/>
        <pt x="151" y="43" on="0"/>
        <pt x="141" y="0" on="1"/>
        <pt x="27" y="0" on="1"/>
        <pt x="67" y="154" on="0"/>
        <pt x="150" y="467" on="0"/>
        <pt x="196" y="621" on="1"/>
        <pt x="355" y="621" on="1"/>
        <pt x="401" y="467" on="0"/>
        <pt x="484" y="158" on="0"/>
        <pt x="524" y="4" on="1"/>
      </contour>
      <contour>
        <pt x="270" y="527" on="1"/>
        <pt x="253" y="460" on="0"/>
        <pt x="218" y="324" on="0"/>
        <pt x="202" y="256" on="1"/>
        <pt x="346" y="256" on="1"/>
        <pt x="330" y="324" on="0"/>
        <pt x="295" y="461" on="0"/>
        <pt x="278" y="527" on="1"/>
      </contour>
    </TTGlyph>
    <TTGlyph name="Atilde" xMin="27" yMin="-4" xMax="524" yMax="866">
      <contour>
        <pt x="350" y="690" on="1"/>
        <pt x="326" y="690" on="0"/>
        <pt x="284" y="717" on="0"/>
        <pt x="247" y="749" on="0"/>
        <pt x="214" y="776" on="0"/>
        <pt x="200" y="776" on="1"/>
        <pt x="186" y="776" on="0"/>
        <pt x="151" y="738" on="0"/>
        <pt x="131" y="698" on="1"/>
        <pt x="74" y="725" on="1"/>
        <pt x="100" y="786" on="0"/>
        <pt x="173" y="866" on="0"/>
        <pt x="213" y="866" on="1"/>
        <pt x="237" y="866" on="0"/>
        <pt x="279" y="839" on="0"/>
        <pt x="316" y="806" on="0"/>
        <pt x="348" y="779" on="0"/>
        <pt x="362" y="779" on="1"/>
        <pt x="376" y="779" on="0"/>
        <pt x="411" y="818" on="0"/>
        <pt x="431" y="858" on="1"/>
        <pt x="489" y="831" on="1"/>
        <pt x="462" y="769" on="0"/>
        <pt x="390" y="690" on="0"/>
      </contour>
      <contour>
        <pt x="408" y="-4" on="1"/>
        <pt x="398" y="39" on="0"/>
        <pt x="376" y="128" on="0"/>
        <pt x="366" y="172" on="1"/>
        <pt x="182" y="172" on="1"/>
        <pt x="172" y="129" on="0"/>
        <pt x="151" y="43" on="0"/>
        <pt x="141" y="0" on="1"/>
        <pt x="27" y="0" on="1"/>
        <pt x="67" y="154" on="0"/>
        <pt x="150" y="467" on="0"/>
        <pt x="196" y="621" on="1"/>
        <pt x="355" y="621" on="1"/>
        <pt x="401" y="467" on="0"/>
        <pt x="484" y="158" on="0"/>
        <pt x="524" y="4" on="1"/>
      </contour>
      <contour>
        <pt x="270" y="527" on="1"/>
        <pt x="253" y="460" on="0"/>
        <pt x="218" y="324" on="0"/>
        <pt x="202" y="256" on="1"/>
        <pt x="346" y="256" on="1"/>
        <pt x="330" y="324" on="0"/>
        <pt x="295" y="461" on="0"/>
        <pt x="278" y="527" on="1"/>
      </contour>
    </TTGlyph>
    <TTGlyph name="B" xMin="84" yMin="-9" xMax="503" yMax="629">
      <contour>
        <pt x="210" y="-9" on="1"/>
        <pt x="180" y="-9" on="0"/>
        <pt x="117" y="-4" on="0"/>
        <pt x="84" y="0" on="1"/>
        <pt x="84" y="620" on="1"/>
        <pt x="123" y="624" on="0"/>
        <pt x="195" y="629" on="0"/>
        <pt x="227" y="629" on="1"/>
        <pt x="346" y="629" on="0"/>
        <pt x="483" y="558" on="0"/>
        <pt x="483" y="475" on="1"/>
        <pt x="483" y="422" on="0"/>
        <pt x="428" y="349" on="0"/>
        <pt x="383" y="328" on="1"/>
        <pt x="440" y="312" on="0"/>
        <pt x="503" y="241" on="0"/>
        <pt x="503" y="183" on="1"/>
        <pt x="503" y="133" on="0"/>
        <pt x="460" y="60" on="0"/>
        <pt x="383" y="13" on="0"/>
        <pt x="275" y="-9" on="0"/>
      </contour>
      <contour>
        <pt x="220" y="349" on="1"/>
        <pt x="305" y="349" on="0"/>
        <pt x="373" y="396" on="0"/>
        <pt x="373" y="447" on="1"/>
        <pt x="373" y="493" on="0"/>
        <pt x="308" y="537" on="0"/>
        <pt x="248" y="537" on="1"/>
        <pt x="236" y="537" on="0"/>
        <pt x="210" y="535" on="0"/>
        <pt x="197" y="534" on="1"/>
        <pt x="197" y="349" on="1"/>
        <pt x="203" y="349" on="0"/>
        <pt x="215" y="349" on="0"/>
      </contour>
      <contour>
        <pt x="265" y="81" on="1"/>
        <pt x="327" y="81" on="0"/>
        <pt x="390" y="127" on="0"/>
        <pt x="390" y="178" on="1"/>
        <pt x="390" y="231" on="0"/>
        <pt x="315" y="271" on="0"/>
        <pt x="242" y="271" on="1"/>
        <pt x="232" y="271" on="0"/>
        <pt x="209" y="271" on="0"/>
        <pt x="197" y="270" on="1"/>
        <pt x="197" y="86" on="1"/>
        <pt x="216" y="84" on="0"/>
        <pt x="250" y="81" on="0"/>
      </contour>
    </TTGlyph>
    <TTGlyph name="C" xMin="61" yMin="-7" xMax="484" yMax="629">
      <contour>
        <pt x="484" y="94" on="1"/>
        <pt x="474" y="-4" on="1"/>
        <pt x="455" y="-5" on="0"/>
        <pt x="419" y="-7" on="0"/>
        <pt x="402" y="-7" on="1"/>
        <pt x="304" y="-7" on="0"/>
        <pt x="172" y="41" on="0"/>
        <pt x="94" y="123" on="0"/>
        <pt x="61" y="236" on="0"/>
        <pt x="61" y="301" on="1"/>
        <pt x="61" y="366" on="0"/>
        <pt x="103" y="483" on="0"/>
        <pt x="199" y="572" on="0"/>
        <pt x="357" y="627" on="0"/>
        <pt x="472" y="629" on="1"/>
        <pt x="478" y="519" on="1"/>
        <pt x="454" y="519" on="1"/>
        <pt x="367" y="519" on="0"/>
        <pt x="259" y="492" on="0"/>
        <pt x="200" y="441" on="0"/>
        <pt x="180" y="365" on="0"/>
        <pt x="180" y="316" on="1"/>
        <pt x="180" y="260" on="0"/>
        <pt x="204" y="175" on="0"/>
        <pt x="263" y="120" on="0"/>
        <pt x="361" y="93" on="0"/>
        <pt x="435" y="93" on="1"/>
        <pt x="447" y="93" on="0"/>
        <pt x="471" y="93" on="0"/>
      </contour>
    </TTGlyph>
    <TTGlyph name="Cacute" xMin="61" yMin="-7" xMax="484" yMax="907">
      <contour>
        <pt x="191" y="730" on="1"/>
        <pt x="213" y="744" on="0"/>
        <pt x="267" y="787" on="0"/>
        <pt x="323" y="835" on="0"/>
        <pt x="376" y="885" on="0"/>
        <pt x="396" y="907" on="1"/>
        <pt x="478" y="823" on="1"/>
        <pt x="453" y="803" on="0"/>
        <pt x="386" y="761" on="0"/>
        <pt x="316" y="723" on="0"/>
        <pt x="246" y="691" on="0"/>
        <pt x="219" y="681" on="1"/>
      </contour>
      <contour>
        <pt x="484" y="94" on="1"/>
        <pt x="474" y="-4" on="1"/>
        <pt x="455" y="-5" on="0"/>
        <pt x="419" y="-7" on="0"/>
        <pt x="402" y="-7" on="1"/>
        <pt x="304" y="-7" on="0"/>
        <pt x="172" y="41" on="0"/>
        <pt x="94" y="123" on="0"/>
        <pt x="61" y="236" on="0"/>
        <pt x="61" y="301" on="1"/>
        <pt x="61" y="366" on="0"/>
        <pt x="103" y="483" on="0"/>
        <pt x="199" y="572" on="0"/>
        <pt x="357" y="627" on="0"/>
        <pt x="472" y="629" on="1"/>
        <pt x="478" y="519" on="1"/>
        <pt x="454" y="519" on="1"/>
        <pt x="367" y="519" on="0"/>
        <pt x="259" y="492" on="0"/>
        <pt x="200" y="441" on="0"/>
        <pt x="180" y="365" on="0"/>
        <pt x="180" y="316" on="1"/>
        <pt x="180" y="260" on="0"/>
        <pt x="204" y="175" on="0"/>
        <pt x="263" y="120" on="0"/>
        <pt x="361" y="93" on="0"/>
        <pt x="435" y="93" on="1"/>
        <pt x="447" y="93" on="0"/>
        <pt x="471" y="93" on="0"/>
      </contour>
    </TTGlyph>
    <TTGlyph name="Ccaron" xMin="61" yMin="-7" xMax="502" yMax="882">
      <contour>
        <pt x="320" y="676" on="1"/>
        <pt x="313" y="676" on="1"/>
        <pt x="129" y="816" on="1"/>
        <pt x="198" y="882" on="1"/>
        <pt x="325" y="780" on="1"/>
        <pt x="449" y="881" on="1"/>
        <pt x="502" y="829" on="1"/>
      </contour>
      <contour>
        <pt x="484" y="94" on="1"/>
        <pt x="474" y="-4" on="1"/>
        <pt x="455" y="-5" on="0"/>
        <pt x="419" y="-7" on="0"/>
        <pt x="402" y="-7" on="1"/>
        <pt x="304" y="-7" on="0"/>
        <pt x="172" y="41" on="0"/>
        <pt x="94" y="123" on="0"/>
        <pt x="61" y="236" on="0"/>
        <pt x="61" y="301" on="1"/>
        <pt x="61" y="366" on="0"/>
        <pt x="103" y="483" on="0"/>
        <pt x="199" y="572" on="0"/>
        <pt x="357" y="627" on="0"/>
        <pt x="472" y="629" on="1"/>
        <pt x="478" y="519" on="1"/>
        <pt x="454" y="519" on="1"/>
        <pt x="367" y="519" on="0"/>
        <pt x="259" y="492" on="0"/>
        <pt x="200" y="441" on="0"/>
        <pt x="180" y="365" on="0"/>
        <pt x="180" y="316" on="1"/>
        <pt x="180" y="260" on="0"/>
        <pt x="204" y="175" on="0"/>
        <pt x="263" y="120" on="0"/>
        <pt x="361" y="93" on="0"/>
        <pt x="435" y="93" on="1"/>
        <pt x="447" y="93" on="0"/>
        <pt x="471" y="93" on="0"/>
      </contour>
    </TTGlyph>
    <TTGlyph name="Ccedilla" xMin="61" yMin="-226" xMax="484" yMax="629">
      <contour>
        <pt x="405" y="-114" on="1"/>
        <pt x="405" y="-155" on="0"/>
        <pt x="303" y="-216" on="0"/>
        <pt x="202" y="-226" on="1"/>
        <pt x="195" y="-141" on="1"/>
        <pt x="253" y="-134" on="0"/>
        <pt x="305" y="-114" on="0"/>
        <pt x="305" y="-100" on="1"/>
        <pt x="305" y="-85" on="0"/>
        <pt x="261" y="-48" on="0"/>
        <pt x="216" y="-25" on="1"/>
        <pt x="235" y="18" on="1"/>
        <pt x="138" y="52" on="0"/>
        <pt x="61" y="205" on="0"/>
        <pt x="61" y="301" on="1"/>
        <pt x="61" y="366" on="0"/>
        <pt x="103" y="483" on="0"/>
        <pt x="199" y="572" on="0"/>
        <pt x="357" y="627" on="0"/>
        <pt x="472" y="629" on="1"/>
        <pt x="478" y="519" on="1"/>
        <pt x="454" y="519" on="1"/>
        <pt x="367" y="519" on="0"/>
        <pt x="259" y="492" on="0"/>
        <pt x="200" y="441" on="0"/>
        <pt x="180" y="365" on="0"/>
        <pt x="180" y="316" on="1"/>
        <pt x="180" y="260" on="0"/>
        <pt x="204" y="175" on="0"/>
        <pt x="263" y="120" on="0"/>
        <pt x="361" y="93" on="0"/>
        <pt x="435" y="93" on="1"/>
        <pt x="447" y="93" on="0"/>
        <pt x="471" y="93" on="0"/>
        <pt x="484" y="94" on="1"/>
        <pt x="474" y="-4" on="1"/>
        <pt x="455" y="-5" on="0"/>
        <pt x="419" y="-7" on="0"/>
        <pt x="402" y="-7" on="1"/>
        <pt x="374" y="-7" on="0"/>
        <pt x="322" y="-3" on="0"/>
        <pt x="299" y="1" on="1"/>
        <pt x="356" y="-28" on="0"/>
        <pt x="405" y="-87" on="0"/>
      </contour>
    </TTGlyph>
    <TTGlyph name="Cdotaccent" xMin="61" yMin="-7" xMax="484" yMax="835">
      <contour>
        <pt x="369" y="695" on="1"/>
        <pt x="254" y="695" on="1"/>
        <pt x="258" y="835" on="1"/>
        <pt x="374" y="835" on="1"/>
      </contour>
      <contour>
        <pt x="484" y="94" on="1"/>
        <pt x="474" y="-4" on="1"/>
        <pt x="455" y="-5" on="0"/>
        <pt x="419" y="-7" on="0"/>
        <pt x="402" y="-7" on="1"/>
        <pt x="304" y="-7" on="0"/>
        <pt x="172" y="41" on="0"/>
        <pt x="94" y="123" on="0"/>
        <pt x="61" y="236" on="0"/>
        <pt x="61" y="301" on="1"/>
        <pt x="61" y="366" on="0"/>
        <pt x="103" y="483" on="0"/>
        <pt x="199" y="572" on="0"/>
        <pt x="357" y="627" on="0"/>
        <pt x="472" y="629" on="1"/>
        <pt x="478" y="519" on="1"/>
        <pt x="454" y="519" on="1"/>
        <pt x="367" y="519" on="0"/>
        <pt x="259" y="492" on="0"/>
        <pt x="200" y="441" on="0"/>
        <pt x="180" y="365" on="0"/>
        <pt x="180" y="316" on="1"/>
        <pt x="180" y="260" on="0"/>
        <pt x="204" y="175" on="0"/>
        <pt x="263" y="120" on="0"/>
        <pt x="361" y="93" on="0"/>
        <pt x="435" y="93" on="1"/>
        <pt x="447" y="93" on="0"/>
        <pt x="471" y="93" on="0"/>
      </contour>
    </TTGlyph>
    <TTGlyph name="D" xMin="75" yMin="-8" xMax="508" yMax="629">
      <contour>
        <pt x="508" y="322" on="1"/>
        <pt x="508" y="165" on="0"/>
        <pt x="350" y="-8" on="0"/>
        <pt x="184" y="-8" on="1"/>
        <pt x="159" y="-8" on="0"/>
        <pt x="104" y="-4" on="0"/>
        <pt x="75" y="0" on="1"/>
        <pt x="75" y="620" on="1"/>
        <pt x="111" y="624" on="0"/>
        <pt x="176" y="629" on="0"/>
        <pt x="205" y="629" on="1"/>
        <pt x="370" y="629" on="0"/>
        <pt x="508" y="476" on="0"/>
      </contour>
      <contour>
        <pt x="392" y="305" on="1"/>
        <pt x="392" y="418" on="0"/>
        <pt x="320" y="534" on="0"/>
        <pt x="227" y="534" on="1"/>
        <pt x="218" y="534" on="0"/>
        <pt x="198" y="533" on="0"/>
        <pt x="188" y="532" on="1"/>
        <pt x="188" y="90" on="1"/>
        <pt x="201" y="88" on="0"/>
        <pt x="227" y="86" on="0"/>
        <pt x="238" y="86" on="1"/>
        <pt x="323" y="86" on="0"/>
        <pt x="392" y="196" on="0"/>
      </contour>
    </TTGlyph>
    <TTGlyph name="Dcaron" xMin="75" yMin="-8" xMax="508" yMax="888">
      <contour>
        <pt x="273" y="682" on="1"/>
        <pt x="266" y="682" on="1"/>
        <pt x="82" y="822" on="1"/>
        <pt x="151" y="888" on="1"/>
        <pt x="278" y="786" on="1"/>
        <pt x="402" y="887" on="1"/>
        <pt x="455" y="835" on="1"/>
      </contour>
      <contour>
        <pt x="508" y="322" on="1"/>
        <pt x="508" y="165" on="0"/>
        <pt x="350" y="-8" on="0"/>
        <pt x="184" y="-8" on="1"/>
        <pt x="159" y="-8" on="0"/>
        <pt x="104" y="-4" on="0"/>
        <pt x="75" y="0" on="1"/>
        <pt x="75" y="620" on="1"/>
        <pt x="111" y="624" on="0"/>
        <pt x="176" y="629" on="0"/>
        <pt x="205" y="629" on="1"/>
        <pt x="370" y="629" on="0"/>
        <pt x="508" y="476" on="0"/>
      </contour>
      <contour>
        <pt x="392" y="305" on="1"/>
        <pt x="392" y="418" on="0"/>
        <pt x="320" y="534" on="0"/>
        <pt x="227" y="534" on="1"/>
        <pt x="218" y="534" on="0"/>
        <pt x="198" y="533" on="0"/>
        <pt x="188" y="532" on="1"/>
        <pt x="188" y="90" on="1"/>
        <pt x="201" y="88" on="0"/>
        <pt x="227" y="86" on="0"/>
        <pt x="238" y="86" on="1"/>
        <pt x="323" y="86" on="0"/>
        <pt x="392" y="196" on="0"/>
      </contour>
    </TTGlyph>
    <TTGlyph name="Dcroat" xMin="13" yMin="-8" xMax="508" yMax="629">
      <contour>
        <pt x="184" y="-8" on="1"/>
        <pt x="159" y="-8" on="0"/>
        <pt x="104" y="-4" on="0"/>
        <pt x="75" y="0" on="1"/>
        <pt x="75" y="274" on="1"/>
        <pt x="13" y="274" on="1"/>
        <pt x="13" y="352" on="1"/>
        <pt x="75" y="352" on="1"/>
        <pt x="75" y="620" on="1"/>
        <pt x="111" y="624" on="0"/>
        <pt x="176" y="629" on="0"/>
        <pt x="205" y="629" on="1"/>
        <pt x="370" y="629" on="0"/>
        <pt x="508" y="476" on="0"/>
        <pt x="508" y="322" on="1"/>
        <pt x="508" y="165" on="0"/>
        <pt x="350" y="-8" on="0"/>
      </contour>
      <contour>
        <pt x="238" y="86" on="1"/>
        <pt x="323" y="86" on="0"/>
        <pt x="392" y="196" on="0"/>
        <pt x="392" y="305" on="1"/>
        <pt x="392" y="418" on="0"/>
        <pt x="320" y="534" on="0"/>
        <pt x="227" y="534" on="1"/>
        <pt x="218" y="534" on="0"/>
        <pt x="198" y="533" on="0"/>
        <pt x="188" y="532" on="1"/>
        <pt x="188" y="352" on="1"/>
        <pt x="298" y="352" on="1"/>
        <pt x="293" y="274" on="1"/>
        <pt x="188" y="274" on="1"/>
        <pt x="188" y="90" on="1"/>
        <pt x="201" y="88" on="0"/>
        <pt x="227" y="86" on="0"/>
      </contour>
    </TTGlyph>
    <TTGlyph name="E" xMin="96" yMin="0" xMax="489" yMax="620">
      <contour>
        <pt x="489" y="96" on="1"/>
        <pt x="480" y="0" on="1"/>
        <pt x="96" y="0" on="1"/>
        <pt x="96" y="620" on="1"/>
        <pt x="483" y="620" on="1"/>
        <pt x="483" y="524" on="1"/>
        <pt x="211" y="524" on="1"/>
        <pt x="211" y="354" on="1"/>
        <pt x="444" y="354" on="1"/>
        <pt x="444" y="270" on="1"/>
        <pt x="211" y="270" on="1"/>
        <pt x="211" y="96" on="1"/>
      </contour>
    </TTGlyph>
    <TTGlyph name="Eacute" xMin="96" yMin="0" xMax="489" yMax="907">
      <contour>
        <pt x="171" y="730" on="1"/>
        <pt x="193" y="744" on="0"/>
        <pt x="247" y="787" on="0"/>
        <pt x="303" y="835" on="0"/>
        <pt x="356" y="885" on="0"/>
        <pt x="376" y="907" on="1"/>
        <pt x="458" y="823" on="1"/>
        <pt x="433" y="803" on="0"/>
        <pt x="366" y="761" on="0"/>
        <pt x="296" y="723" on="0"/>
        <pt x="226" y="691" on="0"/>
        <pt x="199" y="681" on="1"/>
      </contour>
      <contour>
        <pt x="489" y="96" on="1"/>
        <pt x="480" y="0" on="1"/>
        <pt x="96" y="0" on="1"/>
        <pt x="96" y="620" on="1"/>
        <pt x="483" y="620" on="1"/>
        <pt x="483" y="524" on="1"/>
        <pt x="211" y="524" on="1"/>
        <pt x="211" y="354" on="1"/>
        <pt x="444" y="354" on="1"/>
        <pt x="444" y="270" on="1"/>
        <pt x="211" y="270" on="1"/>
        <pt x="211" y="96" on="1"/>
      </contour>
    </TTGlyph>
    <TTGlyph name="Ebreve" xMin="96" yMin="0" xMax="491" yMax="877">
      <contour>
        <pt x="290" y="686" on="1"/>
        <pt x="236" y="686" on="0"/>
        <pt x="136" y="760" on="0"/>
        <pt x="96" y="832" on="1"/>
        <pt x="173" y="877" on="1"/>
        <pt x="207" y="823" on="0"/>
        <pt x="266" y="775" on="0"/>
        <pt x="300" y="775" on="1"/>
        <pt x="336" y="775" on="0"/>
        <pt x="396" y="826" on="0"/>
        <pt x="428" y="872" on="1"/>
        <pt x="491" y="840" on="1"/>
        <pt x="449" y="769" on="0"/>
        <pt x="346" y="686" on="0"/>
      </contour>
      <contour>
        <pt x="489" y="96" on="1"/>
        <pt x="480" y="0" on="1"/>
        <pt x="96" y="0" on="1"/>
        <pt x="96" y="620" on="1"/>
        <pt x="483" y="620" on="1"/>
        <pt x="483" y="524" on="1"/>
        <pt x="211" y="524" on="1"/>
        <pt x="211" y="354" on="1"/>
        <pt x="444" y="354" on="1"/>
        <pt x="444" y="270" on="1"/>
        <pt x="211" y="270" on="1"/>
        <pt x="211" y="96" on="1"/>
      </contour>
    </TTGlyph>
    <TTGlyph name="Ecaron" xMin="96" yMin="0" xMax="489" yMax="882">
      <contour>
        <pt x="299" y="676" on="1"/>
        <pt x="292" y="676" on="1"/>
        <pt x="108" y="816" on="1"/>
        <pt x="177" y="882" on="1"/>
        <pt x="304" y="780" on="1"/>
        <pt x="428" y="881" on="1"/>
        <pt x="481" y="829" on="1"/>
      </contour>
      <contour>
        <pt x="489" y="96" on="1"/>
        <pt x="480" y="0" on="1"/>
        <pt x="96" y="0" on="1"/>
        <pt x="96" y="620" on="1"/>
        <pt x="483" y="620" on="1"/>
        <pt x="483" y="524" on="1"/>
        <pt x="211" y="524" on="1"/>
        <pt x="211" y="354" on="1"/>
        <pt x="444" y="354" on="1"/>
        <pt x="444" y="270" on="1"/>
        <pt x="211" y="270" on="1"/>
        <pt x="211" y="96" on="1"/>
      </contour>
    </TTGlyph>
    <TTGlyph name="Ecircumflex" xMin="96" yMin="0" xMax="489" yMax="888">
      <contour>
        <pt x="407" y="683" on="1"/>
        <pt x="280" y="785" on="1"/>
        <pt x="156" y="684" on="1"/>
        <pt x="102" y="735" on="1"/>
        <pt x="284" y="888" on="1"/>
        <pt x="291" y="888" on="1"/>
        <pt x="475" y="748" on="1"/>
      </contour>
      <contour>
        <pt x="489" y="96" on="1"/>
        <pt x="480" y="0" on="1"/>
        <pt x="96" y="0" on="1"/>
        <pt x="96" y="620" on="1"/>
        <pt x="483" y="620" on="1"/>
        <pt x="483" y="524" on="1"/>
        <pt x="211" y="524" on="1"/>
        <pt x="211" y="354" on="1"/>
        <pt x="444" y="354" on="1"/>
        <pt x="444" y="270" on="1"/>
        <pt x="211" y="270" on="1"/>
        <pt x="211" y="96" on="1"/>
      </contour>
    </TTGlyph>
    <TTGlyph name="Edieresis" xMin="96" yMin="0" xMax="489" yMax="835">
      <contour>
        <pt x="457" y="695" on="1"/>
        <pt x="345" y="695" on="1"/>
        <pt x="347" y="835" on="1"/>
        <pt x="460" y="835" on="1"/>
      </contour>
      <contour>
        <pt x="235" y="695" on="1"/>
        <pt x="122" y="695" on="1"/>
        <pt x="124" y="835" on="1"/>
        <pt x="238" y="835" on="1"/>
      </contour>
      <contour>
        <pt x="489" y="96" on="1"/>
        <pt x="480" y="0" on="1"/>
        <pt x="96" y="0" on="1"/>
        <pt x="96" y="620" on="1"/>
        <pt x="483" y="620" on="1"/>
        <pt x="483" y="524" on="1"/>
        <pt x="211" y="524" on="1"/>
        <pt x="211" y="354" on="1"/>
        <pt x="444" y="354" on="1"/>
        <pt x="444" y="270" on="1"/>
        <pt x="211" y="270" on="1"/>
        <pt x="211" y="96" on="1"/>
      </contour>
    </TTGlyph>
    <TTGlyph name="Edotaccent" xMin="96" yMin="0" xMax="489" yMax="835">
      <contour>
        <pt x="348" y="695" on="1"/>
        <pt x="233" y="695" on="1"/>
        <pt x="237" y="835" on="1"/>
        <pt x="353" y="835" on="1"/>
      </contour>
      <contour>
        <pt x="489" y="96" on="1"/>
        <pt x="480" y="0" on="1"/>
        <pt x="96" y="0" on="1"/>
        <pt x="96" y="620" on="1"/>
        <pt x="483" y="620" on="1"/>
        <pt x="483" y="524" on="1"/>
        <pt x="211" y="524" on="1"/>
        <pt x="211" y="354" on="1"/>
        <pt x="444" y="354" on="1"/>
        <pt x="444" y="270" on="1"/>
        <pt x="211" y="270" on="1"/>
        <pt x="211" y="96" on="1"/>
      </contour>
    </TTGlyph>
    <TTGlyph name="Egrave" xMin="96" yMin="0" xMax="489" yMax="906">
      <contour>
        <pt x="401" y="726" on="1"/>
        <pt x="370" y="678" on="1"/>
        <pt x="344" y="689" on="0"/>
        <pt x="276" y="722" on="0"/>
        <pt x="207" y="759" on="0"/>
        <pt x="141" y="798" on="0"/>
        <pt x="115" y="816" on="1"/>
        <pt x="190" y="906" on="1"/>
        <pt x="211" y="885" on="0"/>
        <pt x="267" y="835" on="0"/>
        <pt x="325" y="786" on="0"/>
        <pt x="381" y="741" on="0"/>
      </contour>
      <contour>
        <pt x="489" y="96" on="1"/>
        <pt x="480" y="0" on="1"/>
        <pt x="96" y="0" on="1"/>
        <pt x="96" y="620" on="1"/>
        <pt x="483" y="620" on="1"/>
        <pt x="483" y="524" on="1"/>
        <pt x="211" y="524" on="1"/>
        <pt x="211" y="354" on="1"/>
        <pt x="444" y="354" on="1"/>
        <pt x="444" y="270" on="1"/>
        <pt x="211" y="270" on="1"/>
        <pt x="211" y="96" on="1"/>
      </contour>
    </TTGlyph>
    <TTGlyph name="Emacron" xMin="96" yMin="0" xMax="489" yMax="813">
      <contour>
        <pt x="462" y="813" on="1"/>
        <pt x="462" y="718" on="1"/>
        <pt x="116" y="718" on="1"/>
        <pt x="116" y="813" on="1"/>
      </contour>
      <contour>
        <pt x="489" y="96" on="1"/>
        <pt x="480" y="0" on="1"/>
        <pt x="96" y="0" on="1"/>
        <pt x="96" y="620" on="1"/>
        <pt x="483" y="620" on="1"/>
        <pt x="483" y="524" on="1"/>
        <pt x="211" y="524" on="1"/>
        <pt x="211" y="354" on="1"/>
        <pt x="444" y="354" on="1"/>
        <pt x="444" y="270" on="1"/>
        <pt x="211" y="270" on="1"/>
        <pt x="211" y="96" on="1"/>
      </contour>
    </TTGlyph>
    <TTGlyph name="Eogonek" xMin="96" yMin="-224" xMax="489" yMax="620">
      <contour>
        <pt x="468" y="-137" on="1"/>
        <pt x="458" y="-224" on="1"/>
        <pt x="348" y="-219" on="0"/>
        <pt x="253" y="-162" on="0"/>
        <pt x="253" y="-123" on="1"/>
        <pt x="253" y="-94" on="0"/>
        <pt x="306" y="-34" on="0"/>
        <pt x="365" y="0" on="1"/>
        <pt x="96" y="0" on="1"/>
        <pt x="96" y="620" on="1"/>
        <pt x="483" y="620" on="1"/>
        <pt x="483" y="524" on="1"/>
        <pt x="211" y="524" on="1"/>
        <pt x="211" y="354" on="1"/>
        <pt x="444" y="354" on="1"/>
        <pt x="444" y="270" on="1"/>
        <pt x="211" y="270" on="1"/>
        <pt x="211" y="96" on="1"/>
        <pt x="489" y="96" on="1"/>
        <pt x="480" y="0" on="1"/>
        <pt x="410" y="-31" on="0"/>
        <pt x="359" y="-76" on="0"/>
        <pt x="359" y="-92" on="1"/>
        <pt x="359" y="-109" on="0"/>
        <pt x="408" y="-132" on="0"/>
      </contour>
    </TTGlyph>
    <TTGlyph name="Eth" xMin="13" yMin="-8" xMax="508" yMax="629">
      <contour>
        <pt x="184" y="-8" on="1"/>
        <pt x="159" y="-8" on="0"/>
        <pt x="104" y="-4" on="0"/>
        <pt x="75" y="0" on="1"/>
        <pt x="75" y="274" on="1"/>
        <pt x="13" y="274" on="1"/>
        <pt x="13" y="352" on="1"/>
        <pt x="75" y="352" on="1"/>
        <pt x="75" y="620" on="1"/>
        <pt x="111" y="624" on="0"/>
        <pt x="176" y="629" on="0"/>
        <pt x="205" y="629" on="1"/>
        <pt x="370" y="629" on="0"/>
        <pt x="508" y="476" on="0"/>
        <pt x="508" y="322" on="1"/>
        <pt x="508" y="165" on="0"/>
        <pt x="350" y="-8" on="0"/>
      </contour>
      <contour>
        <pt x="238" y="86" on="1"/>
        <pt x="323" y="86" on="0"/>
        <pt x="392" y="196" on="0"/>
        <pt x="392" y="305" on="1"/>
        <pt x="392" y="418" on="0"/>
        <pt x="320" y="534" on="0"/>
        <pt x="227" y="534" on="1"/>
        <pt x="218" y="534" on="0"/>
        <pt x="198" y="533" on="0"/>
        <pt x="188" y="532" on="1"/>
        <pt x="188" y="352" on="1"/>
        <pt x="298" y="352" on="1"/>
        <pt x="293" y="274" on="1"/>
        <pt x="188" y="274" on="1"/>
        <pt x="188" y="90" on="1"/>
        <pt x="201" y="88" on="0"/>
        <pt x="227" y="86" on="0"/>
      </contour>
    </TTGlyph>
    <TTGlyph name="Euro" xMin="56" yMin="-21" xMax="486" yMax="643">
      <contour>
        <pt x="486" y="70" on="1"/>
        <pt x="472" y="-21" on="1"/>
        <pt x="312" y="-6" on="0"/>
        <pt x="155" y="98" on="0"/>
        <pt x="130" y="183" on="1"/>
        <pt x="56" y="183" on="1"/>
        <pt x="56" y="262" on="1"/>
        <pt x="117" y="262" on="1"/>
        <pt x="116" y="273" on="0"/>
        <pt x="115" y="297" on="0"/>
        <pt x="115" y="310" on="1"/>
        <pt x="115" y="318" on="0"/>
        <pt x="115" y="335" on="0"/>
        <pt x="116" y="342" on="1"/>
        <pt x="56" y="342" on="1"/>
        <pt x="56" y="421" on="1"/>
        <pt x="128" y="421" on="1"/>
        <pt x="150" y="499" on="0"/>
        <pt x="299" y="614" on="0"/>
        <pt x="461" y="643" on="1"/>
        <pt x="478" y="537" on="1"/>
        <pt x="354" y="519" on="0"/>
        <pt x="244" y="465" on="0"/>
        <pt x="228" y="413" on="1"/>
        <pt x="438" y="413" on="1"/>
        <pt x="434" y="342" on="1"/>
        <pt x="218" y="342" on="1"/>
        <pt x="217" y="335" on="0"/>
        <pt x="217" y="320" on="0"/>
        <pt x="217" y="313" on="1"/>
        <pt x="217" y="300" on="0"/>
        <pt x="218" y="276" on="0"/>
        <pt x="219" y="265" on="1"/>
        <pt x="432" y="265" on="1"/>
        <pt x="428" y="194" on="1"/>
        <pt x="234" y="194" on="1"/>
        <pt x="255" y="146" on="0"/>
        <pt x="369" y="87" on="0"/>
      </contour>
    </TTGlyph>
    <TTGlyph name="F" xMin="102" yMin="0" xMax="494" yMax="620">
      <contour>
        <pt x="453" y="255" on="1"/>
        <pt x="217" y="255" on="1"/>
        <pt x="217" y="0" on="1"/>
        <pt x="102" y="0" on="1"/>
        <pt x="102" y="620" on="1"/>
        <pt x="494" y="620" on="1"/>
        <pt x="494" y="524" on="1"/>
        <pt x="217" y="524" on="1"/>
        <pt x="217" y="344" on="1"/>
        <pt x="453" y="344" on="1"/>
      </contour>
    </TTGlyph>
    <TTGlyph name="G" xMin="49" yMin="-9" xMax="485" yMax="629">
      <contour>
        <pt x="485" y="8" on="1"/>
        <pt x="446" y="0" on="0"/>
        <pt x="374" y="-9" on="0"/>
        <pt x="343" y="-9" on="1"/>
        <pt x="269" y="-9" on="0"/>
        <pt x="158" y="34" on="0"/>
        <pt x="85" y="113" on="0"/>
        <pt x="49" y="225" on="0"/>
        <pt x="49" y="293" on="1"/>
        <pt x="49" y="361" on="0"/>
        <pt x="89" y="481" on="0"/>
        <pt x="182" y="570" on="0"/>
        <pt x="338" y="626" on="0"/>
        <pt x="453" y="629" on="1"/>
        <pt x="460" y="519" on="1"/>
        <pt x="450" y="520" on="0"/>
        <pt x="432" y="520" on="0"/>
        <pt x="423" y="520" on="1"/>
        <pt x="341" y="520" on="0"/>
        <pt x="239" y="489" on="0"/>
        <pt x="184" y="434" on="0"/>
        <pt x="166" y="357" on="0"/>
        <pt x="166" y="312" on="1"/>
        <pt x="166" y="202" on="0"/>
        <pt x="260" y="81" on="0"/>
        <pt x="376" y="81" on="1"/>
        <pt x="377" y="81" on="0"/>
        <pt x="382" y="81" on="0"/>
        <pt x="383" y="81" on="1"/>
        <pt x="382" y="128" on="0"/>
        <pt x="379" y="253" on="0"/>
        <pt x="378" y="310" on="1"/>
        <pt x="484" y="310" on="1"/>
        <pt x="484" y="215" on="0"/>
        <pt x="484" y="68" on="0"/>
      </contour>
    </TTGlyph>
    <TTGlyph name="Gbreve" xMin="49" yMin="-9" xMax="495" yMax="877">
      <contour>
        <pt x="294" y="686" on="1"/>
        <pt x="240" y="686" on="0"/>
        <pt x="140" y="760" on="0"/>
        <pt x="100" y="832" on="1"/>
        <pt x="177" y="877" on="1"/>
        <pt x="211" y="823" on="0"/>
        <pt x="270" y="775" on="0"/>
        <pt x="304" y="775" on="1"/>
        <pt x="340" y="775" on="0"/>
        <pt x="400" y="826" on="0"/>
        <pt x="432" y="872" on="1"/>
        <pt x="495" y="840" on="1"/>
        <pt x="453" y="769" on="0"/>
        <pt x="350" y="686" on="0"/>
      </contour>
      <contour>
        <pt x="485" y="8" on="1"/>
        <pt x="446" y="0" on="0"/>
        <pt x="374" y="-9" on="0"/>
        <pt x="343" y="-9" on="1"/>
        <pt x="269" y="-9" on="0"/>
        <pt x="158" y="34" on="0"/>
        <pt x="85" y="113" on="0"/>
        <pt x="49" y="225" on="0"/>
        <pt x="49" y="293" on="1"/>
        <pt x="49" y="361" on="0"/>
        <pt x="89" y="481" on="0"/>
        <pt x="182" y="570" on="0"/>
        <pt x="338" y="626" on="0"/>
        <pt x="453" y="629" on="1"/>
        <pt x="460" y="519" on="1"/>
        <pt x="450" y="520" on="0"/>
        <pt x="432" y="520" on="0"/>
        <pt x="423" y="520" on="1"/>
        <pt x="341" y="520" on="0"/>
        <pt x="239" y="489" on="0"/>
        <pt x="184" y="434" on="0"/>
        <pt x="166" y="357" on="0"/>
        <pt x="166" y="312" on="1"/>
        <pt x="166" y="202" on="0"/>
        <pt x="260" y="81" on="0"/>
        <pt x="376" y="81" on="1"/>
        <pt x="377" y="81" on="0"/>
        <pt x="382" y="81" on="0"/>
        <pt x="383" y="81" on="1"/>
        <pt x="382" y="128" on="0"/>
        <pt x="379" y="253" on="0"/>
        <pt x="378" y="310" on="1"/>
        <pt x="484" y="310" on="1"/>
        <pt x="484" y="215" on="0"/>
        <pt x="484" y="68" on="0"/>
      </contour>
    </TTGlyph>
    <TTGlyph name="Gcommaaccent" xMin="49" yMin="-293" xMax="485" yMax="629">
      <contour>
        <pt x="485" y="8" on="1"/>
        <pt x="446" y="0" on="0"/>
        <pt x="374" y="-9" on="0"/>
        <pt x="343" y="-9" on="1"/>
        <pt x="269" y="-9" on="0"/>
        <pt x="158" y="34" on="0"/>
        <pt x="85" y="113" on="0"/>
        <pt x="49" y="225" on="0"/>
        <pt x="49" y="293" on="1"/>
        <pt x="49" y="361" on="0"/>
        <pt x="89" y="481" on="0"/>
        <pt x="182" y="570" on="0"/>
        <pt x="338" y="626" on="0"/>
        <pt x="453" y="629" on="1"/>
        <pt x="460" y="519" on="1"/>
        <pt x="450" y="520" on="0"/>
        <pt x="432" y="520" on="0"/>
        <pt x="423" y="520" on="1"/>
        <pt x="341" y="520" on="0"/>
        <pt x="239" y="489" on="0"/>
        <pt x="184" y="434" on="0"/>
        <pt x="166" y="357" on="0"/>
        <pt x="166" y="312" on="1"/>
        <pt x="166" y="202" on="0"/>
        <pt x="260" y="81" on="0"/>
        <pt x="376" y="81" on="1"/>
        <pt x="377" y="81" on="0"/>
        <pt x="382" y="81" on="0"/>
        <pt x="383" y="81" on="1"/>
        <pt x="382" y="128" on="0"/>
        <pt x="379" y="253" on="0"/>
        <pt x="378" y="310" on="1"/>
        <pt x="484" y="310" on="1"/>
        <pt x="484" y="215" on="0"/>
        <pt x="484" y="68" on="0"/>
      </contour>
      <contour>
        <pt x="221" y="-275" on="1"/>
        <pt x="231" y="-250" on="0"/>
        <pt x="240" y="-200" on="0"/>
        <pt x="240" y="-175" on="1"/>
        <pt x="240" y="-150" on="0"/>
        <pt x="232" y="-102" on="0"/>
        <pt x="225" y="-80" on="1"/>
        <pt x="226" y="-80" on="0"/>
        <pt x="267" y="-78" on="0"/>
        <pt x="315" y="-76" on="0"/>
        <pt x="357" y="-74" on="0"/>
        <pt x="358" y="-74" on="1"/>
        <pt x="358" y="-89" on="1"/>
        <pt x="358" y="-142" on="0"/>
        <pt x="318" y="-253" on="0"/>
        <pt x="278" y="-293" on="1"/>
      </contour>
    </TTGlyph>
    <TTGlyph name="Gdotaccent" xMin="49" yMin="-9" xMax="485" yMax="835">
      <contour>
        <pt x="352" y="695" on="1"/>
        <pt x="237" y="695" on="1"/>
        <pt x="241" y="835" on="1"/>
        <pt x="357" y="835" on="1"/>
      </contour>
      <contour>
        <pt x="485" y="8" on="1"/>
        <pt x="446" y="0" on="0"/>
        <pt x="374" y="-9" on="0"/>
        <pt x="343" y="-9" on="1"/>
        <pt x="269" y="-9" on="0"/>
        <pt x="158" y="34" on="0"/>
        <pt x="85" y="113" on="0"/>
        <pt x="49" y="225" on="0"/>
        <pt x="49" y="293" on="1"/>
        <pt x="49" y="361" on="0"/>
        <pt x="89" y="481" on="0"/>
        <pt x="182" y="570" on="0"/>
        <pt x="338" y="626" on="0"/>
        <pt x="453" y="629" on="1"/>
        <pt x="460" y="519" on="1"/>
        <pt x="450" y="520" on="0"/>
        <pt x="432" y="520" on="0"/>
        <pt x="423" y="520" on="1"/>
        <pt x="341" y="520" on="0"/>
        <pt x="239" y="489" on="0"/>
        <pt x="184" y="434" on="0"/>
        <pt x="166" y="357" on="0"/>
        <pt x="166" y="312" on="1"/>
        <pt x="166" y="202" on="0"/>
        <pt x="260" y="81" on="0"/>
        <pt x="376" y="81" on="1"/>
        <pt x="377" y="81" on="0"/>
        <pt x="382" y="81" on="0"/>
        <pt x="383" y="81" on="1"/>
        <pt x="382" y="128" on="0"/>
        <pt x="379" y="253" on="0"/>
        <pt x="378" y="310" on="1"/>
        <pt x="484" y="310" on="1"/>
        <pt x="484" y="215" on="0"/>
        <pt x="484" y="68" on="0"/>
      </contour>
    </TTGlyph>
    <TTGlyph name="H" xMin="69" yMin="0" xMax="482" yMax="620">
      <contour>
        <pt x="364" y="0" on="1"/>
        <pt x="364" y="269" on="1"/>
        <pt x="186" y="269" on="1"/>
        <pt x="186" y="0" on="1"/>
        <pt x="69" y="0" on="1"/>
        <pt x="69" y="620" on="1"/>
        <pt x="186" y="620" on="1"/>
        <pt x="186" y="357" on="1"/>
        <pt x="364" y="357" on="1"/>
        <pt x="364" y="620" on="1"/>
        <pt x="482" y="620" on="1"/>
        <pt x="482" y="0" on="1"/>
      </contour>
    </TTGlyph>
    <TTGlyph name="Hbar" xMin="6" yMin="0" xMax="545" yMax="620">
      <contour>
        <pt x="364" y="340" on="1"/>
        <pt x="364" y="440" on="1"/>
        <pt x="186" y="440" on="1"/>
        <pt x="186" y="340" on="1"/>
      </contour>
      <contour>
        <pt x="364" y="0" on="1"/>
        <pt x="364" y="252" on="1"/>
        <pt x="186" y="252" on="1"/>
        <pt x="186" y="0" on="1"/>
        <pt x="69" y="0" on="1"/>
        <pt x="69" y="436" on="1"/>
        <pt x="6" y="436" on="1"/>
        <pt x="6" y="514" on="1"/>
        <pt x="69" y="514" on="1"/>
        <pt x="69" y="620" on="1"/>
        <pt x="186" y="620" on="1"/>
        <pt x="186" y="510" on="1"/>
        <pt x="364" y="510" on="1"/>
        <pt x="364" y="620" on="1"/>
        <pt x="482" y="620" on="1"/>
        <pt x="482" y="514" on="1"/>
        <pt x="545" y="514" on="1"/>
        <pt x="545" y="436" on="1"/>
        <pt x="482" y="436" on="1"/>
        <pt x="482" y="0" on="1"/>
      </contour>
    </TTGlyph>
    <TTGlyph name="I" xMin="75" yMin="0" xMax="481" yMax="620">
      <contour>
        <pt x="333" y="531" on="1"/>
        <pt x="333" y="89" on="1"/>
        <pt x="481" y="89" on="1"/>
        <pt x="473" y="0" on="1"/>
        <pt x="75" y="0" on="1"/>
        <pt x="75" y="89" on="1"/>
        <pt x="218" y="89" on="1"/>
        <pt x="218" y="531" on="1"/>
        <pt x="75" y="531" on="1"/>
        <pt x="75" y="620" on="1"/>
        <pt x="476" y="620" on="1"/>
        <pt x="476" y="531" on="1"/>
      </contour>
    </TTGlyph>
    <TTGlyph name="Iacute" xMin="75" yMin="0" xMax="481" yMax="907">
      <contour>
        <pt x="160" y="730" on="1"/>
        <pt x="182" y="744" on="0"/>
        <pt x="236" y="787" on="0"/>
        <pt x="292" y="835" on="0"/>
        <pt x="345" y="885" on="0"/>
        <pt x="365" y="907" on="1"/>
        <pt x="447" y="823" on="1"/>
        <pt x="422" y="803" on="0"/>
        <pt x="355" y="761" on="0"/>
        <pt x="285" y="723" on="0"/>
        <pt x="215" y="691" on="0"/>
        <pt x="188" y="681" on="1"/>
      </contour>
      <contour>
        <pt x="333" y="531" on="1"/>
        <pt x="333" y="89" on="1"/>
        <pt x="481" y="89" on="1"/>
        <pt x="473" y="0" on="1"/>
        <pt x="75" y="0" on="1"/>
        <pt x="75" y="89" on="1"/>
        <pt x="218" y="89" on="1"/>
        <pt x="218" y="531" on="1"/>
        <pt x="75" y="531" on="1"/>
        <pt x="75" y="620" on="1"/>
        <pt x="476" y="620" on="1"/>
        <pt x="476" y="531" on="1"/>
      </contour>
    </TTGlyph>
    <TTGlyph name="Ibreve" xMin="75" yMin="0" xMax="481" yMax="877">
      <contour>
        <pt x="279" y="686" on="1"/>
        <pt x="225" y="686" on="0"/>
        <pt x="125" y="760" on="0"/>
        <pt x="85" y="832" on="1"/>
        <pt x="162" y="877" on="1"/>
        <pt x="196" y="823" on="0"/>
        <pt x="255" y="775" on="0"/>
        <pt x="289" y="775" on="1"/>
        <pt x="325" y="775" on="0"/>
        <pt x="385" y="826" on="0"/>
        <pt x="417" y="872" on="1"/>
        <pt x="480" y="840" on="1"/>
        <pt x="438" y="769" on="0"/>
        <pt x="335" y="686" on="0"/>
      </contour>
      <contour>
        <pt x="333" y="531" on="1"/>
        <pt x="333" y="89" on="1"/>
        <pt x="481" y="89" on="1"/>
        <pt x="473" y="0" on="1"/>
        <pt x="75" y="0" on="1"/>
        <pt x="75" y="89" on="1"/>
        <pt x="218" y="89" on="1"/>
        <pt x="218" y="531" on="1"/>
        <pt x="75" y="531" on="1"/>
        <pt x="75" y="620" on="1"/>
        <pt x="476" y="620" on="1"/>
        <pt x="476" y="531" on="1"/>
      </contour>
    </TTGlyph>
    <TTGlyph name="Icircumflex" xMin="75" yMin="0" xMax="481" yMax="888">
      <contour>
        <pt x="397" y="683" on="1"/>
        <pt x="270" y="785" on="1"/>
        <pt x="146" y="684" on="1"/>
        <pt x="92" y="735" on="1"/>
        <pt x="274" y="888" on="1"/>
        <pt x="281" y="888" on="1"/>
        <pt x="465" y="748" on="1"/>
      </contour>
      <contour>
        <pt x="333" y="531" on="1"/>
        <pt x="333" y="89" on="1"/>
        <pt x="481" y="89" on="1"/>
        <pt x="473" y="0" on="1"/>
        <pt x="75" y="0" on="1"/>
        <pt x="75" y="89" on="1"/>
        <pt x="218" y="89" on="1"/>
        <pt x="218" y="531" on="1"/>
        <pt x="75" y="531" on="1"/>
        <pt x="75" y="620" on="1"/>
        <pt x="476" y="620" on="1"/>
        <pt x="476" y="531" on="1"/>
      </contour>
    </TTGlyph>
    <TTGlyph name="Idieresis" xMin="75" yMin="0" xMax="481" yMax="835">
      <contour>
        <pt x="446" y="695" on="1"/>
        <pt x="334" y="695" on="1"/>
        <pt x="336" y="835" on="1"/>
        <pt x="449" y="835" on="1"/>
      </contour>
      <contour>
        <pt x="224" y="695" on="1"/>
        <pt x="111" y="695" on="1"/>
        <pt x="113" y="835" on="1"/>
        <pt x="227" y="835" on="1"/>
      </contour>
      <contour>
        <pt x="333" y="531" on="1"/>
        <pt x="333" y="89" on="1"/>
        <pt x="481" y="89" on="1"/>
        <pt x="473" y="0" on="1"/>
        <pt x="75" y="0" on="1"/>
        <pt x="75" y="89" on="1"/>
        <pt x="218" y="89" on="1"/>
        <pt x="218" y="531" on="1"/>
        <pt x="75" y="531" on="1"/>
        <pt x="75" y="620" on="1"/>
        <pt x="476" y="620" on="1"/>
        <pt x="476" y="531" on="1"/>
      </contour>
    </TTGlyph>
    <TTGlyph name="Idotaccent" xMin="75" yMin="0" xMax="481" yMax="835">
      <contour>
        <pt x="338" y="695" on="1"/>
        <pt x="223" y="695" on="1"/>
        <pt x="227" y="835" on="1"/>
        <pt x="343" y="835" on="1"/>
      </contour>
      <contour>
        <pt x="333" y="531" on="1"/>
        <pt x="333" y="89" on="1"/>
        <pt x="481" y="89" on="1"/>
        <pt x="473" y="0" on="1"/>
        <pt x="75" y="0" on="1"/>
        <pt x="75" y="89" on="1"/>
        <pt x="218" y="89" on="1"/>
        <pt x="218" y="531" on="1"/>
        <pt x="75" y="531" on="1"/>
        <pt x="75" y="620" on="1"/>
        <pt x="476" y="620" on="1"/>
        <pt x="476" y="531" on="1"/>
      </contour>
    </TTGlyph>
    <TTGlyph name="Igrave" xMin="75" yMin="0" xMax="481" yMax="906">
      <contour>
        <pt x="391" y="726" on="1"/>
        <pt x="360" y="678" on="1"/>
        <pt x="334" y="689" on="0"/>
        <pt x="266" y="722" on="0"/>
        <pt x="197" y="759" on="0"/>
        <pt x="131" y="798" on="0"/>
        <pt x="105" y="816" on="1"/>
        <pt x="180" y="906" on="1"/>
        <pt x="201" y="885" on="0"/>
        <pt x="257" y="835" on="0"/>
        <pt x="315" y="786" on="0"/>
        <pt x="371" y="741" on="0"/>
      </contour>
      <contour>
        <pt x="333" y="531" on="1"/>
        <pt x="333" y="89" on="1"/>
        <pt x="481" y="89" on="1"/>
        <pt x="473" y="0" on="1"/>
        <pt x="75" y="0" on="1"/>
        <pt x="75" y="89" on="1"/>
        <pt x="218" y="89" on="1"/>
        <pt x="218" y="531" on="1"/>
        <pt x="75" y="531" on="1"/>
        <pt x="75" y="620" on="1"/>
        <pt x="476" y="620" on="1"/>
        <pt x="476" y="531" on="1"/>
      </contour>
    </TTGlyph>
    <TTGlyph name="Imacron" xMin="75" yMin="0" xMax="481" yMax="813">
      <contour>
        <pt x="451" y="813" on="1"/>
        <pt x="451" y="718" on="1"/>
        <pt x="105" y="718" on="1"/>
        <pt x="105" y="813" on="1"/>
      </contour>
      <contour>
        <pt x="333" y="531" on="1"/>
        <pt x="333" y="89" on="1"/>
        <pt x="481" y="89" on="1"/>
        <pt x="473" y="0" on="1"/>
        <pt x="75" y="0" on="1"/>
        <pt x="75" y="89" on="1"/>
        <pt x="218" y="89" on="1"/>
        <pt x="218" y="531" on="1"/>
        <pt x="75" y="531" on="1"/>
        <pt x="75" y="620" on="1"/>
        <pt x="476" y="620" on="1"/>
        <pt x="476" y="531" on="1"/>
      </contour>
    </TTGlyph>
    <TTGlyph name="Iogonek" xMin="75" yMin="-221" xMax="481" yMax="620">
      <contour>
        <pt x="368" y="-133" on="1"/>
        <pt x="358" y="-221" on="1"/>
        <pt x="248" y="-216" on="0"/>
        <pt x="154" y="-158" on="0"/>
        <pt x="154" y="-115" on="1"/>
        <pt x="154" y="-89" on="0"/>
        <pt x="191" y="-31" on="0"/>
        <pt x="231" y="0" on="1"/>
        <pt x="75" y="0" on="1"/>
        <pt x="75" y="89" on="1"/>
        <pt x="218" y="89" on="1"/>
        <pt x="218" y="531" on="1"/>
        <pt x="75" y="531" on="1"/>
        <pt x="75" y="620" on="1"/>
        <pt x="476" y="620" on="1"/>
        <pt x="476" y="531" on="1"/>
        <pt x="333" y="531" on="1"/>
        <pt x="333" y="89" on="1"/>
        <pt x="481" y="89" on="1"/>
        <pt x="473" y="0" on="1"/>
        <pt x="325" y="0" on="1"/>
        <pt x="288" y="-28" on="0"/>
        <pt x="259" y="-71" on="0"/>
        <pt x="259" y="-87" on="1"/>
        <pt x="259" y="-105" on="0"/>
        <pt x="308" y="-129" on="0"/>
      </contour>
    </TTGlyph>
    <TTGlyph name="J" xMin="79" yMin="-10" xMax="436" yMax="620">
      <contour>
        <pt x="116" y="620" on="1"/>
        <pt x="436" y="620" on="1"/>
        <pt x="436" y="211" on="1"/>
        <pt x="436" y="154" on="0"/>
        <pt x="403" y="70" on="0"/>
        <pt x="327" y="16" on="0"/>
        <pt x="202" y="-10" on="0"/>
        <pt x="111" y="-10" on="1"/>
        <pt x="79" y="-10" on="1"/>
        <pt x="79" y="90" on="1"/>
        <pt x="102" y="89" on="0"/>
        <pt x="143" y="88" on="0"/>
        <pt x="160" y="88" on="1"/>
        <pt x="214" y="88" on="0"/>
        <pt x="278" y="100" on="0"/>
        <pt x="311" y="128" on="0"/>
        <pt x="320" y="175" on="0"/>
        <pt x="320" y="210" on="1"/>
        <pt x="320" y="529" on="1"/>
        <pt x="116" y="529" on="1"/>
      </contour>
    </TTGlyph>
    <TTGlyph name="K" xMin="78" yMin="-7" xMax="528" yMax="620">
      <contour>
        <pt x="404" y="-7" on="1"/>
        <pt x="243" y="266" on="1"/>
        <pt x="192" y="266" on="1"/>
        <pt x="192" y="0" on="1"/>
        <pt x="78" y="0" on="1"/>
        <pt x="78" y="620" on="1"/>
        <pt x="192" y="620" on="1"/>
        <pt x="192" y="361" on="1"/>
        <pt x="248" y="361" on="1"/>
        <pt x="392" y="620" on="1"/>
        <pt x="514" y="620" on="1"/>
        <pt x="338" y="319" on="1"/>
        <pt x="528" y="7" on="1"/>
      </contour>
    </TTGlyph>
    <TTGlyph name="Kcommaaccent" xMin="78" yMin="-291" xMax="528" yMax="620">
      <contour>
        <pt x="404" y="-7" on="1"/>
        <pt x="243" y="266" on="1"/>
        <pt x="192" y="266" on="1"/>
        <pt x="192" y="0" on="1"/>
        <pt x="78" y="0" on="1"/>
        <pt x="78" y="620" on="1"/>
        <pt x="192" y="620" on="1"/>
        <pt x="192" y="361" on="1"/>
        <pt x="248" y="361" on="1"/>
        <pt x="392" y="620" on="1"/>
        <pt x="514" y="620" on="1"/>
        <pt x="338" y="319" on="1"/>
        <pt x="528" y="7" on="1"/>
      </contour>
      <contour>
        <pt x="205" y="-273" on="1"/>
        <pt x="215" y="-248" on="0"/>
        <pt x="224" y="-198" on="0"/>
        <pt x="224" y="-173" on="1"/>
        <pt x="224" y="-148" on="0"/>
        <pt x="216" y="-100" on="0"/>
        <pt x="209" y="-78" on="1"/>
        <pt x="210" y="-78" on="0"/>
        <pt x="251" y="-76" on="0"/>
        <pt x="299" y="-74" on="0"/>
        <pt x="341" y="-72" on="0"/>
        <pt x="342" y="-72" on="1"/>
        <pt x="342" y="-87" on="1"/>
        <pt x="342" y="-140" on="0"/>
        <pt x="302" y="-251" on="0"/>
        <pt x="262" y="-291" on="1"/>
      </contour>
    </TTGlyph>
    <TTGlyph name="L" xMin="104" yMin="0" xMax="499" yMax="620">
      <contour>
        <pt x="489" y="0" on="1"/>
        <pt x="104" y="0" on="1"/>
        <pt x="104" y="620" on="1"/>
        <pt x="219" y="620" on="1"/>
        <pt x="219" y="96" on="1"/>
        <pt x="499" y="96" on="1"/>
      </contour>
    </TTGlyph>
    <TTGlyph name="Lacute" xMin="104" yMin="0" xMax="499" yMax="907">
      <contour>
        <pt x="178" y="730" on="1"/>
        <pt x="200" y="744" on="0"/>
        <pt x="254" y="787" on="0"/>
        <pt x="310" y="835" on="0"/>
        <pt x="363" y="885" on="0"/>
        <pt x="383" y="907" on="1"/>
        <pt x="465" y="823" on="1"/>
        <pt x="440" y="803" on="0"/>
        <pt x="373" y="761" on="0"/>
        <pt x="303" y="723" on="0"/>
        <pt x="233" y="691" on="0"/>
        <pt x="206" y="681" on="1"/>
      </contour>
      <contour>
        <pt x="489" y="0" on="1"/>
        <pt x="104" y="0" on="1"/>
        <pt x="104" y="620" on="1"/>
        <pt x="219" y="620" on="1"/>
        <pt x="219" y="96" on="1"/>
        <pt x="499" y="96" on="1"/>
      </contour>
    </TTGlyph>
    <TTGlyph name="Lcaron" xMin="104" yMin="0" xMax="499" yMax="705">
      <contour>
        <pt x="353" y="465" on="1"/>
        <pt x="362" y="498" on="0"/>
        <pt x="371" y="561" on="0"/>
        <pt x="371" y="592" on="1"/>
        <pt x="371" y="620" on="0"/>
        <pt x="364" y="676" on="0"/>
        <pt x="359" y="704" on="1"/>
        <pt x="478" y="705" on="1"/>
        <pt x="478" y="699" on="0"/>
        <pt x="479" y="687" on="0"/>
        <pt x="479" y="682" on="1"/>
        <pt x="479" y="620" on="0"/>
        <pt x="441" y="507" on="0"/>
        <pt x="402" y="450" on="1"/>
      </contour>
      <contour>
        <pt x="489" y="0" on="1"/>
        <pt x="104" y="0" on="1"/>
        <pt x="104" y="620" on="1"/>
        <pt x="219" y="620" on="1"/>
        <pt x="219" y="96" on="1"/>
        <pt x="499" y="96" on="1"/>
      </contour>
    </TTGlyph>
    <TTGlyph name="Lcommaaccent" xMin="104" yMin="-284" xMax="499" yMax="620">
      <contour>
        <pt x="489" y="0" on="1"/>
        <pt x="104" y="0" on="1"/>
        <pt x="104" y="620" on="1"/>
        <pt x="219" y="620" on="1"/>
        <pt x="219" y="96" on="1"/>
        <pt x="499" y="96" on="1"/>
      </contour>
      <contour>
        <pt x="225" y="-266" on="1"/>
        <pt x="235" y="-241" on="0"/>
        <pt x="244" y="-191" on="0"/>
        <pt x="244" y="-166" on="1"/>
        <pt x="244" y="-141" on="0"/>
        <pt x="236" y="-93" on="0"/>
        <pt x="229" y="-71" on="1"/>
        <pt x="230" y="-71" on="0"/>
        <pt x="271" y="-69" on="0"/>
        <pt x="319" y="-67" on="0"/>
        <pt x="361" y="-65" on="0"/>
        <pt x="362" y="-65" on="1"/>
        <pt x="362" y="-80" on="1"/>
        <pt x="362" y="-133" on="0"/>
        <pt x="322" y="-244" on="0"/>
        <pt x="282" y="-284" on="1"/>
      </contour>
    </TTGlyph>
    <TTGlyph name="Ldot" xMin="104" yMin="0" xMax="499" yMax="620">
      <contour>
        <pt x="489" y="0" on="1"/>
        <pt x="104" y="0" on="1"/>
        <pt x="104" y="620" on="1"/>
        <pt x="219" y="620" on="1"/>
        <pt x="219" y="96" on="1"/>
        <pt x="499" y="96" on="1"/>
      </contour>
      <contour>
        <pt x="489" y="260" on="1"/>
        <pt x="376" y="260" on="1"/>
        <pt x="384" y="389" on="1"/>
        <pt x="495" y="389" on="1"/>
      </contour>
    </TTGlyph>
    <TTGlyph name="Lslash" xMin="27" yMin="0" xMax="499" yMax="620">
      <contour>
        <pt x="489" y="0" on="1"/>
        <pt x="104" y="0" on="1"/>
        <pt x="104" y="278" on="1"/>
        <pt x="44" y="248" on="1"/>
        <pt x="27" y="323" on="1"/>
        <pt x="104" y="362" on="1"/>
        <pt x="104" y="620" on="1"/>
        <pt x="219" y="620" on="1"/>
        <pt x="219" y="420" on="1"/>
        <pt x="334" y="478" on="1"/>
        <pt x="351" y="403" on="1"/>
        <pt x="219" y="336" on="1"/>
        <pt x="219" y="96" on="1"/>
        <pt x="499" y="96" on="1"/>
      </contour>
    </TTGlyph>
    <TTGlyph name="M" xMin="59" yMin="0" xMax="490" yMax="620">
      <contour>
        <pt x="380" y="620" on="1"/>
        <pt x="490" y="620" on="1"/>
        <pt x="490" y="0" on="1"/>
        <pt x="384" y="0" on="1"/>
        <pt x="390" y="414" on="1"/>
        <pt x="386" y="414" on="1"/>
        <pt x="305" y="123" on="1"/>
        <pt x="242" y="123" on="1"/>
        <pt x="160" y="414" on="1"/>
        <pt x="156" y="414" on="1"/>
        <pt x="162" y="0" on="1"/>
        <pt x="59" y="0" on="1"/>
        <pt x="59" y="620" on="1"/>
        <pt x="171" y="620" on="1"/>
        <pt x="171" y="620" on="0"/>
        <pt x="201" y="512" on="0"/>
        <pt x="238" y="379" on="0"/>
        <pt x="271" y="261" on="0"/>
        <pt x="274" y="251" on="1"/>
        <pt x="278" y="251" on="1"/>
        <pt x="281" y="261" on="0"/>
        <pt x="313" y="379" on="0"/>
        <pt x="350" y="512" on="0"/>
        <pt x="380" y="620" on="0"/>
      </contour>
    </TTGlyph>
    <TTGlyph name="N" xMin="69" yMin="0" xMax="481" yMax="620">
      <contour>
        <pt x="383" y="0" on="1"/>
        <pt x="176" y="414" on="1"/>
        <pt x="171" y="414" on="1"/>
        <pt x="175" y="0" on="1"/>
        <pt x="69" y="0" on="1"/>
        <pt x="69" y="620" on="1"/>
        <pt x="177" y="620" on="1"/>
        <pt x="376" y="211" on="1"/>
        <pt x="380" y="211" on="1"/>
        <pt x="375" y="620" on="1"/>
        <pt x="481" y="620" on="1"/>
        <pt x="481" y="0" on="1"/>
      </contour>
    </TTGlyph>
    <TTGlyph name="Nacute" xMin="69" yMin="0" xMax="481" yMax="907">
      <contour>
        <pt x="158" y="730" on="1"/>
        <pt x="180" y="744" on="0"/>
        <pt x="234" y="787" on="0"/>
        <pt x="290" y="835" on="0"/>
        <pt x="343" y="885" on="0"/>
        <pt x="363" y="907" on="1"/>
        <pt x="445" y="823" on="1"/>
        <pt x="420" y="803" on="0"/>
        <pt x="353" y="761" on="0"/>
        <pt x="283" y="723" on="0"/>
        <pt x="213" y="691" on="0"/>
        <pt x="186" y="681" on="1"/>
      </contour>
      <contour>
        <pt x="383" y="0" on="1"/>
        <pt x="176" y="414" on="1"/>
        <pt x="171" y="414" on="1"/>
        <pt x="175" y="0" on="1"/>
        <pt x="69" y="0" on="1"/>
        <pt x="69" y="620" on="1"/>
        <pt x="177" y="620" on="1"/>
        <pt x="376" y="211" on="1"/>
        <pt x="380" y="211" on="1"/>
        <pt x="375" y="620" on="1"/>
        <pt x="481" y="620" on="1"/>
        <pt x="481" y="0" on="1"/>
      </contour>
    </TTGlyph>
    <TTGlyph name="Ncaron" xMin="69" yMin="0" xMax="481" yMax="882">
      <contour>
        <pt x="286" y="676" on="1"/>
        <pt x="279" y="676" on="1"/>
        <pt x="95" y="816" on="1"/>
        <pt x="164" y="882" on="1"/>
        <pt x="291" y="780" on="1"/>
        <pt x="415" y="881" on="1"/>
        <pt x="468" y="829" on="1"/>
      </contour>
      <contour>
        <pt x="383" y="0" on="1"/>
        <pt x="176" y="414" on="1"/>
        <pt x="171" y="414" on="1"/>
        <pt x="175" y="0" on="1"/>
        <pt x="69" y="0" on="1"/>
        <pt x="69" y="620" on="1"/>
        <pt x="177" y="620" on="1"/>
        <pt x="376" y="211" on="1"/>
        <pt x="380" y="211" on="1"/>
        <pt x="375" y="620" on="1"/>
        <pt x="481" y="620" on="1"/>
        <pt x="481" y="0" on="1"/>
      </contour>
    </TTGlyph>
    <TTGlyph name="Ncommaaccent" xMin="69" yMin="-284" xMax="481" yMax="620">
      <contour>
        <pt x="383" y="0" on="1"/>
        <pt x="176" y="414" on="1"/>
        <pt x="171" y="414" on="1"/>
        <pt x="175" y="0" on="1"/>
        <pt x="69" y="0" on="1"/>
        <pt x="69" y="620" on="1"/>
        <pt x="177" y="620" on="1"/>
        <pt x="376" y="211" on="1"/>
        <pt x="380" y="211" on="1"/>
        <pt x="375" y="620" on="1"/>
        <pt x="481" y="620" on="1"/>
        <pt x="481" y="0" on="1"/>
      </contour>
      <contour>
        <pt x="205" y="-266" on="1"/>
        <pt x="215" y="-241" on="0"/>
        <pt x="224" y="-191" on="0"/>
        <pt x="224" y="-166" on="1"/>
        <pt x="224" y="-141" on="0"/>
        <pt x="216" y="-93" on="0"/>
        <pt x="209" y="-71" on="1"/>
        <pt x="210" y="-71" on="0"/>
        <pt x="251" y="-69" on="0"/>
        <pt x="299" y="-67" on="0"/>
        <pt x="341" y="-65" on="0"/>
        <pt x="342" y="-65" on="1"/>
        <pt x="342" y="-80" on="1"/>
        <pt x="342" y="-133" on="0"/>
        <pt x="302" y="-244" on="0"/>
        <pt x="262" y="-284" on="1"/>
      </contour>
    </TTGlyph>
    <TTGlyph name="Ntilde" xMin="69" yMin="0" xMax="492" yMax="866">
      <contour>
        <pt x="353" y="690" on="1"/>
        <pt x="329" y="690" on="0"/>
        <pt x="287" y="717" on="0"/>
        <pt x="250" y="749" on="0"/>
        <pt x="217" y="776" on="0"/>
        <pt x="203" y="776" on="1"/>
        <pt x="189" y="776" on="0"/>
        <pt x="154" y="738" on="0"/>
        <pt x="134" y="698" on="1"/>
        <pt x="77" y="725" on="1"/>
        <pt x="103" y="786" on="0"/>
        <pt x="176" y="866" on="0"/>
        <pt x="216" y="866" on="1"/>
        <pt x="240" y="866" on="0"/>
        <pt x="282" y="839" on="0"/>
        <pt x="319" y="806" on="0"/>
        <pt x="351" y="779" on="0"/>
        <pt x="365" y="779" on="1"/>
        <pt x="379" y="779" on="0"/>
        <pt x="414" y="818" on="0"/>
        <pt x="434" y="858" on="1"/>
        <pt x="492" y="831" on="1"/>
        <pt x="465" y="769" on="0"/>
        <pt x="393" y="690" on="0"/>
      </contour>
      <contour>
        <pt x="383" y="0" on="1"/>
        <pt x="176" y="414" on="1"/>
        <pt x="171" y="414" on="1"/>
        <pt x="175" y="0" on="1"/>
        <pt x="69" y="0" on="1"/>
        <pt x="69" y="620" on="1"/>
        <pt x="177" y="620" on="1"/>
        <pt x="376" y="211" on="1"/>
        <pt x="380" y="211" on="1"/>
        <pt x="375" y="620" on="1"/>
        <pt x="481" y="620" on="1"/>
        <pt x="481" y="0" on="1"/>
      </contour>
    </TTGlyph>
    <TTGlyph name="O" xMin="40" yMin="-16" xMax="510" yMax="636">
      <contour>
        <pt x="261" y="-16" on="1"/>
        <pt x="156" y="-16" on="0"/>
        <pt x="40" y="144" on="0"/>
        <pt x="40" y="292" on="1"/>
        <pt x="40" y="458" on="0"/>
        <pt x="176" y="636" on="0"/>
        <pt x="289" y="636" on="1"/>
        <pt x="394" y="636" on="0"/>
        <pt x="509" y="476" on="0"/>
        <pt x="510" y="328" on="1"/>
        <pt x="510" y="162" on="0"/>
        <pt x="374" y="-16" on="0"/>
      </contour>
      <contour>
        <pt x="271" y="541" on="1"/>
        <pt x="214" y="541" on="0"/>
        <pt x="159" y="430" on="0"/>
        <pt x="159" y="318" on="1"/>
        <pt x="159" y="199" on="0"/>
        <pt x="221" y="79" on="0"/>
        <pt x="279" y="79" on="1"/>
        <pt x="336" y="79" on="0"/>
        <pt x="391" y="190" on="0"/>
        <pt x="391" y="302" on="1"/>
        <pt x="391" y="421" on="0"/>
        <pt x="329" y="541" on="0"/>
      </contour>
    </TTGlyph>
    <TTGlyph name="OE" xMin="31" yMin="0" xMax="516" yMax="620">
      <contour>
        <pt x="144" y="315" on="1"/>
        <pt x="144" y="199" on="0"/>
        <pt x="199" y="96" on="0"/>
        <pt x="262" y="96" on="1"/>
        <pt x="262" y="523" on="1"/>
        <pt x="201" y="523" on="0"/>
        <pt x="144" y="429" on="0"/>
      </contour>
      <contour>
        <pt x="516" y="96" on="1"/>
        <pt x="510" y="0" on="1"/>
        <pt x="287" y="0" on="1"/>
        <pt x="157" y="0" on="0"/>
        <pt x="31" y="140" on="0"/>
        <pt x="31" y="299" on="1"/>
        <pt x="31" y="453" on="0"/>
        <pt x="161" y="620" on="0"/>
        <pt x="288" y="620" on="1"/>
        <pt x="511" y="620" on="1"/>
        <pt x="511" y="524" on="1"/>
        <pt x="358" y="524" on="1"/>
        <pt x="358" y="354" on="1"/>
        <pt x="482" y="354" on="1"/>
        <pt x="482" y="270" on="1"/>
        <pt x="358" y="270" on="1"/>
        <pt x="358" y="96" on="1"/>
      </contour>
    </TTGlyph>
    <TTGlyph name="Oacute" xMin="40" yMin="-16" xMax="510" yMax="914">
      <contour>
        <pt x="161" y="737" on="1"/>
        <pt x="183" y="751" on="0"/>
        <pt x="237" y="794" on="0"/>
        <pt x="293" y="842" on="0"/>
        <pt x="346" y="892" on="0"/>
        <pt x="366" y="914" on="1"/>
        <pt x="448" y="830" on="1"/>
        <pt x="423" y="810" on="0"/>
        <pt x="356" y="768" on="0"/>
        <pt x="286" y="730" on="0"/>
        <pt x="216" y="698" on="0"/>
        <pt x="189" y="688" on="1"/>
      </contour>
      <contour>
        <pt x="261" y="-16" on="1"/>
        <pt x="156" y="-16" on="0"/>
        <pt x="40" y="144" on="0"/>
        <pt x="40" y="292" on="1"/>
        <pt x="40" y="458" on="0"/>
        <pt x="176" y="636" on="0"/>
        <pt x="289" y="636" on="1"/>
        <pt x="394" y="636" on="0"/>
        <pt x="509" y="476" on="0"/>
        <pt x="510" y="328" on="1"/>
        <pt x="510" y="162" on="0"/>
        <pt x="374" y="-16" on="0"/>
      </contour>
      <contour>
        <pt x="271" y="541" on="1"/>
        <pt x="214" y="541" on="0"/>
        <pt x="159" y="430" on="0"/>
        <pt x="159" y="318" on="1"/>
        <pt x="159" y="199" on="0"/>
        <pt x="221" y="79" on="0"/>
        <pt x="279" y="79" on="1"/>
        <pt x="336" y="79" on="0"/>
        <pt x="391" y="190" on="0"/>
        <pt x="391" y="302" on="1"/>
        <pt x="391" y="421" on="0"/>
        <pt x="329" y="541" on="0"/>
      </contour>
    </TTGlyph>
    <TTGlyph name="Obreve" xMin="40" yMin="-16" xMax="510" yMax="884">
      <contour>
        <pt x="280" y="693" on="1"/>
        <pt x="226" y="693" on="0"/>
        <pt x="126" y="767" on="0"/>
        <pt x="86" y="839" on="1"/>
        <pt x="163" y="884" on="1"/>
        <pt x="197" y="830" on="0"/>
        <pt x="256" y="782" on="0"/>
        <pt x="290" y="782" on="1"/>
        <pt x="326" y="782" on="0"/>
        <pt x="386" y="833" on="0"/>
        <pt x="418" y="879" on="1"/>
        <pt x="481" y="847" on="1"/>
        <pt x="439" y="776" on="0"/>
        <pt x="336" y="693" on="0"/>
      </contour>
      <contour>
        <pt x="261" y="-16" on="1"/>
        <pt x="156" y="-16" on="0"/>
        <pt x="40" y="144" on="0"/>
        <pt x="40" y="292" on="1"/>
        <pt x="40" y="458" on="0"/>
        <pt x="176" y="636" on="0"/>
        <pt x="289" y="636" on="1"/>
        <pt x="394" y="636" on="0"/>
        <pt x="509" y="476" on="0"/>
        <pt x="510" y="328" on="1"/>
        <pt x="510" y="162" on="0"/>
        <pt x="374" y="-16" on="0"/>
      </contour>
      <contour>
        <pt x="271" y="541" on="1"/>
        <pt x="214" y="541" on="0"/>
        <pt x="159" y="430" on="0"/>
        <pt x="159" y="318" on="1"/>
        <pt x="159" y="199" on="0"/>
        <pt x="221" y="79" on="0"/>
        <pt x="279" y="79" on="1"/>
        <pt x="336" y="79" on="0"/>
        <pt x="391" y="190" on="0"/>
        <pt x="391" y="302" on="1"/>
        <pt x="391" y="421" on="0"/>
        <pt x="329" y="541" on="0"/>
      </contour>
    </TTGlyph>
    <TTGlyph name="Ocircumflex" xMin="40" yMin="-16" xMax="510" yMax="895">
      <contour>
        <pt x="397" y="690" on="1"/>
        <pt x="270" y="792" on="1"/>
        <pt x="146" y="691" on="1"/>
        <pt x="92" y="742" on="1"/>
        <pt x="274" y="895" on="1"/>
        <pt x="281" y="895" on="1"/>
        <pt x="465" y="755" on="1"/>
      </contour>
      <contour>
        <pt x="261" y="-16" on="1"/>
        <pt x="156" y="-16" on="0"/>
        <pt x="40" y="144" on="0"/>
        <pt x="40" y="292" on="1"/>
        <pt x="40" y="458" on="0"/>
        <pt x="176" y="636" on="0"/>
        <pt x="289" y="636" on="1"/>
        <pt x="394" y="636" on="0"/>
        <pt x="509" y="476" on="0"/>
        <pt x="510" y="328" on="1"/>
        <pt x="510" y="162" on="0"/>
        <pt x="374" y="-16" on="0"/>
      </contour>
      <contour>
        <pt x="271" y="541" on="1"/>
        <pt x="214" y="541" on="0"/>
        <pt x="159" y="430" on="0"/>
        <pt x="159" y="318" on="1"/>
        <pt x="159" y="199" on="0"/>
        <pt x="221" y="79" on="0"/>
        <pt x="279" y="79" on="1"/>
        <pt x="336" y="79" on="0"/>
        <pt x="391" y="190" on="0"/>
        <pt x="391" y="302" on="1"/>
        <pt x="391" y="421" on="0"/>
        <pt x="329" y="541" on="0"/>
      </contour>
    </TTGlyph>
    <TTGlyph name="Odieresis" xMin="40" yMin="-16" xMax="510" yMax="842">
      <contour>
        <pt x="447" y="702" on="1"/>
        <pt x="335" y="702" on="1"/>
        <pt x="337" y="842" on="1"/>
        <pt x="450" y="842" on="1"/>
      </contour>
      <contour>
        <pt x="225" y="702" on="1"/>
        <pt x="112" y="702" on="1"/>
        <pt x="114" y="842" on="1"/>
        <pt x="228" y="842" on="1"/>
      </contour>
      <contour>
        <pt x="261" y="-16" on="1"/>
        <pt x="156" y="-16" on="0"/>
        <pt x="40" y="144" on="0"/>
        <pt x="40" y="292" on="1"/>
        <pt x="40" y="458" on="0"/>
        <pt x="176" y="636" on="0"/>
        <pt x="289" y="636" on="1"/>
        <pt x="394" y="636" on="0"/>
        <pt x="509" y="476" on="0"/>
        <pt x="510" y="328" on="1"/>
        <pt x="510" y="162" on="0"/>
        <pt x="374" y="-16" on="0"/>
      </contour>
      <contour>
        <pt x="271" y="541" on="1"/>
        <pt x="214" y="541" on="0"/>
        <pt x="159" y="430" on="0"/>
        <pt x="159" y="318" on="1"/>
        <pt x="159" y="199" on="0"/>
        <pt x="221" y="79" on="0"/>
        <pt x="279" y="79" on="1"/>
        <pt x="336" y="79" on="0"/>
        <pt x="391" y="190" on="0"/>
        <pt x="391" y="302" on="1"/>
        <pt x="391" y="421" on="0"/>
        <pt x="329" y="541" on="0"/>
      </contour>
    </TTGlyph>
    <TTGlyph name="Ograve" xMin="40" yMin="-16" xMax="510" yMax="913">
      <contour>
        <pt x="391" y="733" on="1"/>
        <pt x="360" y="685" on="1"/>
        <pt x="334" y="696" on="0"/>
        <pt x="266" y="729" on="0"/>
        <pt x="197" y="766" on="0"/>
        <pt x="131" y="805" on="0"/>
        <pt x="105" y="823" on="1"/>
        <pt x="180" y="913" on="1"/>
        <pt x="201" y="892" on="0"/>
        <pt x="257" y="842" on="0"/>
        <pt x="315" y="793" on="0"/>
        <pt x="371" y="748" on="0"/>
      </contour>
      <contour>
        <pt x="261" y="-16" on="1"/>
        <pt x="156" y="-16" on="0"/>
        <pt x="40" y="144" on="0"/>
        <pt x="40" y="292" on="1"/>
        <pt x="40" y="458" on="0"/>
        <pt x="176" y="636" on="0"/>
        <pt x="289" y="636" on="1"/>
        <pt x="394" y="636" on="0"/>
        <pt x="509" y="476" on="0"/>
        <pt x="510" y="328" on="1"/>
        <pt x="510" y="162" on="0"/>
        <pt x="374" y="-16" on="0"/>
      </contour>
      <contour>
        <pt x="271" y="541" on="1"/>
        <pt x="214" y="541" on="0"/>
        <pt x="159" y="430" on="0"/>
        <pt x="159" y="318" on="1"/>
        <pt x="159" y="199" on="0"/>
        <pt x="221" y="79" on="0"/>
        <pt x="279" y="79" on="1"/>
        <pt x="336" y="79" on="0"/>
        <pt x="391" y="190" on="0"/>
        <pt x="391" y="302" on="1"/>
        <pt x="391" y="421" on="0"/>
        <pt x="329" y="541" on="0"/>
      </contour>
    </TTGlyph>
    <TTGlyph name="Ohungarumlaut" xMin="40" yMin="-16" xMax="540" yMax="927">
      <contour>
        <pt x="118" y="726" on="1"/>
        <pt x="132" y="747" on="0"/>
        <pt x="161" y="799" on="0"/>
        <pt x="189" y="853" on="0"/>
        <pt x="213" y="905" on="0"/>
        <pt x="222" y="927" on="1"/>
        <pt x="328" y="877" on="1"/>
        <pt x="300" y="834" on="0"/>
        <pt x="212" y="731" on="0"/>
        <pt x="170" y="693" on="1"/>
      </contour>
      <contour>
        <pt x="328" y="724" on="1"/>
        <pt x="356" y="767" on="0"/>
        <pt x="412" y="874" on="0"/>
        <pt x="429" y="920" on="1"/>
        <pt x="540" y="876" on="1"/>
        <pt x="511" y="833" on="0"/>
        <pt x="424" y="730" on="0"/>
        <pt x="381" y="692" on="1"/>
      </contour>
      <contour>
        <pt x="261" y="-16" on="1"/>
        <pt x="156" y="-16" on="0"/>
        <pt x="40" y="144" on="0"/>
        <pt x="40" y="292" on="1"/>
        <pt x="40" y="458" on="0"/>
        <pt x="176" y="636" on="0"/>
        <pt x="289" y="636" on="1"/>
        <pt x="394" y="636" on="0"/>
        <pt x="509" y="476" on="0"/>
        <pt x="510" y="328" on="1"/>
        <pt x="510" y="162" on="0"/>
        <pt x="374" y="-16" on="0"/>
      </contour>
      <contour>
        <pt x="271" y="541" on="1"/>
        <pt x="214" y="541" on="0"/>
        <pt x="159" y="430" on="0"/>
        <pt x="159" y="318" on="1"/>
        <pt x="159" y="199" on="0"/>
        <pt x="221" y="79" on="0"/>
        <pt x="279" y="79" on="1"/>
        <pt x="336" y="79" on="0"/>
        <pt x="391" y="190" on="0"/>
        <pt x="391" y="302" on="1"/>
        <pt x="391" y="421" on="0"/>
        <pt x="329" y="541" on="0"/>
      </contour>
    </TTGlyph>
    <TTGlyph name="Omacron" xMin="40" yMin="-16" xMax="510" yMax="820">
      <contour>
        <pt x="452" y="820" on="1"/>
        <pt x="452" y="725" on="1"/>
        <pt x="106" y="725" on="1"/>
        <pt x="106" y="820" on="1"/>
      </contour>
      <contour>
        <pt x="261" y="-16" on="1"/>
        <pt x="156" y="-16" on="0"/>
        <pt x="40" y="144" on="0"/>
        <pt x="40" y="292" on="1"/>
        <pt x="40" y="458" on="0"/>
        <pt x="176" y="636" on="0"/>
        <pt x="289" y="636" on="1"/>
        <pt x="394" y="636" on="0"/>
        <pt x="509" y="476" on="0"/>
        <pt x="510" y="328" on="1"/>
        <pt x="510" y="162" on="0"/>
        <pt x="374" y="-16" on="0"/>
      </contour>
      <contour>
        <pt x="271" y="541" on="1"/>
        <pt x="214" y="541" on="0"/>
        <pt x="159" y="430" on="0"/>
        <pt x="159" y="318" on="1"/>
        <pt x="159" y="199" on="0"/>
        <pt x="221" y="79" on="0"/>
        <pt x="279" y="79" on="1"/>
        <pt x="336" y="79" on="0"/>
        <pt x="391" y="190" on="0"/>
        <pt x="391" y="302" on="1"/>
        <pt x="391" y="421" on="0"/>
        <pt x="329" y="541" on="0"/>
      </contour>
    </TTGlyph>
    <TTGlyph name="Omega" xMin="45" yMin="0" xMax="506" yMax="634">
      <contour>
        <pt x="238" y="6" on="1"/>
        <pt x="235" y="0" on="1"/>
        <pt x="45" y="0" on="1"/>
        <pt x="45" y="89" on="1"/>
        <pt x="128" y="89" on="1"/>
        <pt x="97" y="167" on="0"/>
        <pt x="65" y="311" on="0"/>
        <pt x="65" y="373" on="1"/>
        <pt x="65" y="431" on="0"/>
        <pt x="94" y="527" on="0"/>
        <pt x="148" y="596" on="0"/>
        <pt x="229" y="634" on="0"/>
        <pt x="280" y="634" on="1"/>
        <pt x="330" y="634" on="0"/>
        <pt x="408" y="596" on="0"/>
        <pt x="460" y="529" on="0"/>
        <pt x="487" y="433" on="0"/>
        <pt x="487" y="376" on="1"/>
        <pt x="487" y="313" on="0"/>
        <pt x="455" y="168" on="0"/>
        <pt x="423" y="89" on="1"/>
        <pt x="506" y="89" on="1"/>
        <pt x="506" y="0" on="1"/>
        <pt x="315" y="0" on="1"/>
        <pt x="314" y="6" on="1"/>
        <pt x="347" y="111" on="0"/>
        <pt x="378" y="286" on="0"/>
        <pt x="378" y="351" on="1"/>
        <pt x="378" y="438" on="0"/>
        <pt x="325" y="533" on="0"/>
        <pt x="276" y="533" on="1"/>
        <pt x="225" y="533" on="0"/>
        <pt x="171" y="440" on="0"/>
        <pt x="171" y="354" on="1"/>
        <pt x="171" y="289" on="0"/>
        <pt x="204" y="113" on="0"/>
      </contour>
    </TTGlyph>
    <TTGlyph name="Oslash" xMin="40" yMin="-43" xMax="510" yMax="663">
      <contour>
        <pt x="157" y="318" on="1"/>
        <pt x="157" y="277" on="0"/>
        <pt x="165" y="208" on="0"/>
        <pt x="172" y="181" on="1"/>
        <pt x="345" y="507" on="1"/>
        <pt x="331" y="524" on="0"/>
        <pt x="293" y="542" on="0"/>
        <pt x="271" y="542" on="1"/>
        <pt x="214" y="542" on="0"/>
        <pt x="157" y="431" on="0"/>
      </contour>
      <contour>
        <pt x="279" y="78" on="1"/>
        <pt x="336" y="78" on="0"/>
        <pt x="393" y="189" on="0"/>
        <pt x="393" y="302" on="1"/>
        <pt x="393" y="344" on="0"/>
        <pt x="385" y="413" on="0"/>
        <pt x="378" y="440" on="1"/>
        <pt x="204" y="114" on="1"/>
        <pt x="218" y="96" on="0"/>
        <pt x="256" y="78" on="0"/>
      </contour>
      <contour>
        <pt x="261" y="-16" on="1"/>
        <pt x="232" y="-16" on="0"/>
        <pt x="181" y="-4" on="0"/>
        <pt x="159" y="8" on="1"/>
        <pt x="132" y="-43" on="1"/>
        <pt x="61" y="-7" on="1"/>
        <pt x="99" y="62" on="1"/>
        <pt x="70" y="101" on="0"/>
        <pt x="40" y="217" on="0"/>
        <pt x="40" y="292" on="1"/>
        <pt x="40" y="458" on="0"/>
        <pt x="176" y="636" on="0"/>
        <pt x="289" y="636" on="1"/>
        <pt x="318" y="636" on="0"/>
        <pt x="371" y="623" on="0"/>
        <pt x="393" y="611" on="1"/>
        <pt x="419" y="663" on="1"/>
        <pt x="490" y="627" on="1"/>
        <pt x="452" y="556" on="1"/>
        <pt x="480" y="516" on="0"/>
        <pt x="510" y="402" on="0"/>
        <pt x="510" y="328" on="1"/>
        <pt x="510" y="162" on="0"/>
        <pt x="374" y="-16" on="0"/>
      </contour>
    </TTGlyph>
    <TTGlyph name="Oslashacute" xMin="40" yMin="-43" xMax="510" yMax="915">
      <contour>
        <pt x="157" y="738" on="1"/>
        <pt x="179" y="752" on="0"/>
        <pt x="233" y="795" on="0"/>
        <pt x="289" y="843" on="0"/>
        <pt x="342" y="893" on="0"/>
        <pt x="362" y="915" on="1"/>
        <pt x="444" y="831" on="1"/>
        <pt x="419" y="811" on="0"/>
        <pt x="352" y="769" on="0"/>
        <pt x="282" y="731" on="0"/>
        <pt x="212" y="699" on="0"/>
        <pt x="185" y="689" on="1"/>
      </contour>
      <contour>
        <pt x="157" y="318" on="1"/>
        <pt x="157" y="277" on="0"/>
        <pt x="165" y="208" on="0"/>
        <pt x="172" y="181" on="1"/>
        <pt x="345" y="507" on="1"/>
        <pt x="331" y="524" on="0"/>
        <pt x="293" y="542" on="0"/>
        <pt x="271" y="542" on="1"/>
        <pt x="214" y="542" on="0"/>
        <pt x="157" y="431" on="0"/>
      </contour>
      <contour>
        <pt x="279" y="78" on="1"/>
        <pt x="336" y="78" on="0"/>
        <pt x="393" y="189" on="0"/>
        <pt x="393" y="302" on="1"/>
        <pt x="393" y="344" on="0"/>
        <pt x="385" y="413" on="0"/>
        <pt x="378" y="440" on="1"/>
        <pt x="204" y="114" on="1"/>
        <pt x="218" y="96" on="0"/>
        <pt x="256" y="78" on="0"/>
      </contour>
      <contour>
        <pt x="261" y="-16" on="1"/>
        <pt x="232" y="-16" on="0"/>
        <pt x="181" y="-4" on="0"/>
        <pt x="159" y="8" on="1"/>
        <pt x="132" y="-43" on="1"/>
        <pt x="61" y="-7" on="1"/>
        <pt x="99" y="62" on="1"/>
        <pt x="70" y="101" on="0"/>
        <pt x="40" y="217" on="0"/>
        <pt x="40" y="292" on="1"/>
        <pt x="40" y="458" on="0"/>
        <pt x="176" y="636" on="0"/>
        <pt x="289" y="636" on="1"/>
        <pt x="318" y="636" on="0"/>
        <pt x="371" y="623" on="0"/>
        <pt x="393" y="611" on="1"/>
        <pt x="419" y="663" on="1"/>
        <pt x="490" y="627" on="1"/>
        <pt x="452" y="556" on="1"/>
        <pt x="480" y="516" on="0"/>
        <pt x="510" y="402" on="0"/>
        <pt x="510" y="328" on="1"/>
        <pt x="510" y="162" on="0"/>
        <pt x="374" y="-16" on="0"/>
      </contour>
    </TTGlyph>
    <TTGlyph name="Otilde" xMin="40" yMin="-16" xMax="510" yMax="873">
      <contour>
        <pt x="356" y="697" on="1"/>
        <pt x="332" y="697" on="0"/>
        <pt x="290" y="724" on="0"/>
        <pt x="253" y="756" on="0"/>
        <pt x="220" y="783" on="0"/>
        <pt x="206" y="783" on="1"/>
        <pt x="192" y="783" on="0"/>
        <pt x="157" y="745" on="0"/>
        <pt x="137" y="705" on="1"/>
        <pt x="80" y="732" on="1"/>
        <pt x="106" y="793" on="0"/>
        <pt x="179" y="873" on="0"/>
        <pt x="219" y="873" on="1"/>
        <pt x="243" y="873" on="0"/>
        <pt x="285" y="846" on="0"/>
        <pt x="322" y="813" on="0"/>
        <pt x="354" y="786" on="0"/>
        <pt x="368" y="786" on="1"/>
        <pt x="382" y="786" on="0"/>
        <pt x="417" y="825" on="0"/>
        <pt x="437" y="865" on="1"/>
        <pt x="495" y="838" on="1"/>
        <pt x="468" y="776" on="0"/>
        <pt x="396" y="697" on="0"/>
      </contour>
      <contour>
        <pt x="261" y="-16" on="1"/>
        <pt x="156" y="-16" on="0"/>
        <pt x="40" y="144" on="0"/>
        <pt x="40" y="292" on="1"/>
        <pt x="40" y="458" on="0"/>
        <pt x="176" y="636" on="0"/>
        <pt x="289" y="636" on="1"/>
        <pt x="394" y="636" on="0"/>
        <pt x="509" y="476" on="0"/>
        <pt x="510" y="328" on="1"/>
        <pt x="510" y="162" on="0"/>
        <pt x="374" y="-16" on="0"/>
      </contour>
      <contour>
        <pt x="271" y="541" on="1"/>
        <pt x="214" y="541" on="0"/>
        <pt x="159" y="430" on="0"/>
        <pt x="159" y="318" on="1"/>
        <pt x="159" y="199" on="0"/>
        <pt x="221" y="79" on="0"/>
        <pt x="279" y="79" on="1"/>
        <pt x="336" y="79" on="0"/>
        <pt x="391" y="190" on="0"/>
        <pt x="391" y="302" on="1"/>
        <pt x="391" y="421" on="0"/>
        <pt x="329" y="541" on="0"/>
      </contour>
    </TTGlyph>
    <TTGlyph name="P" xMin="87" yMin="0" xMax="510" yMax="629">
      <contour>
        <pt x="201" y="0" on="1"/>
        <pt x="87" y="0" on="1"/>
        <pt x="87" y="619" on="1"/>
        <pt x="124" y="624" on="0"/>
        <pt x="193" y="629" on="0"/>
        <pt x="224" y="629" on="1"/>
        <pt x="367" y="629" on="0"/>
        <pt x="510" y="523" on="0"/>
        <pt x="510" y="426" on="1"/>
        <pt x="510" y="370" on="0"/>
        <pt x="464" y="286" on="0"/>
        <pt x="383" y="228" on="0"/>
        <pt x="269" y="193" on="0"/>
        <pt x="201" y="186" on="1"/>
      </contour>
      <contour>
        <pt x="251" y="279" on="1"/>
        <pt x="322" y="279" on="0"/>
        <pt x="397" y="338" on="0"/>
        <pt x="397" y="404" on="1"/>
        <pt x="397" y="467" on="0"/>
        <pt x="321" y="534" on="0"/>
        <pt x="246" y="534" on="1"/>
        <pt x="236" y="534" on="0"/>
        <pt x="213" y="532" on="0"/>
        <pt x="201" y="531" on="1"/>
        <pt x="201" y="282" on="1"/>
        <pt x="214" y="281" on="0"/>
        <pt x="239" y="279" on="0"/>
      </contour>
    </TTGlyph>
    <TTGlyph name="Q" xMin="40" yMin="-145" xMax="510" yMax="636">
      <contour>
        <pt x="443" y="-145" on="1"/>
        <pt x="208" y="-67" on="1"/>
        <pt x="226" y="-14" on="1"/>
        <pt x="137" y="-1" on="0"/>
        <pt x="40" y="157" on="0"/>
        <pt x="40" y="292" on="1"/>
        <pt x="40" y="458" on="0"/>
        <pt x="176" y="636" on="0"/>
        <pt x="289" y="636" on="1"/>
        <pt x="394" y="636" on="0"/>
        <pt x="509" y="476" on="0"/>
        <pt x="510" y="328" on="1"/>
        <pt x="510" y="194" on="0"/>
        <pt x="420" y="25" on="0"/>
        <pt x="342" y="-3" on="1"/>
        <pt x="342" y="-6" on="1"/>
        <pt x="476" y="-52" on="1"/>
      </contour>
      <contour>
        <pt x="271" y="541" on="1"/>
        <pt x="212" y="541" on="0"/>
        <pt x="159" y="430" on="0"/>
        <pt x="159" y="318" on="1"/>
        <pt x="159" y="199" on="0"/>
        <pt x="219" y="79" on="0"/>
        <pt x="279" y="79" on="1"/>
        <pt x="338" y="79" on="0"/>
        <pt x="391" y="190" on="0"/>
        <pt x="391" y="302" on="1"/>
        <pt x="391" y="421" on="0"/>
        <pt x="331" y="541" on="0"/>
      </contour>
    </TTGlyph>
    <TTGlyph name="R" xMin="81" yMin="-9" xMax="529" yMax="629">
      <contour>
        <pt x="406" y="-9" on="1"/>
        <pt x="292" y="216" on="1"/>
        <pt x="194" y="214" on="1"/>
        <pt x="194" y="0" on="1"/>
        <pt x="81" y="0" on="1"/>
        <pt x="81" y="619" on="1"/>
        <pt x="121" y="624" on="0"/>
        <pt x="191" y="629" on="0"/>
        <pt x="222" y="629" on="1"/>
        <pt x="368" y="629" on="0"/>
        <pt x="484" y="528" on="0"/>
        <pt x="484" y="448" on="1"/>
        <pt x="484" y="390" on="0"/>
        <pt x="426" y="305" on="0"/>
        <pt x="383" y="274" on="1"/>
        <pt x="529" y="6" on="1"/>
      </contour>
      <contour>
        <pt x="194" y="532" on="1"/>
        <pt x="194" y="294" on="1"/>
        <pt x="303" y="297" on="1"/>
        <pt x="334" y="318" on="0"/>
        <pt x="371" y="383" on="0"/>
        <pt x="371" y="423" on="1"/>
        <pt x="371" y="476" on="0"/>
        <pt x="307" y="535" on="0"/>
        <pt x="241" y="535" on="1"/>
        <pt x="230" y="535" on="0"/>
        <pt x="207" y="533" on="0"/>
      </contour>
    </TTGlyph>
    <TTGlyph name="R_p" xMin="27" yMin="-174" xMax="533" yMax="623">
      <contour>
        <pt x="193" y="-4" on="1"/>
        <pt x="143" y="228" on="1"/>
        <pt x="107" y="226" on="1"/>
        <pt x="113" y="0" on="1"/>
        <pt x="27" y="0" on="1"/>
        <pt x="27" y="618" on="1"/>
        <pt x="43" y="620" on="0"/>
        <pt x="75" y="623" on="0"/>
        <pt x="88" y="623" on="1"/>
        <pt x="186" y="623" on="0"/>
        <pt x="276" y="523" on="0"/>
        <pt x="276" y="445" on="1"/>
        <pt x="276" y="392" on="0"/>
        <pt x="241" y="302" on="0"/>
        <pt x="214" y="269" on="1"/>
        <pt x="276" y="3" on="1"/>
      </contour>
      <contour>
        <pt x="308" y="-174" on="1"/>
        <pt x="308" y="477" on="1"/>
        <pt x="365" y="478" on="1"/>
        <pt x="367" y="461" on="1"/>
        <pt x="386" y="471" on="0"/>
        <pt x="421" y="482" on="0"/>
        <pt x="436" y="482" on="1"/>
        <pt x="485" y="482" on="0"/>
        <pt x="533" y="368" on="0"/>
        <pt x="533" y="257" on="1"/>
        <pt x="533" y="120" on="0"/>
        <pt x="449" y="3" on="0"/>
        <pt x="393" y="3" on="1"/>
        <pt x="387" y="3" on="1"/>
        <pt x="387" y="-164" on="1"/>
      </contour>
    </TTGlyph>
    <TTGlyph name="Racute" xMin="81" yMin="-9" xMax="529" yMax="914">
      <contour>
        <pt x="143" y="737" on="1"/>
        <pt x="165" y="751" on="0"/>
        <pt x="219" y="794" on="0"/>
        <pt x="275" y="842" on="0"/>
        <pt x="328" y="892" on="0"/>
        <pt x="348" y="914" on="1"/>
        <pt x="430" y="830" on="1"/>
        <pt x="405" y="810" on="0"/>
        <pt x="338" y="768" on="0"/>
        <pt x="268" y="730" on="0"/>
        <pt x="198" y="698" on="0"/>
        <pt x="171" y="688" on="1"/>
      </contour>
      <contour>
        <pt x="406" y="-9" on="1"/>
        <pt x="292" y="216" on="1"/>
        <pt x="194" y="214" on="1"/>
        <pt x="194" y="0" on="1"/>
        <pt x="81" y="0" on="1"/>
        <pt x="81" y="619" on="1"/>
        <pt x="121" y="624" on="0"/>
        <pt x="191" y="629" on="0"/>
        <pt x="222" y="629" on="1"/>
        <pt x="368" y="629" on="0"/>
        <pt x="484" y="528" on="0"/>
        <pt x="484" y="448" on="1"/>
        <pt x="484" y="390" on="0"/>
        <pt x="426" y="305" on="0"/>
        <pt x="383" y="274" on="1"/>
        <pt x="529" y="6" on="1"/>
      </contour>
      <contour>
        <pt x="194" y="532" on="1"/>
        <pt x="194" y="294" on="1"/>
        <pt x="303" y="297" on="1"/>
        <pt x="334" y="318" on="0"/>
        <pt x="371" y="383" on="0"/>
        <pt x="371" y="423" on="1"/>
        <pt x="371" y="476" on="0"/>
        <pt x="307" y="535" on="0"/>
        <pt x="241" y="535" on="1"/>
        <pt x="230" y="535" on="0"/>
        <pt x="207" y="533" on="0"/>
      </contour>
    </TTGlyph>
    <TTGlyph name="Rcaron" xMin="80" yMin="-9" xMax="529" yMax="889">
      <contour>
        <pt x="271" y="683" on="1"/>
        <pt x="264" y="683" on="1"/>
        <pt x="80" y="823" on="1"/>
        <pt x="149" y="889" on="1"/>
        <pt x="276" y="787" on="1"/>
        <pt x="400" y="888" on="1"/>
        <pt x="453" y="836" on="1"/>
      </contour>
      <contour>
        <pt x="406" y="-9" on="1"/>
        <pt x="292" y="216" on="1"/>
        <pt x="194" y="214" on="1"/>
        <pt x="194" y="0" on="1"/>
        <pt x="81" y="0" on="1"/>
        <pt x="81" y="619" on="1"/>
        <pt x="121" y="624" on="0"/>
        <pt x="191" y="629" on="0"/>
        <pt x="222" y="629" on="1"/>
        <pt x="368" y="629" on="0"/>
        <pt x="484" y="528" on="0"/>
        <pt x="484" y="448" on="1"/>
        <pt x="484" y="390" on="0"/>
        <pt x="426" y="305" on="0"/>
        <pt x="383" y="274" on="1"/>
        <pt x="529" y="6" on="1"/>
      </contour>
      <contour>
        <pt x="194" y="532" on="1"/>
        <pt x="194" y="294" on="1"/>
        <pt x="303" y="297" on="1"/>
        <pt x="334" y="318" on="0"/>
        <pt x="371" y="383" on="0"/>
        <pt x="371" y="423" on="1"/>
        <pt x="371" y="476" on="0"/>
        <pt x="307" y="535" on="0"/>
        <pt x="241" y="535" on="1"/>
        <pt x="230" y="535" on="0"/>
        <pt x="207" y="533" on="0"/>
      </contour>
    </TTGlyph>
    <TTGlyph name="Rcommaaccent" xMin="81" yMin="-293" xMax="529" yMax="629">
      <contour>
        <pt x="406" y="-9" on="1"/>
        <pt x="292" y="216" on="1"/>
        <pt x="194" y="214" on="1"/>
        <pt x="194" y="0" on="1"/>
        <pt x="81" y="0" on="1"/>
        <pt x="81" y="619" on="1"/>
        <pt x="121" y="624" on="0"/>
        <pt x="191" y="629" on="0"/>
        <pt x="222" y="629" on="1"/>
        <pt x="368" y="629" on="0"/>
        <pt x="484" y="528" on="0"/>
        <pt x="484" y="448" on="1"/>
        <pt x="484" y="390" on="0"/>
        <pt x="426" y="305" on="0"/>
        <pt x="383" y="274" on="1"/>
        <pt x="529" y="6" on="1"/>
      </contour>
      <contour>
        <pt x="194" y="532" on="1"/>
        <pt x="194" y="294" on="1"/>
        <pt x="303" y="297" on="1"/>
        <pt x="334" y="318" on="0"/>
        <pt x="371" y="383" on="0"/>
        <pt x="371" y="423" on="1"/>
        <pt x="371" y="476" on="0"/>
        <pt x="307" y="535" on="0"/>
        <pt x="241" y="535" on="1"/>
        <pt x="230" y="535" on="0"/>
        <pt x="207" y="533" on="0"/>
      </contour>
      <contour>
        <pt x="225" y="-275" on="1"/>
        <pt x="235" y="-250" on="0"/>
        <pt x="244" y="-200" on="0"/>
        <pt x="244" y="-175" on="1"/>
        <pt x="244" y="-150" on="0"/>
        <pt x="236" y="-102" on="0"/>
        <pt x="229" y="-80" on="1"/>
        <pt x="230" y="-80" on="0"/>
        <pt x="271" y="-78" on="0"/>
        <pt x="319" y="-76" on="0"/>
        <pt x="361" y="-74" on="0"/>
        <pt x="362" y="-74" on="1"/>
        <pt x="362" y="-89" on="1"/>
        <pt x="362" y="-142" on="0"/>
        <pt x="322" y="-253" on="0"/>
        <pt x="282" y="-293" on="1"/>
      </contour>
    </TTGlyph>
    <TTGlyph name="S" xMin="78" yMin="-8" xMax="486" yMax="626">
      <contour>
        <pt x="80" y="96" on="1"/>
        <pt x="105" y="94" on="0"/>
        <pt x="152" y="92" on="0"/>
        <pt x="173" y="92" on="1"/>
        <pt x="278" y="92" on="0"/>
        <pt x="367" y="135" on="0"/>
        <pt x="367" y="168" on="1"/>
        <pt x="367" y="206" on="0"/>
        <pt x="276" y="263" on="0"/>
        <pt x="169" y="322" on="0"/>
        <pt x="78" y="395" on="0"/>
        <pt x="78" y="448" on="1"/>
        <pt x="78" y="480" on="0"/>
        <pt x="114" y="545" on="0"/>
        <pt x="191" y="595" on="0"/>
        <pt x="311" y="626" on="0"/>
        <pt x="394" y="626" on="1"/>
        <pt x="405" y="626" on="0"/>
        <pt x="429" y="626" on="0"/>
        <pt x="442" y="625" on="1"/>
        <pt x="448" y="522" on="1"/>
        <pt x="421" y="524" on="0"/>
        <pt x="374" y="526" on="0"/>
        <pt x="354" y="526" on="1"/>
        <pt x="262" y="526" on="0"/>
        <pt x="197" y="492" on="0"/>
        <pt x="197" y="464" on="1"/>
        <pt x="197" y="429" on="0"/>
        <pt x="288" y="374" on="0"/>
        <pt x="395" y="313" on="0"/>
        <pt x="486" y="237" on="0"/>
        <pt x="486" y="182" on="1"/>
        <pt x="486" y="147" on="0"/>
        <pt x="448" y="79" on="0"/>
        <pt x="363" y="25" on="0"/>
        <pt x="225" y="-8" on="0"/>
        <pt x="127" y="-8" on="1"/>
        <pt x="116" y="-8" on="0"/>
        <pt x="92" y="-8" on="0"/>
        <pt x="80" y="-7" on="1"/>
      </contour>
    </TTGlyph>
    <TTGlyph name="Sacute" xMin="78" yMin="-8" xMax="486" yMax="912">
      <contour>
        <pt x="170" y="735" on="1"/>
        <pt x="192" y="749" on="0"/>
        <pt x="246" y="792" on="0"/>
        <pt x="302" y="840" on="0"/>
        <pt x="355" y="890" on="0"/>
        <pt x="375" y="912" on="1"/>
        <pt x="457" y="828" on="1"/>
        <pt x="432" y="808" on="0"/>
        <pt x="365" y="766" on="0"/>
        <pt x="295" y="728" on="0"/>
        <pt x="225" y="696" on="0"/>
        <pt x="198" y="686" on="1"/>
      </contour>
      <contour>
        <pt x="80" y="96" on="1"/>
        <pt x="105" y="94" on="0"/>
        <pt x="152" y="92" on="0"/>
        <pt x="173" y="92" on="1"/>
        <pt x="278" y="92" on="0"/>
        <pt x="367" y="135" on="0"/>
        <pt x="367" y="168" on="1"/>
        <pt x="367" y="206" on="0"/>
        <pt x="276" y="263" on="0"/>
        <pt x="169" y="322" on="0"/>
        <pt x="78" y="395" on="0"/>
        <pt x="78" y="448" on="1"/>
        <pt x="78" y="480" on="0"/>
        <pt x="114" y="545" on="0"/>
        <pt x="191" y="595" on="0"/>
        <pt x="311" y="626" on="0"/>
        <pt x="394" y="626" on="1"/>
        <pt x="405" y="626" on="0"/>
        <pt x="429" y="626" on="0"/>
        <pt x="442" y="625" on="1"/>
        <pt x="448" y="522" on="1"/>
        <pt x="421" y="524" on="0"/>
        <pt x="374" y="526" on="0"/>
        <pt x="354" y="526" on="1"/>
        <pt x="262" y="526" on="0"/>
        <pt x="197" y="492" on="0"/>
        <pt x="197" y="464" on="1"/>
        <pt x="197" y="429" on="0"/>
        <pt x="288" y="374" on="0"/>
        <pt x="395" y="313" on="0"/>
        <pt x="486" y="237" on="0"/>
        <pt x="486" y="182" on="1"/>
        <pt x="486" y="147" on="0"/>
        <pt x="448" y="79" on="0"/>
        <pt x="363" y="25" on="0"/>
        <pt x="225" y="-8" on="0"/>
        <pt x="127" y="-8" on="1"/>
        <pt x="116" y="-8" on="0"/>
        <pt x="92" y="-8" on="0"/>
        <pt x="80" y="-7" on="1"/>
      </contour>
    </TTGlyph>
    <TTGlyph name="Scaron" xMin="78" yMin="-8" xMax="486" yMax="887">
      <contour>
        <pt x="298" y="681" on="1"/>
        <pt x="291" y="681" on="1"/>
        <pt x="107" y="821" on="1"/>
        <pt x="176" y="887" on="1"/>
        <pt x="303" y="785" on="1"/>
        <pt x="427" y="886" on="1"/>
        <pt x="480" y="834" on="1"/>
      </contour>
      <contour>
        <pt x="80" y="96" on="1"/>
        <pt x="105" y="94" on="0"/>
        <pt x="152" y="92" on="0"/>
        <pt x="173" y="92" on="1"/>
        <pt x="278" y="92" on="0"/>
        <pt x="367" y="135" on="0"/>
        <pt x="367" y="168" on="1"/>
        <pt x="367" y="206" on="0"/>
        <pt x="276" y="263" on="0"/>
        <pt x="169" y="322" on="0"/>
        <pt x="78" y="395" on="0"/>
        <pt x="78" y="448" on="1"/>
        <pt x="78" y="480" on="0"/>
        <pt x="114" y="545" on="0"/>
        <pt x="191" y="595" on="0"/>
        <pt x="311" y="626" on="0"/>
        <pt x="394" y="626" on="1"/>
        <pt x="405" y="626" on="0"/>
        <pt x="429" y="626" on="0"/>
        <pt x="442" y="625" on="1"/>
        <pt x="448" y="522" on="1"/>
        <pt x="421" y="524" on="0"/>
        <pt x="374" y="526" on="0"/>
        <pt x="354" y="526" on="1"/>
        <pt x="262" y="526" on="0"/>
        <pt x="197" y="492" on="0"/>
        <pt x="197" y="464" on="1"/>
        <pt x="197" y="429" on="0"/>
        <pt x="288" y="374" on="0"/>
        <pt x="395" y="313" on="0"/>
        <pt x="486" y="237" on="0"/>
        <pt x="486" y="182" on="1"/>
        <pt x="486" y="147" on="0"/>
        <pt x="448" y="79" on="0"/>
        <pt x="363" y="25" on="0"/>
        <pt x="225" y="-8" on="0"/>
        <pt x="127" y="-8" on="1"/>
        <pt x="116" y="-8" on="0"/>
        <pt x="92" y="-8" on="0"/>
        <pt x="80" y="-7" on="1"/>
      </contour>
    </TTGlyph>
    <TTGlyph name="Scedilla" xMin="78" yMin="-232" xMax="486" yMax="626">
      <contour>
        <pt x="167" y="-232" on="1"/>
        <pt x="160" y="-147" on="1"/>
        <pt x="218" y="-140" on="0"/>
        <pt x="270" y="-120" on="0"/>
        <pt x="270" y="-106" on="1"/>
        <pt x="270" y="-91" on="0"/>
        <pt x="226" y="-54" on="0"/>
        <pt x="181" y="-31" on="1"/>
        <pt x="192" y="-6" on="1"/>
        <pt x="177" y="-7" on="0"/>
        <pt x="144" y="-8" on="0"/>
        <pt x="127" y="-8" on="1"/>
        <pt x="116" y="-8" on="0"/>
        <pt x="92" y="-8" on="0"/>
        <pt x="80" y="-7" on="1"/>
        <pt x="80" y="96" on="1"/>
        <pt x="105" y="94" on="0"/>
        <pt x="152" y="92" on="0"/>
        <pt x="173" y="92" on="1"/>
        <pt x="278" y="92" on="0"/>
        <pt x="367" y="135" on="0"/>
        <pt x="367" y="168" on="1"/>
        <pt x="367" y="206" on="0"/>
        <pt x="276" y="263" on="0"/>
        <pt x="169" y="322" on="0"/>
        <pt x="78" y="395" on="0"/>
        <pt x="78" y="448" on="1"/>
        <pt x="78" y="480" on="0"/>
        <pt x="114" y="545" on="0"/>
        <pt x="191" y="595" on="0"/>
        <pt x="311" y="626" on="0"/>
        <pt x="394" y="626" on="1"/>
        <pt x="405" y="626" on="0"/>
        <pt x="429" y="626" on="0"/>
        <pt x="442" y="625" on="1"/>
        <pt x="448" y="522" on="1"/>
        <pt x="421" y="524" on="0"/>
        <pt x="374" y="526" on="0"/>
        <pt x="354" y="526" on="1"/>
        <pt x="262" y="526" on="0"/>
        <pt x="197" y="492" on="0"/>
        <pt x="197" y="464" on="1"/>
        <pt x="197" y="429" on="0"/>
        <pt x="288" y="374" on="0"/>
        <pt x="395" y="313" on="0"/>
        <pt x="486" y="237" on="0"/>
        <pt x="486" y="182" on="1"/>
        <pt x="486" y="125" on="0"/>
        <pt x="378" y="20" on="0"/>
        <pt x="253" y="1" on="1"/>
        <pt x="316" y="-30" on="0"/>
        <pt x="370" y="-92" on="0"/>
        <pt x="370" y="-120" on="1"/>
        <pt x="370" y="-161" on="0"/>
        <pt x="268" y="-222" on="0"/>
      </contour>
    </TTGlyph>
    <TTGlyph name="Scommaaccent" xMin="78" yMin="-294" xMax="486" yMax="626">
      <contour>
        <pt x="80" y="96" on="1"/>
        <pt x="105" y="94" on="0"/>
        <pt x="152" y="92" on="0"/>
        <pt x="173" y="92" on="1"/>
        <pt x="278" y="92" on="0"/>
        <pt x="367" y="135" on="0"/>
        <pt x="367" y="168" on="1"/>
        <pt x="367" y="206" on="0"/>
        <pt x="276" y="263" on="0"/>
        <pt x="169" y="322" on="0"/>
        <pt x="78" y="395" on="0"/>
        <pt x="78" y="448" on="1"/>
        <pt x="78" y="480" on="0"/>
        <pt x="114" y="545" on="0"/>
        <pt x="191" y="595" on="0"/>
        <pt x="311" y="626" on="0"/>
        <pt x="394" y="626" on="1"/>
        <pt x="405" y="626" on="0"/>
        <pt x="429" y="626" on="0"/>
        <pt x="442" y="625" on="1"/>
        <pt x="448" y="522" on="1"/>
        <pt x="421" y="524" on="0"/>
        <pt x="374" y="526" on="0"/>
        <pt x="354" y="526" on="1"/>
        <pt x="262" y="526" on="0"/>
        <pt x="197" y="492" on="0"/>
        <pt x="197" y="464" on="1"/>
        <pt x="197" y="429" on="0"/>
        <pt x="288" y="374" on="0"/>
        <pt x="395" y="313" on="0"/>
        <pt x="486" y="237" on="0"/>
        <pt x="486" y="182" on="1"/>
        <pt x="486" y="147" on="0"/>
        <pt x="448" y="79" on="0"/>
        <pt x="363" y="25" on="0"/>
        <pt x="225" y="-8" on="0"/>
        <pt x="127" y="-8" on="1"/>
        <pt x="116" y="-8" on="0"/>
        <pt x="92" y="-8" on="0"/>
        <pt x="80" y="-7" on="1"/>
      </contour>
      <contour>
        <pt x="197" y="-276" on="1"/>
        <pt x="207" y="-251" on="0"/>
        <pt x="216" y="-201" on="0"/>
        <pt x="216" y="-176" on="1"/>
        <pt x="216" y="-151" on="0"/>
        <pt x="208" y="-103" on="0"/>
        <pt x="201" y="-81" on="1"/>
        <pt x="202" y="-81" on="0"/>
        <pt x="243" y="-79" on="0"/>
        <pt x="291" y="-77" on="0"/>
        <pt x="333" y="-75" on="0"/>
        <pt x="334" y="-75" on="1"/>
        <pt x="334" y="-90" on="1"/>
        <pt x="334" y="-143" on="0"/>
        <pt x="294" y="-254" on="0"/>
        <pt x="254" y="-294" on="1"/>
      </contour>
    </TTGlyph>
    <TTGlyph name="T" xMin="36" yMin="0" xMax="511" yMax="620">
      <contour>
        <pt x="334" y="524" on="1"/>
        <pt x="334" y="0" on="1"/>
        <pt x="218" y="0" on="1"/>
        <pt x="218" y="524" on="1"/>
        <pt x="36" y="524" on="1"/>
        <pt x="44" y="620" on="1"/>
        <pt x="511" y="620" on="1"/>
        <pt x="511" y="524" on="1"/>
      </contour>
    </TTGlyph>
    <TTGlyph name="Tcaron" xMin="36" yMin="0" xMax="511" yMax="882">
      <contour>
        <pt x="281" y="676" on="1"/>
        <pt x="274" y="676" on="1"/>
        <pt x="90" y="816" on="1"/>
        <pt x="159" y="882" on="1"/>
        <pt x="286" y="780" on="1"/>
        <pt x="410" y="881" on="1"/>
        <pt x="463" y="829" on="1"/>
      </contour>
      <contour>
        <pt x="334" y="524" on="1"/>
        <pt x="334" y="0" on="1"/>
        <pt x="218" y="0" on="1"/>
        <pt x="218" y="524" on="1"/>
        <pt x="36" y="524" on="1"/>
        <pt x="44" y="620" on="1"/>
        <pt x="511" y="620" on="1"/>
        <pt x="511" y="524" on="1"/>
      </contour>
    </TTGlyph>
    <TTGlyph name="Tcommaaccent" xMin="36" yMin="-284" xMax="511" yMax="620">
      <contour>
        <pt x="334" y="524" on="1"/>
        <pt x="334" y="0" on="1"/>
        <pt x="218" y="0" on="1"/>
        <pt x="218" y="524" on="1"/>
        <pt x="36" y="524" on="1"/>
        <pt x="44" y="620" on="1"/>
        <pt x="511" y="620" on="1"/>
        <pt x="511" y="524" on="1"/>
      </contour>
      <contour>
        <pt x="200" y="-266" on="1"/>
        <pt x="210" y="-241" on="0"/>
        <pt x="219" y="-191" on="0"/>
        <pt x="219" y="-166" on="1"/>
        <pt x="219" y="-141" on="0"/>
        <pt x="211" y="-93" on="0"/>
        <pt x="204" y="-71" on="1"/>
        <pt x="205" y="-71" on="0"/>
        <pt x="246" y="-69" on="0"/>
        <pt x="294" y="-67" on="0"/>
        <pt x="336" y="-65" on="0"/>
        <pt x="337" y="-65" on="1"/>
        <pt x="337" y="-80" on="1"/>
        <pt x="337" y="-133" on="0"/>
        <pt x="297" y="-244" on="0"/>
        <pt x="257" y="-284" on="1"/>
      </contour>
    </TTGlyph>
    <TTGlyph name="Thorn" xMin="87" yMin="0" xMax="511" yMax="620">
      <contour>
        <pt x="202" y="0" on="1"/>
        <pt x="87" y="0" on="1"/>
        <pt x="87" y="620" on="1"/>
        <pt x="202" y="620" on="1"/>
        <pt x="202" y="528" on="1"/>
        <pt x="211" y="529" on="0"/>
        <pt x="229" y="529" on="0"/>
        <pt x="238" y="529" on="1"/>
        <pt x="373" y="529" on="0"/>
        <pt x="511" y="427" on="0"/>
        <pt x="511" y="333" on="1"/>
        <pt x="511" y="279" on="0"/>
        <pt x="465" y="196" on="0"/>
        <pt x="384" y="139" on="0"/>
        <pt x="270" y="105" on="0"/>
        <pt x="202" y="98" on="1"/>
      </contour>
      <contour>
        <pt x="251" y="192" on="1"/>
        <pt x="323" y="192" on="0"/>
        <pt x="399" y="248" on="0"/>
        <pt x="399" y="310" on="1"/>
        <pt x="399" y="370" on="0"/>
        <pt x="322" y="434" on="0"/>
        <pt x="247" y="434" on="1"/>
        <pt x="237" y="434" on="0"/>
        <pt x="214" y="432" on="0"/>
        <pt x="202" y="431" on="1"/>
        <pt x="202" y="195" on="1"/>
        <pt x="215" y="194" on="0"/>
        <pt x="240" y="192" on="0"/>
      </contour>
    </TTGlyph>
    <TTGlyph name="U" xMin="66" yMin="-16" xMax="485" yMax="620">
      <contour>
        <pt x="270" y="-16" on="1"/>
        <pt x="174" y="-16" on="0"/>
        <pt x="66" y="100" on="0"/>
        <pt x="66" y="206" on="1"/>
        <pt x="66" y="620" on="1"/>
        <pt x="181" y="620" on="1"/>
        <pt x="181" y="211" on="1"/>
        <pt x="181" y="145" on="0"/>
        <pt x="233" y="83" on="0"/>
        <pt x="278" y="83" on="1"/>
        <pt x="325" y="83" on="0"/>
        <pt x="370" y="135" on="0"/>
        <pt x="370" y="195" on="1"/>
        <pt x="370" y="620" on="1"/>
        <pt x="485" y="620" on="1"/>
        <pt x="485" y="215" on="1"/>
        <pt x="485" y="108" on="0"/>
        <pt x="369" y="-16" on="0"/>
      </contour>
    </TTGlyph>
    <TTGlyph name="Uacute" xMin="66" yMin="-16" xMax="485" yMax="907">
      <contour>
        <pt x="157" y="730" on="1"/>
        <pt x="179" y="744" on="0"/>
        <pt x="233" y="787" on="0"/>
        <pt x="289" y="835" on="0"/>
        <pt x="342" y="885" on="0"/>
        <pt x="362" y="907" on="1"/>
        <pt x="444" y="823" on="1"/>
        <pt x="419" y="803" on="0"/>
        <pt x="352" y="761" on="0"/>
        <pt x="282" y="723" on="0"/>
        <pt x="212" y="691" on="0"/>
        <pt x="185" y="681" on="1"/>
      </contour>
      <contour>
        <pt x="270" y="-16" on="1"/>
        <pt x="174" y="-16" on="0"/>
        <pt x="66" y="100" on="0"/>
        <pt x="66" y="206" on="1"/>
        <pt x="66" y="620" on="1"/>
        <pt x="181" y="620" on="1"/>
        <pt x="181" y="211" on="1"/>
        <pt x="181" y="145" on="0"/>
        <pt x="233" y="83" on="0"/>
        <pt x="278" y="83" on="1"/>
        <pt x="325" y="83" on="0"/>
        <pt x="370" y="135" on="0"/>
        <pt x="370" y="195" on="1"/>
        <pt x="370" y="620" on="1"/>
        <pt x="485" y="620" on="1"/>
        <pt x="485" y="215" on="1"/>
        <pt x="485" y="108" on="0"/>
        <pt x="369" y="-16" on="0"/>
      </contour>
    </TTGlyph>
    <TTGlyph name="Ubreve" xMin="66" yMin="-16" xMax="485" yMax="877">
      <contour>
        <pt x="276" y="686" on="1"/>
        <pt x="222" y="686" on="0"/>
        <pt x="122" y="760" on="0"/>
        <pt x="82" y="832" on="1"/>
        <pt x="159" y="877" on="1"/>
        <pt x="193" y="823" on="0"/>
        <pt x="252" y="775" on="0"/>
        <pt x="286" y="775" on="1"/>
        <pt x="322" y="775" on="0"/>
        <pt x="382" y="826" on="0"/>
        <pt x="414" y="872" on="1"/>
        <pt x="477" y="840" on="1"/>
        <pt x="435" y="769" on="0"/>
        <pt x="332" y="686" on="0"/>
      </contour>
      <contour>
        <pt x="270" y="-16" on="1"/>
        <pt x="174" y="-16" on="0"/>
        <pt x="66" y="100" on="0"/>
        <pt x="66" y="206" on="1"/>
        <pt x="66" y="620" on="1"/>
        <pt x="181" y="620" on="1"/>
        <pt x="181" y="211" on="1"/>
        <pt x="181" y="145" on="0"/>
        <pt x="233" y="83" on="0"/>
        <pt x="278" y="83" on="1"/>
        <pt x="325" y="83" on="0"/>
        <pt x="370" y="135" on="0"/>
        <pt x="370" y="195" on="1"/>
        <pt x="370" y="620" on="1"/>
        <pt x="485" y="620" on="1"/>
        <pt x="485" y="215" on="1"/>
        <pt x="485" y="108" on="0"/>
        <pt x="369" y="-16" on="0"/>
      </contour>
    </TTGlyph>
    <TTGlyph name="Ucircumflex" xMin="66" yMin="-16" xMax="485" yMax="888">
      <contour>
        <pt x="394" y="683" on="1"/>
        <pt x="267" y="785" on="1"/>
        <pt x="143" y="684" on="1"/>
        <pt x="89" y="735" on="1"/>
        <pt x="271" y="888" on="1"/>
        <pt x="278" y="888" on="1"/>
        <pt x="462" y="748" on="1"/>
      </contour>
      <contour>
        <pt x="270" y="-16" on="1"/>
        <pt x="174" y="-16" on="0"/>
        <pt x="66" y="100" on="0"/>
        <pt x="66" y="206" on="1"/>
        <pt x="66" y="620" on="1"/>
        <pt x="181" y="620" on="1"/>
        <pt x="181" y="211" on="1"/>
        <pt x="181" y="145" on="0"/>
        <pt x="233" y="83" on="0"/>
        <pt x="278" y="83" on="1"/>
        <pt x="325" y="83" on="0"/>
        <pt x="370" y="135" on="0"/>
        <pt x="370" y="195" on="1"/>
        <pt x="370" y="620" on="1"/>
        <pt x="485" y="620" on="1"/>
        <pt x="485" y="215" on="1"/>
        <pt x="485" y="108" on="0"/>
        <pt x="369" y="-16" on="0"/>
      </contour>
    </TTGlyph>
    <TTGlyph name="Udieresis" xMin="66" yMin="-16" xMax="485" yMax="835">
      <contour>
        <pt x="443" y="695" on="1"/>
        <pt x="331" y="695" on="1"/>
        <pt x="333" y="835" on="1"/>
        <pt x="446" y="835" on="1"/>
      </contour>
      <contour>
        <pt x="221" y="695" on="1"/>
        <pt x="108" y="695" on="1"/>
        <pt x="110" y="835" on="1"/>
        <pt x="224" y="835" on="1"/>
      </contour>
      <contour>
        <pt x="270" y="-16" on="1"/>
        <pt x="174" y="-16" on="0"/>
        <pt x="66" y="100" on="0"/>
        <pt x="66" y="206" on="1"/>
        <pt x="66" y="620" on="1"/>
        <pt x="181" y="620" on="1"/>
        <pt x="181" y="211" on="1"/>
        <pt x="181" y="145" on="0"/>
        <pt x="233" y="83" on="0"/>
        <pt x="278" y="83" on="1"/>
        <pt x="325" y="83" on="0"/>
        <pt x="370" y="135" on="0"/>
        <pt x="370" y="195" on="1"/>
        <pt x="370" y="620" on="1"/>
        <pt x="485" y="620" on="1"/>
        <pt x="485" y="215" on="1"/>
        <pt x="485" y="108" on="0"/>
        <pt x="369" y="-16" on="0"/>
      </contour>
    </TTGlyph>
    <TTGlyph name="Ugrave" xMin="66" yMin="-16" xMax="485" yMax="906">
      <contour>
        <pt x="388" y="726" on="1"/>
        <pt x="357" y="678" on="1"/>
        <pt x="331" y="689" on="0"/>
        <pt x="263" y="722" on="0"/>
        <pt x="194" y="759" on="0"/>
        <pt x="128" y="798" on="0"/>
        <pt x="102" y="816" on="1"/>
        <pt x="177" y="906" on="1"/>
        <pt x="198" y="885" on="0"/>
        <pt x="254" y="835" on="0"/>
        <pt x="312" y="786" on="0"/>
        <pt x="368" y="741" on="0"/>
      </contour>
      <contour>
        <pt x="270" y="-16" on="1"/>
        <pt x="174" y="-16" on="0"/>
        <pt x="66" y="100" on="0"/>
        <pt x="66" y="206" on="1"/>
        <pt x="66" y="620" on="1"/>
        <pt x="181" y="620" on="1"/>
        <pt x="181" y="211" on="1"/>
        <pt x="181" y="145" on="0"/>
        <pt x="233" y="83" on="0"/>
        <pt x="278" y="83" on="1"/>
        <pt x="325" y="83" on="0"/>
        <pt x="370" y="135" on="0"/>
        <pt x="370" y="195" on="1"/>
        <pt x="370" y="620" on="1"/>
        <pt x="485" y="620" on="1"/>
        <pt x="485" y="215" on="1"/>
        <pt x="485" y="108" on="0"/>
        <pt x="369" y="-16" on="0"/>
      </contour>
    </TTGlyph>
    <TTGlyph name="Uhungarumlaut" xMin="66" yMin="-16" xMax="536" yMax="920">
      <contour>
        <pt x="114" y="719" on="1"/>
        <pt x="128" y="740" on="0"/>
        <pt x="157" y="792" on="0"/>
        <pt x="185" y="846" on="0"/>
        <pt x="209" y="898" on="0"/>
        <pt x="218" y="920" on="1"/>
        <pt x="324" y="870" on="1"/>
        <pt x="296" y="827" on="0"/>
        <pt x="208" y="724" on="0"/>
        <pt x="166" y="686" on="1"/>
      </contour>
      <contour>
        <pt x="324" y="717" on="1"/>
        <pt x="352" y="760" on="0"/>
        <pt x="408" y="867" on="0"/>
        <pt x="425" y="913" on="1"/>
        <pt x="536" y="869" on="1"/>
        <pt x="507" y="826" on="0"/>
        <pt x="420" y="723" on="0"/>
        <pt x="377" y="685" on="1"/>
      </contour>
      <contour>
        <pt x="270" y="-16" on="1"/>
        <pt x="174" y="-16" on="0"/>
        <pt x="66" y="100" on="0"/>
        <pt x="66" y="206" on="1"/>
        <pt x="66" y="620" on="1"/>
        <pt x="181" y="620" on="1"/>
        <pt x="181" y="211" on="1"/>
        <pt x="181" y="145" on="0"/>
        <pt x="233" y="83" on="0"/>
        <pt x="278" y="83" on="1"/>
        <pt x="325" y="83" on="0"/>
        <pt x="370" y="135" on="0"/>
        <pt x="370" y="195" on="1"/>
        <pt x="370" y="620" on="1"/>
        <pt x="485" y="620" on="1"/>
        <pt x="485" y="215" on="1"/>
        <pt x="485" y="108" on="0"/>
        <pt x="369" y="-16" on="0"/>
      </contour>
    </TTGlyph>
    <TTGlyph name="Umacron" xMin="66" yMin="-16" xMax="485" yMax="813">
      <contour>
        <pt x="448" y="813" on="1"/>
        <pt x="448" y="718" on="1"/>
        <pt x="102" y="718" on="1"/>
        <pt x="102" y="813" on="1"/>
      </contour>
      <contour>
        <pt x="270" y="-16" on="1"/>
        <pt x="174" y="-16" on="0"/>
        <pt x="66" y="100" on="0"/>
        <pt x="66" y="206" on="1"/>
        <pt x="66" y="620" on="1"/>
        <pt x="181" y="620" on="1"/>
        <pt x="181" y="211" on="1"/>
        <pt x="181" y="145" on="0"/>
        <pt x="233" y="83" on="0"/>
        <pt x="278" y="83" on="1"/>
        <pt x="325" y="83" on="0"/>
        <pt x="370" y="135" on="0"/>
        <pt x="370" y="195" on="1"/>
        <pt x="370" y="620" on="1"/>
        <pt x="485" y="620" on="1"/>
        <pt x="485" y="215" on="1"/>
        <pt x="485" y="108" on="0"/>
        <pt x="369" y="-16" on="0"/>
      </contour>
    </TTGlyph>
    <TTGlyph name="Uogonek" xMin="66" yMin="-224" xMax="485" yMax="620">
      <contour>
        <pt x="370" y="-224" on="1"/>
        <pt x="260" y="-219" on="0"/>
        <pt x="165" y="-162" on="0"/>
        <pt x="165" y="-123" on="1"/>
        <pt x="165" y="-96" on="0"/>
        <pt x="202" y="-44" on="0"/>
        <pt x="248" y="-15" on="1"/>
        <pt x="161" y="-8" on="0"/>
        <pt x="66" y="107" on="0"/>
        <pt x="66" y="206" on="1"/>
        <pt x="66" y="620" on="1"/>
        <pt x="181" y="620" on="1"/>
        <pt x="181" y="211" on="1"/>
        <pt x="181" y="145" on="0"/>
        <pt x="233" y="83" on="0"/>
        <pt x="278" y="83" on="1"/>
        <pt x="325" y="83" on="0"/>
        <pt x="370" y="135" on="0"/>
        <pt x="370" y="195" on="1"/>
        <pt x="370" y="620" on="1"/>
        <pt x="485" y="620" on="1"/>
        <pt x="485" y="215" on="1"/>
        <pt x="485" y="143" on="0"/>
        <pt x="436" y="49" on="0"/>
        <pt x="386" y="14" on="1"/>
        <pt x="328" y="-27" on="0"/>
        <pt x="271" y="-67" on="0"/>
        <pt x="271" y="-89" on="1"/>
        <pt x="271" y="-108" on="0"/>
        <pt x="320" y="-132" on="0"/>
        <pt x="380" y="-137" on="1"/>
      </contour>
    </TTGlyph>
    <TTGlyph name="Uring" xMin="66" yMin="-16" xMax="485" yMax="890">
      <contour>
        <pt x="275" y="890" on="1"/>
        <pt x="334" y="890" on="0"/>
        <pt x="409" y="827" on="0"/>
        <pt x="409" y="784" on="1"/>
        <pt x="409" y="736" on="0"/>
        <pt x="335" y="673" on="0"/>
        <pt x="275" y="673" on="1"/>
        <pt x="215" y="673" on="0"/>
        <pt x="141" y="735" on="0"/>
        <pt x="141" y="780" on="1"/>
        <pt x="141" y="826" on="0"/>
        <pt x="214" y="890" on="0"/>
      </contour>
      <contour>
        <pt x="270" y="-16" on="1"/>
        <pt x="174" y="-16" on="0"/>
        <pt x="66" y="100" on="0"/>
        <pt x="66" y="206" on="1"/>
        <pt x="66" y="620" on="1"/>
        <pt x="181" y="620" on="1"/>
        <pt x="181" y="211" on="1"/>
        <pt x="181" y="145" on="0"/>
        <pt x="233" y="83" on="0"/>
        <pt x="278" y="83" on="1"/>
        <pt x="325" y="83" on="0"/>
        <pt x="370" y="135" on="0"/>
        <pt x="370" y="195" on="1"/>
        <pt x="370" y="620" on="1"/>
        <pt x="485" y="620" on="1"/>
        <pt x="485" y="215" on="1"/>
        <pt x="485" y="108" on="0"/>
        <pt x="369" y="-16" on="0"/>
      </contour>
    </TTGlyph>
    <TTGlyph name="V" xMin="29" yMin="-1" xMax="521" yMax="624">
      <contour>
        <pt x="356" y="-1" on="1"/>
        <pt x="195" y="-1" on="1"/>
        <pt x="149" y="154" on="0"/>
        <pt x="66" y="462" on="0"/>
        <pt x="29" y="616" on="1"/>
        <pt x="146" y="624" on="1"/>
        <pt x="175" y="496" on="0"/>
        <pt x="239" y="231" on="0"/>
        <pt x="273" y="103" on="1"/>
        <pt x="282" y="103" on="1"/>
        <pt x="316" y="231" on="0"/>
        <pt x="378" y="492" on="0"/>
        <pt x="407" y="620" on="1"/>
        <pt x="521" y="620" on="1"/>
        <pt x="484" y="466" on="0"/>
        <pt x="402" y="154" on="0"/>
      </contour>
    </TTGlyph>
    <TTGlyph name="W" xMin="39" yMin="0" xMax="512" yMax="620">
      <contour>
        <pt x="353" y="0" on="1"/>
        <pt x="272" y="297" on="1"/>
        <pt x="195" y="0" on="1"/>
        <pt x="85" y="0" on="1"/>
        <pt x="80" y="44" on="0"/>
        <pt x="68" y="174" on="0"/>
        <pt x="56" y="334" on="0"/>
        <pt x="44" y="520" on="0"/>
        <pt x="39" y="620" on="1"/>
        <pt x="150" y="620" on="1"/>
        <pt x="151" y="596" on="0"/>
        <pt x="157" y="452" on="0"/>
        <pt x="164" y="295" on="0"/>
        <pt x="171" y="163" on="0"/>
        <pt x="172" y="151" on="1"/>
        <pt x="176" y="151" on="1"/>
        <pt x="196" y="232" on="0"/>
        <pt x="228" y="359" on="0"/>
        <pt x="247" y="434" on="1"/>
        <pt x="308" y="434" on="1"/>
        <pt x="328" y="359" on="0"/>
        <pt x="364" y="226" on="0"/>
        <pt x="384" y="151" on="1"/>
        <pt x="387" y="151" on="1"/>
        <pt x="388" y="163" on="0"/>
        <pt x="394" y="295" on="0"/>
        <pt x="399" y="452" on="0"/>
        <pt x="404" y="596" on="0"/>
        <pt x="405" y="620" on="1"/>
        <pt x="512" y="620" on="1"/>
        <pt x="507" y="520" on="0"/>
        <pt x="495" y="334" on="0"/>
        <pt x="483" y="174" on="0"/>
        <pt x="470" y="44" on="0"/>
        <pt x="465" y="0" on="1"/>
      </contour>
    </TTGlyph>
    <TTGlyph name="Wacute" xMin="39" yMin="0" xMax="512" yMax="907">
      <contour>
        <pt x="160" y="730" on="1"/>
        <pt x="182" y="744" on="0"/>
        <pt x="236" y="787" on="0"/>
        <pt x="292" y="835" on="0"/>
        <pt x="345" y="885" on="0"/>
        <pt x="365" y="907" on="1"/>
        <pt x="447" y="823" on="1"/>
        <pt x="422" y="803" on="0"/>
        <pt x="355" y="761" on="0"/>
        <pt x="285" y="723" on="0"/>
        <pt x="215" y="691" on="0"/>
        <pt x="188" y="681" on="1"/>
      </contour>
      <contour>
        <pt x="353" y="0" on="1"/>
        <pt x="272" y="297" on="1"/>
        <pt x="195" y="0" on="1"/>
        <pt x="85" y="0" on="1"/>
        <pt x="80" y="44" on="0"/>
        <pt x="68" y="174" on="0"/>
        <pt x="56" y="334" on="0"/>
        <pt x="44" y="520" on="0"/>
        <pt x="39" y="620" on="1"/>
        <pt x="150" y="620" on="1"/>
        <pt x="151" y="596" on="0"/>
        <pt x="157" y="452" on="0"/>
        <pt x="164" y="295" on="0"/>
        <pt x="171" y="163" on="0"/>
        <pt x="172" y="151" on="1"/>
        <pt x="176" y="151" on="1"/>
        <pt x="196" y="232" on="0"/>
        <pt x="228" y="359" on="0"/>
        <pt x="247" y="434" on="1"/>
        <pt x="308" y="434" on="1"/>
        <pt x="328" y="359" on="0"/>
        <pt x="364" y="226" on="0"/>
        <pt x="384" y="151" on="1"/>
        <pt x="387" y="151" on="1"/>
        <pt x="388" y="163" on="0"/>
        <pt x="394" y="295" on="0"/>
        <pt x="399" y="452" on="0"/>
        <pt x="404" y="596" on="0"/>
        <pt x="405" y="620" on="1"/>
        <pt x="512" y="620" on="1"/>
        <pt x="507" y="520" on="0"/>
        <pt x="495" y="334" on="0"/>
        <pt x="483" y="174" on="0"/>
        <pt x="470" y="44" on="0"/>
        <pt x="465" y="0" on="1"/>
      </contour>
    </TTGlyph>
    <TTGlyph name="Wcircumflex" xMin="39" yMin="0" xMax="512" yMax="888">
      <contour>
        <pt x="397" y="683" on="1"/>
        <pt x="270" y="785" on="1"/>
        <pt x="146" y="684" on="1"/>
        <pt x="92" y="735" on="1"/>
        <pt x="274" y="888" on="1"/>
        <pt x="281" y="888" on="1"/>
        <pt x="465" y="748" on="1"/>
      </contour>
      <contour>
        <pt x="353" y="0" on="1"/>
        <pt x="272" y="297" on="1"/>
        <pt x="195" y="0" on="1"/>
        <pt x="85" y="0" on="1"/>
        <pt x="80" y="44" on="0"/>
        <pt x="68" y="174" on="0"/>
        <pt x="56" y="334" on="0"/>
        <pt x="44" y="520" on="0"/>
        <pt x="39" y="620" on="1"/>
        <pt x="150" y="620" on="1"/>
        <pt x="151" y="596" on="0"/>
        <pt x="157" y="452" on="0"/>
        <pt x="164" y="295" on="0"/>
        <pt x="171" y="163" on="0"/>
        <pt x="172" y="151" on="1"/>
        <pt x="176" y="151" on="1"/>
        <pt x="196" y="232" on="0"/>
        <pt x="228" y="359" on="0"/>
        <pt x="247" y="434" on="1"/>
        <pt x="308" y="434" on="1"/>
        <pt x="328" y="359" on="0"/>
        <pt x="364" y="226" on="0"/>
        <pt x="384" y="151" on="1"/>
        <pt x="387" y="151" on="1"/>
        <pt x="388" y="163" on="0"/>
        <pt x="394" y="295" on="0"/>
        <pt x="399" y="452" on="0"/>
        <pt x="404" y="596" on="0"/>
        <pt x="405" y="620" on="1"/>
        <pt x="512" y="620" on="1"/>
        <pt x="507" y="520" on="0"/>
        <pt x="495" y="334" on="0"/>
        <pt x="483" y="174" on="0"/>
        <pt x="470" y="44" on="0"/>
        <pt x="465" y="0" on="1"/>
      </contour>
    </TTGlyph>
    <TTGlyph name="Wdieresis" xMin="39" yMin="0" xMax="512" yMax="835">
      <contour>
        <pt x="446" y="695" on="1"/>
        <pt x="334" y="695" on="1"/>
        <pt x="336" y="835" on="1"/>
        <pt x="449" y="835" on="1"/>
      </contour>
      <contour>
        <pt x="224" y="695" on="1"/>
        <pt x="111" y="695" on="1"/>
        <pt x="113" y="835" on="1"/>
        <pt x="227" y="835" on="1"/>
      </contour>
      <contour>
        <pt x="353" y="0" on="1"/>
        <pt x="272" y="297" on="1"/>
        <pt x="195" y="0" on="1"/>
        <pt x="85" y="0" on="1"/>
        <pt x="80" y="44" on="0"/>
        <pt x="68" y="174" on="0"/>
        <pt x="56" y="334" on="0"/>
        <pt x="44" y="520" on="0"/>
        <pt x="39" y="620" on="1"/>
        <pt x="150" y="620" on="1"/>
        <pt x="151" y="596" on="0"/>
        <pt x="157" y="452" on="0"/>
        <pt x="164" y="295" on="0"/>
        <pt x="171" y="163" on="0"/>
        <pt x="172" y="151" on="1"/>
        <pt x="176" y="151" on="1"/>
        <pt x="196" y="232" on="0"/>
        <pt x="228" y="359" on="0"/>
        <pt x="247" y="434" on="1"/>
        <pt x="308" y="434" on="1"/>
        <pt x="328" y="359" on="0"/>
        <pt x="364" y="226" on="0"/>
        <pt x="384" y="151" on="1"/>
        <pt x="387" y="151" on="1"/>
        <pt x="388" y="163" on="0"/>
        <pt x="394" y="295" on="0"/>
        <pt x="399" y="452" on="0"/>
        <pt x="404" y="596" on="0"/>
        <pt x="405" y="620" on="1"/>
        <pt x="512" y="620" on="1"/>
        <pt x="507" y="520" on="0"/>
        <pt x="495" y="334" on="0"/>
        <pt x="483" y="174" on="0"/>
        <pt x="470" y="44" on="0"/>
        <pt x="465" y="0" on="1"/>
      </contour>
    </TTGlyph>
    <TTGlyph name="Wgrave" xMin="39" yMin="0" xMax="512" yMax="906">
      <contour>
        <pt x="391" y="726" on="1"/>
        <pt x="360" y="678" on="1"/>
        <pt x="334" y="689" on="0"/>
        <pt x="266" y="722" on="0"/>
        <pt x="197" y="759" on="0"/>
        <pt x="131" y="798" on="0"/>
        <pt x="105" y="816" on="1"/>
        <pt x="180" y="906" on="1"/>
        <pt x="201" y="885" on="0"/>
        <pt x="257" y="835" on="0"/>
        <pt x="315" y="786" on="0"/>
        <pt x="371" y="741" on="0"/>
      </contour>
      <contour>
        <pt x="353" y="0" on="1"/>
        <pt x="272" y="297" on="1"/>
        <pt x="195" y="0" on="1"/>
        <pt x="85" y="0" on="1"/>
        <pt x="80" y="44" on="0"/>
        <pt x="68" y="174" on="0"/>
        <pt x="56" y="334" on="0"/>
        <pt x="44" y="520" on="0"/>
        <pt x="39" y="620" on="1"/>
        <pt x="150" y="620" on="1"/>
        <pt x="151" y="596" on="0"/>
        <pt x="157" y="452" on="0"/>
        <pt x="164" y="295" on="0"/>
        <pt x="171" y="163" on="0"/>
        <pt x="172" y="151" on="1"/>
        <pt x="176" y="151" on="1"/>
        <pt x="196" y="232" on="0"/>
        <pt x="228" y="359" on="0"/>
        <pt x="247" y="434" on="1"/>
        <pt x="308" y="434" on="1"/>
        <pt x="328" y="359" on="0"/>
        <pt x="364" y="226" on="0"/>
        <pt x="384" y="151" on="1"/>
        <pt x="387" y="151" on="1"/>
        <pt x="388" y="163" on="0"/>
        <pt x="394" y="295" on="0"/>
        <pt x="399" y="452" on="0"/>
        <pt x="404" y="596" on="0"/>
        <pt x="405" y="620" on="1"/>
        <pt x="512" y="620" on="1"/>
        <pt x="507" y="520" on="0"/>
        <pt x="495" y="334" on="0"/>
        <pt x="483" y="174" on="0"/>
        <pt x="470" y="44" on="0"/>
        <pt x="465" y="0" on="1"/>
      </contour>
    </TTGlyph>
    <TTGlyph name="X" xMin="29" yMin="-3" xMax="524" yMax="623">
      <contour>
        <pt x="397" y="-3" on="1"/>
        <pt x="271" y="229" on="1"/>
        <pt x="151" y="0" on="1"/>
        <pt x="29" y="0" on="1"/>
        <pt x="204" y="309" on="1"/>
        <pt x="29" y="617" on="1"/>
        <pt x="155" y="623" on="1"/>
        <pt x="281" y="389" on="1"/>
        <pt x="401" y="620" on="1"/>
        <pt x="524" y="620" on="1"/>
        <pt x="348" y="310" on="1"/>
        <pt x="523" y="3" on="1"/>
      </contour>
    </TTGlyph>
    <TTGlyph name="Y" xMin="20" yMin="0" xMax="530" yMax="622">
      <contour>
        <pt x="334" y="0" on="1"/>
        <pt x="218" y="0" on="1"/>
        <pt x="218" y="204" on="1"/>
        <pt x="20" y="618" on="1"/>
        <pt x="142" y="622" on="1"/>
        <pt x="279" y="313" on="1"/>
        <pt x="412" y="620" on="1"/>
        <pt x="530" y="620" on="1"/>
        <pt x="334" y="206" on="1"/>
      </contour>
    </TTGlyph>
    <TTGlyph name="Yacute" xMin="20" yMin="0" xMax="530" yMax="910">
      <contour>
        <pt x="159" y="733" on="1"/>
        <pt x="181" y="747" on="0"/>
        <pt x="235" y="790" on="0"/>
        <pt x="291" y="838" on="0"/>
        <pt x="344" y="888" on="0"/>
        <pt x="364" y="910" on="1"/>
        <pt x="446" y="826" on="1"/>
        <pt x="421" y="806" on="0"/>
        <pt x="354" y="764" on="0"/>
        <pt x="284" y="726" on="0"/>
        <pt x="214" y="694" on="0"/>
        <pt x="187" y="684" on="1"/>
      </contour>
      <contour>
        <pt x="334" y="0" on="1"/>
        <pt x="218" y="0" on="1"/>
        <pt x="218" y="204" on="1"/>
        <pt x="20" y="618" on="1"/>
        <pt x="142" y="622" on="1"/>
        <pt x="279" y="313" on="1"/>
        <pt x="412" y="620" on="1"/>
        <pt x="530" y="620" on="1"/>
        <pt x="334" y="206" on="1"/>
      </contour>
    </TTGlyph>
    <TTGlyph name="Ycircumflex" xMin="20" yMin="0" xMax="530" yMax="891">
      <contour>
        <pt x="396" y="686" on="1"/>
        <pt x="269" y="788" on="1"/>
        <pt x="145" y="687" on="1"/>
        <pt x="91" y="738" on="1"/>
        <pt x="273" y="891" on="1"/>
        <pt x="280" y="891" on="1"/>
        <pt x="464" y="751" on="1"/>
      </contour>
      <contour>
        <pt x="334" y="0" on="1"/>
        <pt x="218" y="0" on="1"/>
        <pt x="218" y="204" on="1"/>
        <pt x="20" y="618" on="1"/>
        <pt x="142" y="622" on="1"/>
        <pt x="279" y="313" on="1"/>
        <pt x="412" y="620" on="1"/>
        <pt x="530" y="620" on="1"/>
        <pt x="334" y="206" on="1"/>
      </contour>
    </TTGlyph>
    <TTGlyph name="Ydieresis" xMin="20" yMin="0" xMax="530" yMax="838">
      <contour>
        <pt x="445" y="698" on="1"/>
        <pt x="333" y="698" on="1"/>
        <pt x="335" y="838" on="1"/>
        <pt x="448" y="838" on="1"/>
      </contour>
      <contour>
        <pt x="223" y="698" on="1"/>
        <pt x="110" y="698" on="1"/>
        <pt x="112" y="838" on="1"/>
        <pt x="226" y="838" on="1"/>
      </contour>
      <contour>
        <pt x="334" y="0" on="1"/>
        <pt x="218" y="0" on="1"/>
        <pt x="218" y="204" on="1"/>
        <pt x="20" y="618" on="1"/>
        <pt x="142" y="622" on="1"/>
        <pt x="279" y="313" on="1"/>
        <pt x="412" y="620" on="1"/>
        <pt x="530" y="620" on="1"/>
        <pt x="334" y="206" on="1"/>
      </contour>
    </TTGlyph>
    <TTGlyph name="Ygrave" xMin="20" yMin="0" xMax="530" yMax="909">
      <contour>
        <pt x="390" y="729" on="1"/>
        <pt x="359" y="681" on="1"/>
        <pt x="333" y="692" on="0"/>
        <pt x="265" y="725" on="0"/>
        <pt x="196" y="762" on="0"/>
        <pt x="130" y="801" on="0"/>
        <pt x="104" y="819" on="1"/>
        <pt x="179" y="909" on="1"/>
        <pt x="200" y="888" on="0"/>
        <pt x="256" y="838" on="0"/>
        <pt x="314" y="789" on="0"/>
        <pt x="370" y="744" on="0"/>
      </contour>
      <contour>
        <pt x="334" y="0" on="1"/>
        <pt x="218" y="0" on="1"/>
        <pt x="218" y="204" on="1"/>
        <pt x="20" y="618" on="1"/>
        <pt x="142" y="622" on="1"/>
        <pt x="279" y="313" on="1"/>
        <pt x="412" y="620" on="1"/>
        <pt x="530" y="620" on="1"/>
        <pt x="334" y="206" on="1"/>
      </contour>
    </TTGlyph>
    <TTGlyph name="Z" xMin="63" yMin="0" xMax="494" yMax="620">
      <contour>
        <pt x="486" y="0" on="1"/>
        <pt x="63" y="0" on="1"/>
        <pt x="63" y="97" on="1"/>
        <pt x="361" y="522" on="1"/>
        <pt x="65" y="520" on="1"/>
        <pt x="73" y="620" on="1"/>
        <pt x="486" y="620" on="1"/>
        <pt x="486" y="523" on="1"/>
        <pt x="189" y="98" on="1"/>
        <pt x="494" y="100" on="1"/>
      </contour>
    </TTGlyph>
    <TTGlyph name="Zacute" xMin="63" yMin="0" xMax="494" yMax="907">
      <contour>
        <pt x="169" y="730" on="1"/>
        <pt x="191" y="744" on="0"/>
        <pt x="245" y="787" on="0"/>
        <pt x="301" y="835" on="0"/>
        <pt x="354" y="885" on="0"/>
        <pt x="374" y="907" on="1"/>
        <pt x="456" y="823" on="1"/>
        <pt x="431" y="803" on="0"/>
        <pt x="364" y="761" on="0"/>
        <pt x="294" y="723" on="0"/>
        <pt x="224" y="691" on="0"/>
        <pt x="197" y="681" on="1"/>
      </contour>
      <contour>
        <pt x="486" y="0" on="1"/>
        <pt x="63" y="0" on="1"/>
        <pt x="63" y="97" on="1"/>
        <pt x="361" y="522" on="1"/>
        <pt x="65" y="520" on="1"/>
        <pt x="73" y="620" on="1"/>
        <pt x="486" y="620" on="1"/>
        <pt x="486" y="523" on="1"/>
        <pt x="189" y="98" on="1"/>
        <pt x="494" y="100" on="1"/>
      </contour>
    </TTGlyph>
    <TTGlyph name="Zcaron" xMin="63" yMin="0" xMax="494" yMax="882">
      <contour>
        <pt x="297" y="676" on="1"/>
        <pt x="290" y="676" on="1"/>
        <pt x="106" y="816" on="1"/>
        <pt x="175" y="882" on="1"/>
        <pt x="302" y="780" on="1"/>
        <pt x="426" y="881" on="1"/>
        <pt x="479" y="829" on="1"/>
      </contour>
      <contour>
        <pt x="486" y="0" on="1"/>
        <pt x="63" y="0" on="1"/>
        <pt x="63" y="97" on="1"/>
        <pt x="361" y="522" on="1"/>
        <pt x="65" y="520" on="1"/>
        <pt x="73" y="620" on="1"/>
        <pt x="486" y="620" on="1"/>
        <pt x="486" y="523" on="1"/>
        <pt x="189" y="98" on="1"/>
        <pt x="494" y="100" on="1"/>
      </contour>
    </TTGlyph>
    <TTGlyph name="Zdotaccent" xMin="63" yMin="0" xMax="494" yMax="835">
      <contour>
        <pt x="347" y="695" on="1"/>
        <pt x="232" y="695" on="1"/>
        <pt x="236" y="835" on="1"/>
        <pt x="352" y="835" on="1"/>
      </contour>
      <contour>
        <pt x="486" y="0" on="1"/>
        <pt x="63" y="0" on="1"/>
        <pt x="63" y="97" on="1"/>
        <pt x="361" y="522" on="1"/>
        <pt x="65" y="520" on="1"/>
        <pt x="73" y="620" on="1"/>
        <pt x="486" y="620" on="1"/>
        <pt x="486" y="523" on="1"/>
        <pt x="189" y="98" on="1"/>
        <pt x="494" y="100" on="1"/>
      </contour>
    </TTGlyph>
    <TTGlyph name="a" xMin="59" yMin="-13" xMax="483" yMax="508">
      <contour>
        <pt x="253" y="73" on="1"/>
        <pt x="281" y="73" on="0"/>
        <pt x="341" y="94" on="0"/>
        <pt x="367" y="112" on="1"/>
        <pt x="366" y="134" on="0"/>
        <pt x="365" y="184" on="0"/>
        <pt x="364" y="215" on="1"/>
        <pt x="345" y="217" on="0"/>
        <pt x="309" y="219" on="0"/>
        <pt x="294" y="219" on="1"/>
        <pt x="222" y="219" on="0"/>
        <pt x="169" y="177" on="0"/>
        <pt x="169" y="143" on="1"/>
        <pt x="169" y="110" on="0"/>
        <pt x="215" y="73" on="0"/>
      </contour>
      <contour>
        <pt x="381" y="-3" on="1"/>
        <pt x="380" y="0" on="0"/>
        <pt x="374" y="39" on="0"/>
        <pt x="372" y="57" on="1"/>
        <pt x="344" y="29" on="0"/>
        <pt x="263" y="-13" on="0"/>
        <pt x="209" y="-13" on="1"/>
        <pt x="143" y="-13" on="0"/>
        <pt x="59" y="57" on="0"/>
        <pt x="59" y="117" on="1"/>
        <pt x="59" y="152" on="0"/>
        <pt x="92" y="215" on="0"/>
        <pt x="159" y="262" on="0"/>
        <pt x="262" y="289" on="0"/>
        <pt x="333" y="289" on="1"/>
        <pt x="340" y="289" on="0"/>
        <pt x="356" y="289" on="0"/>
        <pt x="363" y="288" on="1"/>
        <pt x="361" y="324" on="0"/>
        <pt x="334" y="370" on="0"/>
        <pt x="273" y="398" on="0"/>
        <pt x="168" y="411" on="0"/>
        <pt x="88" y="414" on="1"/>
        <pt x="99" y="508" on="1"/>
        <pt x="211" y="506" on="0"/>
        <pt x="357" y="479" on="0"/>
        <pt x="441" y="418" on="0"/>
        <pt x="474" y="319" on="0"/>
        <pt x="474" y="247" on="1"/>
        <pt x="474" y="175" on="0"/>
        <pt x="479" y="53" on="0"/>
        <pt x="483" y="2" on="1"/>
      </contour>
    </TTGlyph>
    <TTGlyph name="aacute" xMin="59" yMin="-13" xMax="483" yMax="792">
      <contour>
        <pt x="153" y="615" on="1"/>
        <pt x="175" y="629" on="0"/>
        <pt x="229" y="672" on="0"/>
        <pt x="285" y="720" on="0"/>
        <pt x="338" y="770" on="0"/>
        <pt x="358" y="792" on="1"/>
        <pt x="440" y="708" on="1"/>
        <pt x="415" y="688" on="0"/>
        <pt x="348" y="646" on="0"/>
        <pt x="278" y="608" on="0"/>
        <pt x="208" y="576" on="0"/>
        <pt x="181" y="566" on="1"/>
      </contour>
      <contour>
        <pt x="253" y="73" on="1"/>
        <pt x="281" y="73" on="0"/>
        <pt x="341" y="94" on="0"/>
        <pt x="367" y="112" on="1"/>
        <pt x="366" y="134" on="0"/>
        <pt x="365" y="184" on="0"/>
        <pt x="364" y="215" on="1"/>
        <pt x="345" y="217" on="0"/>
        <pt x="309" y="219" on="0"/>
        <pt x="294" y="219" on="1"/>
        <pt x="222" y="219" on="0"/>
        <pt x="169" y="177" on="0"/>
        <pt x="169" y="143" on="1"/>
        <pt x="169" y="110" on="0"/>
        <pt x="215" y="73" on="0"/>
      </contour>
      <contour>
        <pt x="381" y="-3" on="1"/>
        <pt x="380" y="0" on="0"/>
        <pt x="374" y="39" on="0"/>
        <pt x="372" y="57" on="1"/>
        <pt x="344" y="29" on="0"/>
        <pt x="263" y="-13" on="0"/>
        <pt x="209" y="-13" on="1"/>
        <pt x="143" y="-13" on="0"/>
        <pt x="59" y="57" on="0"/>
        <pt x="59" y="117" on="1"/>
        <pt x="59" y="152" on="0"/>
        <pt x="92" y="215" on="0"/>
        <pt x="159" y="262" on="0"/>
        <pt x="262" y="289" on="0"/>
        <pt x="333" y="289" on="1"/>
        <pt x="340" y="289" on="0"/>
        <pt x="356" y="289" on="0"/>
        <pt x="363" y="288" on="1"/>
        <pt x="361" y="324" on="0"/>
        <pt x="334" y="370" on="0"/>
        <pt x="273" y="398" on="0"/>
        <pt x="168" y="411" on="0"/>
        <pt x="88" y="414" on="1"/>
        <pt x="99" y="508" on="1"/>
        <pt x="211" y="506" on="0"/>
        <pt x="357" y="479" on="0"/>
        <pt x="441" y="418" on="0"/>
        <pt x="474" y="319" on="0"/>
        <pt x="474" y="247" on="1"/>
        <pt x="474" y="175" on="0"/>
        <pt x="479" y="53" on="0"/>
        <pt x="483" y="2" on="1"/>
      </contour>
    </TTGlyph>
    <TTGlyph name="abreve" xMin="59" yMin="-13" xMax="483" yMax="762">
      <contour>
        <pt x="272" y="571" on="1"/>
        <pt x="218" y="571" on="0"/>
        <pt x="118" y="645" on="0"/>
        <pt x="78" y="717" on="1"/>
        <pt x="155" y="762" on="1"/>
        <pt x="189" y="708" on="0"/>
        <pt x="248" y="660" on="0"/>
        <pt x="282" y="660" on="1"/>
        <pt x="318" y="660" on="0"/>
        <pt x="378" y="711" on="0"/>
        <pt x="410" y="757" on="1"/>
        <pt x="473" y="725" on="1"/>
        <pt x="431" y="654" on="0"/>
        <pt x="328" y="571" on="0"/>
      </contour>
      <contour>
        <pt x="253" y="73" on="1"/>
        <pt x="281" y="73" on="0"/>
        <pt x="341" y="94" on="0"/>
        <pt x="367" y="112" on="1"/>
        <pt x="366" y="134" on="0"/>
        <pt x="365" y="184" on="0"/>
        <pt x="364" y="215" on="1"/>
        <pt x="345" y="217" on="0"/>
        <pt x="309" y="219" on="0"/>
        <pt x="294" y="219" on="1"/>
        <pt x="222" y="219" on="0"/>
        <pt x="169" y="177" on="0"/>
        <pt x="169" y="143" on="1"/>
        <pt x="169" y="110" on="0"/>
        <pt x="215" y="73" on="0"/>
      </contour>
      <contour>
        <pt x="381" y="-3" on="1"/>
        <pt x="380" y="0" on="0"/>
        <pt x="374" y="39" on="0"/>
        <pt x="372" y="57" on="1"/>
        <pt x="344" y="29" on="0"/>
        <pt x="263" y="-13" on="0"/>
        <pt x="209" y="-13" on="1"/>
        <pt x="143" y="-13" on="0"/>
        <pt x="59" y="57" on="0"/>
        <pt x="59" y="117" on="1"/>
        <pt x="59" y="152" on="0"/>
        <pt x="92" y="215" on="0"/>
        <pt x="159" y="262" on="0"/>
        <pt x="262" y="289" on="0"/>
        <pt x="333" y="289" on="1"/>
        <pt x="340" y="289" on="0"/>
        <pt x="356" y="289" on="0"/>
        <pt x="363" y="288" on="1"/>
        <pt x="361" y="324" on="0"/>
        <pt x="334" y="370" on="0"/>
        <pt x="273" y="398" on="0"/>
        <pt x="168" y="411" on="0"/>
        <pt x="88" y="414" on="1"/>
        <pt x="99" y="508" on="1"/>
        <pt x="211" y="506" on="0"/>
        <pt x="357" y="479" on="0"/>
        <pt x="441" y="418" on="0"/>
        <pt x="474" y="319" on="0"/>
        <pt x="474" y="247" on="1"/>
        <pt x="474" y="175" on="0"/>
        <pt x="479" y="53" on="0"/>
        <pt x="483" y="2" on="1"/>
      </contour>
    </TTGlyph>
    <TTGlyph name="acircumflex" xMin="59" yMin="-13" xMax="483" yMax="773">
      <contour>
        <pt x="390" y="568" on="1"/>
        <pt x="263" y="670" on="1"/>
        <pt x="139" y="569" on="1"/>
        <pt x="85" y="620" on="1"/>
        <pt x="267" y="773" on="1"/>
        <pt x="274" y="773" on="1"/>
        <pt x="458" y="633" on="1"/>
      </contour>
      <contour>
        <pt x="253" y="73" on="1"/>
        <pt x="281" y="73" on="0"/>
        <pt x="341" y="94" on="0"/>
        <pt x="367" y="112" on="1"/>
        <pt x="366" y="134" on="0"/>
        <pt x="365" y="184" on="0"/>
        <pt x="364" y="215" on="1"/>
        <pt x="345" y="217" on="0"/>
        <pt x="309" y="219" on="0"/>
        <pt x="294" y="219" on="1"/>
        <pt x="222" y="219" on="0"/>
        <pt x="169" y="177" on="0"/>
        <pt x="169" y="143" on="1"/>
        <pt x="169" y="110" on="0"/>
        <pt x="215" y="73" on="0"/>
      </contour>
      <contour>
        <pt x="381" y="-3" on="1"/>
        <pt x="380" y="0" on="0"/>
        <pt x="374" y="39" on="0"/>
        <pt x="372" y="57" on="1"/>
        <pt x="344" y="29" on="0"/>
        <pt x="263" y="-13" on="0"/>
        <pt x="209" y="-13" on="1"/>
        <pt x="143" y="-13" on="0"/>
        <pt x="59" y="57" on="0"/>
        <pt x="59" y="117" on="1"/>
        <pt x="59" y="152" on="0"/>
        <pt x="92" y="215" on="0"/>
        <pt x="159" y="262" on="0"/>
        <pt x="262" y="289" on="0"/>
        <pt x="333" y="289" on="1"/>
        <pt x="340" y="289" on="0"/>
        <pt x="356" y="289" on="0"/>
        <pt x="363" y="288" on="1"/>
        <pt x="361" y="324" on="0"/>
        <pt x="334" y="370" on="0"/>
        <pt x="273" y="398" on="0"/>
        <pt x="168" y="411" on="0"/>
        <pt x="88" y="414" on="1"/>
        <pt x="99" y="508" on="1"/>
        <pt x="211" y="506" on="0"/>
        <pt x="357" y="479" on="0"/>
        <pt x="441" y="418" on="0"/>
        <pt x="474" y="319" on="0"/>
        <pt x="474" y="247" on="1"/>
        <pt x="474" y="175" on="0"/>
        <pt x="479" y="53" on="0"/>
        <pt x="483" y="2" on="1"/>
      </contour>
    </TTGlyph>
    <TTGlyph name="acute" xMin="144" yMin="559" xMax="431" yMax="785">
      <contour>
        <pt x="144" y="608" on="1"/>
        <pt x="166" y="622" on="0"/>
        <pt x="220" y="665" on="0"/>
        <pt x="276" y="713" on="0"/>
        <pt x="329" y="763" on="0"/>
        <pt x="349" y="785" on="1"/>
        <pt x="431" y="701" on="1"/>
        <pt x="406" y="681" on="0"/>
        <pt x="339" y="639" on="0"/>
        <pt x="269" y="601" on="0"/>
        <pt x="199" y="569" on="0"/>
        <pt x="172" y="559" on="1"/>
      </contour>
    </TTGlyph>
    <TTGlyph name="adieresis" xMin="59" yMin="-13" xMax="483" yMax="720">
      <contour>
        <pt x="439" y="580" on="1"/>
        <pt x="327" y="580" on="1"/>
        <pt x="329" y="720" on="1"/>
        <pt x="442" y="720" on="1"/>
      </contour>
      <contour>
        <pt x="217" y="580" on="1"/>
        <pt x="104" y="580" on="1"/>
        <pt x="106" y="720" on="1"/>
        <pt x="220" y="720" on="1"/>
      </contour>
      <contour>
        <pt x="253" y="73" on="1"/>
        <pt x="281" y="73" on="0"/>
        <pt x="341" y="94" on="0"/>
        <pt x="367" y="112" on="1"/>
        <pt x="366" y="134" on="0"/>
        <pt x="365" y="184" on="0"/>
        <pt x="364" y="215" on="1"/>
        <pt x="345" y="217" on="0"/>
        <pt x="309" y="219" on="0"/>
        <pt x="294" y="219" on="1"/>
        <pt x="222" y="219" on="0"/>
        <pt x="169" y="177" on="0"/>
        <pt x="169" y="143" on="1"/>
        <pt x="169" y="110" on="0"/>
        <pt x="215" y="73" on="0"/>
      </contour>
      <contour>
        <pt x="381" y="-3" on="1"/>
        <pt x="380" y="0" on="0"/>
        <pt x="374" y="39" on="0"/>
        <pt x="372" y="57" on="1"/>
        <pt x="344" y="29" on="0"/>
        <pt x="263" y="-13" on="0"/>
        <pt x="209" y="-13" on="1"/>
        <pt x="143" y="-13" on="0"/>
        <pt x="59" y="57" on="0"/>
        <pt x="59" y="117" on="1"/>
        <pt x="59" y="152" on="0"/>
        <pt x="92" y="215" on="0"/>
        <pt x="159" y="262" on="0"/>
        <pt x="262" y="289" on="0"/>
        <pt x="333" y="289" on="1"/>
        <pt x="340" y="289" on="0"/>
        <pt x="356" y="289" on="0"/>
        <pt x="363" y="288" on="1"/>
        <pt x="361" y="324" on="0"/>
        <pt x="334" y="370" on="0"/>
        <pt x="273" y="398" on="0"/>
        <pt x="168" y="411" on="0"/>
        <pt x="88" y="414" on="1"/>
        <pt x="99" y="508" on="1"/>
        <pt x="211" y="506" on="0"/>
        <pt x="357" y="479" on="0"/>
        <pt x="441" y="418" on="0"/>
        <pt x="474" y="319" on="0"/>
        <pt x="474" y="247" on="1"/>
        <pt x="474" y="175" on="0"/>
        <pt x="479" y="53" on="0"/>
        <pt x="483" y="2" on="1"/>
      </contour>
    </TTGlyph>
    <TTGlyph name="ae" xMin="27" yMin="-7" xMax="523" yMax="506">
      <contour>
        <pt x="506" y="-7" on="1"/>
        <pt x="494" y="-7" on="1"/>
        <pt x="399" y="-7" on="0"/>
        <pt x="289" y="28" on="0"/>
        <pt x="262" y="61" on="1"/>
        <pt x="242" y="34" on="0"/>
        <pt x="178" y="-7" on="0"/>
        <pt x="137" y="-7" on="1"/>
        <pt x="86" y="-7" on="0"/>
        <pt x="27" y="60" on="0"/>
        <pt x="27" y="120" on="1"/>
        <pt x="27" y="198" on="0"/>
        <pt x="119" y="286" on="0"/>
        <pt x="223" y="287" on="1"/>
        <pt x="222" y="323" on="0"/>
        <pt x="208" y="369" on="0"/>
        <pt x="170" y="395" on="0"/>
        <pt x="101" y="407" on="0"/>
        <pt x="47" y="410" on="1"/>
        <pt x="55" y="503" on="1"/>
        <pt x="143" y="499" on="0"/>
        <pt x="243" y="468" on="0"/>
        <pt x="266" y="431" on="1"/>
        <pt x="286" y="468" on="0"/>
        <pt x="346" y="506" on="0"/>
        <pt x="386" y="506" on="1"/>
        <pt x="453" y="506" on="0"/>
        <pt x="523" y="384" on="0"/>
        <pt x="523" y="276" on="1"/>
        <pt x="523" y="263" on="0"/>
        <pt x="522" y="237" on="0"/>
        <pt x="521" y="224" on="1"/>
        <pt x="316" y="219" on="1"/>
        <pt x="316" y="182" on="0"/>
        <pt x="330" y="131" on="0"/>
        <pt x="372" y="101" on="0"/>
        <pt x="450" y="86" on="0"/>
        <pt x="514" y="85" on="1"/>
      </contour>
      <contour>
        <pt x="372" y="414" on="1"/>
        <pt x="342" y="414" on="0"/>
        <pt x="317" y="356" on="0"/>
        <pt x="316" y="286" on="1"/>
        <pt x="420" y="288" on="1"/>
        <pt x="419" y="350" on="0"/>
        <pt x="398" y="414" on="0"/>
      </contour>
      <contour>
        <pt x="179" y="79" on="1"/>
        <pt x="196" y="79" on="0"/>
        <pt x="225" y="95" on="0"/>
        <pt x="236" y="109" on="1"/>
        <pt x="229" y="133" on="0"/>
        <pt x="223" y="189" on="0"/>
        <pt x="223" y="221" on="1"/>
        <pt x="221" y="221" on="0"/>
        <pt x="215" y="221" on="0"/>
        <pt x="213" y="221" on="1"/>
        <pt x="167" y="221" on="0"/>
        <pt x="130" y="181" on="0"/>
        <pt x="130" y="146" on="1"/>
        <pt x="130" y="113" on="0"/>
        <pt x="155" y="79" on="0"/>
      </contour>
    </TTGlyph>
    <TTGlyph name="aeacute" xMin="27" yMin="-7" xMax="523" yMax="786">
      <contour>
        <pt x="158" y="609" on="1"/>
        <pt x="180" y="623" on="0"/>
        <pt x="234" y="666" on="0"/>
        <pt x="290" y="714" on="0"/>
        <pt x="343" y="764" on="0"/>
        <pt x="363" y="786" on="1"/>
        <pt x="445" y="702" on="1"/>
        <pt x="420" y="682" on="0"/>
        <pt x="353" y="640" on="0"/>
        <pt x="283" y="602" on="0"/>
        <pt x="213" y="570" on="0"/>
        <pt x="186" y="560" on="1"/>
      </contour>
      <contour>
        <pt x="506" y="-7" on="1"/>
        <pt x="494" y="-7" on="1"/>
        <pt x="399" y="-7" on="0"/>
        <pt x="289" y="28" on="0"/>
        <pt x="262" y="61" on="1"/>
        <pt x="242" y="34" on="0"/>
        <pt x="178" y="-7" on="0"/>
        <pt x="137" y="-7" on="1"/>
        <pt x="86" y="-7" on="0"/>
        <pt x="27" y="60" on="0"/>
        <pt x="27" y="120" on="1"/>
        <pt x="27" y="198" on="0"/>
        <pt x="119" y="286" on="0"/>
        <pt x="223" y="287" on="1"/>
        <pt x="222" y="323" on="0"/>
        <pt x="208" y="369" on="0"/>
        <pt x="170" y="395" on="0"/>
        <pt x="101" y="407" on="0"/>
        <pt x="47" y="410" on="1"/>
        <pt x="55" y="503" on="1"/>
        <pt x="143" y="499" on="0"/>
        <pt x="243" y="468" on="0"/>
        <pt x="266" y="431" on="1"/>
        <pt x="286" y="468" on="0"/>
        <pt x="346" y="506" on="0"/>
        <pt x="386" y="506" on="1"/>
        <pt x="453" y="506" on="0"/>
        <pt x="523" y="384" on="0"/>
        <pt x="523" y="276" on="1"/>
        <pt x="523" y="263" on="0"/>
        <pt x="522" y="237" on="0"/>
        <pt x="521" y="224" on="1"/>
        <pt x="316" y="219" on="1"/>
        <pt x="316" y="182" on="0"/>
        <pt x="330" y="131" on="0"/>
        <pt x="372" y="101" on="0"/>
        <pt x="450" y="86" on="0"/>
        <pt x="514" y="85" on="1"/>
      </contour>
      <contour>
        <pt x="372" y="414" on="1"/>
        <pt x="342" y="414" on="0"/>
        <pt x="317" y="356" on="0"/>
        <pt x="316" y="286" on="1"/>
        <pt x="420" y="288" on="1"/>
        <pt x="419" y="350" on="0"/>
        <pt x="398" y="414" on="0"/>
      </contour>
      <contour>
        <pt x="179" y="79" on="1"/>
        <pt x="196" y="79" on="0"/>
        <pt x="225" y="95" on="0"/>
        <pt x="236" y="109" on="1"/>
        <pt x="229" y="133" on="0"/>
        <pt x="223" y="189" on="0"/>
        <pt x="223" y="221" on="1"/>
        <pt x="221" y="221" on="0"/>
        <pt x="215" y="221" on="0"/>
        <pt x="213" y="221" on="1"/>
        <pt x="167" y="221" on="0"/>
        <pt x="130" y="181" on="0"/>
        <pt x="130" y="146" on="1"/>
        <pt x="130" y="113" on="0"/>
        <pt x="155" y="79" on="0"/>
      </contour>
    </TTGlyph>
    <TTGlyph name="agrave" xMin="59" yMin="-13" xMax="483" yMax="791">
      <contour>
        <pt x="384" y="611" on="1"/>
        <pt x="353" y="563" on="1"/>
        <pt x="327" y="574" on="0"/>
        <pt x="259" y="607" on="0"/>
        <pt x="190" y="644" on="0"/>
        <pt x="124" y="683" on="0"/>
        <pt x="98" y="701" on="1"/>
        <pt x="173" y="791" on="1"/>
        <pt x="194" y="770" on="0"/>
        <pt x="250" y="720" on="0"/>
        <pt x="308" y="671" on="0"/>
        <pt x="364" y="626" on="0"/>
      </contour>
      <contour>
        <pt x="253" y="73" on="1"/>
        <pt x="281" y="73" on="0"/>
        <pt x="341" y="94" on="0"/>
        <pt x="367" y="112" on="1"/>
        <pt x="366" y="134" on="0"/>
        <pt x="365" y="184" on="0"/>
        <pt x="364" y="215" on="1"/>
        <pt x="345" y="217" on="0"/>
        <pt x="309" y="219" on="0"/>
        <pt x="294" y="219" on="1"/>
        <pt x="222" y="219" on="0"/>
        <pt x="169" y="177" on="0"/>
        <pt x="169" y="143" on="1"/>
        <pt x="169" y="110" on="0"/>
        <pt x="215" y="73" on="0"/>
      </contour>
      <contour>
        <pt x="381" y="-3" on="1"/>
        <pt x="380" y="0" on="0"/>
        <pt x="374" y="39" on="0"/>
        <pt x="372" y="57" on="1"/>
        <pt x="344" y="29" on="0"/>
        <pt x="263" y="-13" on="0"/>
        <pt x="209" y="-13" on="1"/>
        <pt x="143" y="-13" on="0"/>
        <pt x="59" y="57" on="0"/>
        <pt x="59" y="117" on="1"/>
        <pt x="59" y="152" on="0"/>
        <pt x="92" y="215" on="0"/>
        <pt x="159" y="262" on="0"/>
        <pt x="262" y="289" on="0"/>
        <pt x="333" y="289" on="1"/>
        <pt x="340" y="289" on="0"/>
        <pt x="356" y="289" on="0"/>
        <pt x="363" y="288" on="1"/>
        <pt x="361" y="324" on="0"/>
        <pt x="334" y="370" on="0"/>
        <pt x="273" y="398" on="0"/>
        <pt x="168" y="411" on="0"/>
        <pt x="88" y="414" on="1"/>
        <pt x="99" y="508" on="1"/>
        <pt x="211" y="506" on="0"/>
        <pt x="357" y="479" on="0"/>
        <pt x="441" y="418" on="0"/>
        <pt x="474" y="319" on="0"/>
        <pt x="474" y="247" on="1"/>
        <pt x="474" y="175" on="0"/>
        <pt x="479" y="53" on="0"/>
        <pt x="483" y="2" on="1"/>
      </contour>
    </TTGlyph>
    <TTGlyph name="amacron" xMin="59" yMin="-13" xMax="483" yMax="698">
      <contour>
        <pt x="444" y="698" on="1"/>
        <pt x="444" y="603" on="1"/>
        <pt x="98" y="603" on="1"/>
        <pt x="98" y="698" on="1"/>
      </contour>
      <contour>
        <pt x="253" y="73" on="1"/>
        <pt x="281" y="73" on="0"/>
        <pt x="341" y="94" on="0"/>
        <pt x="367" y="112" on="1"/>
        <pt x="366" y="134" on="0"/>
        <pt x="365" y="184" on="0"/>
        <pt x="364" y="215" on="1"/>
        <pt x="345" y="217" on="0"/>
        <pt x="309" y="219" on="0"/>
        <pt x="294" y="219" on="1"/>
        <pt x="222" y="219" on="0"/>
        <pt x="169" y="177" on="0"/>
        <pt x="169" y="143" on="1"/>
        <pt x="169" y="110" on="0"/>
        <pt x="215" y="73" on="0"/>
      </contour>
      <contour>
        <pt x="381" y="-3" on="1"/>
        <pt x="380" y="0" on="0"/>
        <pt x="374" y="39" on="0"/>
        <pt x="372" y="57" on="1"/>
        <pt x="344" y="29" on="0"/>
        <pt x="263" y="-13" on="0"/>
        <pt x="209" y="-13" on="1"/>
        <pt x="143" y="-13" on="0"/>
        <pt x="59" y="57" on="0"/>
        <pt x="59" y="117" on="1"/>
        <pt x="59" y="152" on="0"/>
        <pt x="92" y="215" on="0"/>
        <pt x="159" y="262" on="0"/>
        <pt x="262" y="289" on="0"/>
        <pt x="333" y="289" on="1"/>
        <pt x="340" y="289" on="0"/>
        <pt x="356" y="289" on="0"/>
        <pt x="363" y="288" on="1"/>
        <pt x="361" y="324" on="0"/>
        <pt x="334" y="370" on="0"/>
        <pt x="273" y="398" on="0"/>
        <pt x="168" y="411" on="0"/>
        <pt x="88" y="414" on="1"/>
        <pt x="99" y="508" on="1"/>
        <pt x="211" y="506" on="0"/>
        <pt x="357" y="479" on="0"/>
        <pt x="441" y="418" on="0"/>
        <pt x="474" y="319" on="0"/>
        <pt x="474" y="247" on="1"/>
        <pt x="474" y="175" on="0"/>
        <pt x="479" y="53" on="0"/>
        <pt x="483" y="2" on="1"/>
      </contour>
    </TTGlyph>
    <TTGlyph name="ampersand" xMin="30" yMin="-14" xMax="527" yMax="633">
      <contour>
        <pt x="527" y="55" on="1"/>
        <pt x="436" y="-14" on="1"/>
        <pt x="415" y="14" on="0"/>
        <pt x="376" y="65" on="0"/>
        <pt x="358" y="87" on="1"/>
        <pt x="321" y="36" on="0"/>
        <pt x="230" y="-13" on="0"/>
        <pt x="183" y="-13" on="1"/>
        <pt x="107" y="-13" on="0"/>
        <pt x="30" y="71" on="0"/>
        <pt x="30" y="133" on="1"/>
        <pt x="30" y="193" on="0"/>
        <pt x="98" y="288" on="0"/>
        <pt x="163" y="328" on="1"/>
        <pt x="135" y="365" on="0"/>
        <pt x="107" y="426" on="0"/>
        <pt x="107" y="457" on="1"/>
        <pt x="107" y="489" on="0"/>
        <pt x="134" y="552" on="0"/>
        <pt x="195" y="602" on="0"/>
        <pt x="299" y="633" on="0"/>
        <pt x="375" y="633" on="1"/>
        <pt x="388" y="633" on="1"/>
        <pt x="395" y="531" on="1"/>
        <pt x="385" y="532" on="0"/>
        <pt x="366" y="532" on="0"/>
        <pt x="358" y="532" on="1"/>
        <pt x="275" y="532" on="0"/>
        <pt x="219" y="491" on="0"/>
        <pt x="219" y="459" on="1"/>
        <pt x="219" y="428" on="0"/>
        <pt x="291" y="339" on="0"/>
        <pt x="365" y="252" on="1"/>
        <pt x="378" y="288" on="0"/>
        <pt x="403" y="368" on="0"/>
        <pt x="410" y="406" on="1"/>
        <pt x="504" y="395" on="1"/>
        <pt x="488" y="337" on="0"/>
        <pt x="443" y="228" on="0"/>
        <pt x="421" y="186" on="1"/>
        <pt x="444" y="158" on="0"/>
        <pt x="498" y="92" on="0"/>
      </contour>
      <contour>
        <pt x="207" y="77" on="1"/>
        <pt x="235" y="77" on="0"/>
        <pt x="285" y="112" on="0"/>
        <pt x="308" y="149" on="1"/>
        <pt x="278" y="186" on="0"/>
        <pt x="226" y="249" on="0"/>
        <pt x="204" y="275" on="1"/>
        <pt x="170" y="248" on="0"/>
        <pt x="136" y="188" on="0"/>
        <pt x="136" y="157" on="1"/>
        <pt x="136" y="123" on="0"/>
        <pt x="172" y="77" on="0"/>
      </contour>
    </TTGlyph>
    <TTGlyph name="aogonek" xMin="59" yMin="-222" xMax="483" yMax="508">
      <contour>
        <pt x="461" y="-222" on="1"/>
        <pt x="350" y="-217" on="0"/>
        <pt x="256" y="-160" on="0"/>
        <pt x="256" y="-120" on="1"/>
        <pt x="256" y="-90" on="0"/>
        <pt x="314" y="-26" on="0"/>
        <pt x="379" y="9" on="1"/>
        <pt x="378" y="22" on="0"/>
        <pt x="371" y="60" on="0"/>
        <pt x="369" y="75" on="1"/>
        <pt x="340" y="40" on="0"/>
        <pt x="256" y="-13" on="0"/>
        <pt x="206" y="-13" on="1"/>
        <pt x="141" y="-13" on="0"/>
        <pt x="59" y="57" on="0"/>
        <pt x="59" y="117" on="1"/>
        <pt x="59" y="152" on="0"/>
        <pt x="92" y="215" on="0"/>
        <pt x="159" y="262" on="0"/>
        <pt x="262" y="289" on="0"/>
        <pt x="333" y="289" on="1"/>
        <pt x="340" y="289" on="0"/>
        <pt x="356" y="289" on="0"/>
        <pt x="363" y="288" on="1"/>
        <pt x="361" y="324" on="0"/>
        <pt x="334" y="370" on="0"/>
        <pt x="273" y="398" on="0"/>
        <pt x="168" y="411" on="0"/>
        <pt x="88" y="414" on="1"/>
        <pt x="99" y="508" on="1"/>
        <pt x="211" y="506" on="0"/>
        <pt x="357" y="479" on="0"/>
        <pt x="441" y="418" on="0"/>
        <pt x="474" y="319" on="0"/>
        <pt x="474" y="247" on="1"/>
        <pt x="474" y="175" on="0"/>
        <pt x="479" y="53" on="0"/>
        <pt x="483" y="2" on="1"/>
        <pt x="413" y="-29" on="0"/>
        <pt x="361" y="-73" on="0"/>
        <pt x="361" y="-90" on="1"/>
        <pt x="361" y="-106" on="0"/>
        <pt x="410" y="-130" on="0"/>
        <pt x="470" y="-134" on="1"/>
      </contour>
      <contour>
        <pt x="250" y="73" on="1"/>
        <pt x="280" y="73" on="0"/>
        <pt x="343" y="103" on="0"/>
        <pt x="366" y="128" on="1"/>
        <pt x="365" y="147" on="0"/>
        <pt x="365" y="189" on="0"/>
        <pt x="364" y="215" on="1"/>
        <pt x="345" y="217" on="0"/>
        <pt x="309" y="219" on="0"/>
        <pt x="294" y="219" on="1"/>
        <pt x="222" y="219" on="0"/>
        <pt x="169" y="177" on="0"/>
        <pt x="169" y="143" on="1"/>
        <pt x="169" y="109" on="0"/>
        <pt x="213" y="73" on="0"/>
      </contour>
    </TTGlyph>
    <TTGlyph name="approxequal" xMin="47" yMin="94" xMax="497" yMax="505">
      <contour>
        <pt x="360" y="315" on="1"/>
        <pt x="331" y="315" on="0"/>
        <pt x="281" y="345" on="0"/>
        <pt x="239" y="381" on="0"/>
        <pt x="202" y="411" on="0"/>
        <pt x="185" y="411" on="1"/>
        <pt x="166" y="411" on="0"/>
        <pt x="131" y="356" on="0"/>
        <pt x="112" y="313" on="1"/>
        <pt x="47" y="341" on="1"/>
        <pt x="75" y="420" on="0"/>
        <pt x="146" y="505" on="0"/>
        <pt x="194" y="505" on="1"/>
        <pt x="223" y="505" on="0"/>
        <pt x="272" y="475" on="0"/>
        <pt x="313" y="439" on="0"/>
        <pt x="347" y="409" on="0"/>
        <pt x="363" y="409" on="1"/>
        <pt x="381" y="409" on="0"/>
        <pt x="412" y="461" on="0"/>
        <pt x="431" y="501" on="1"/>
        <pt x="497" y="473" on="1"/>
        <pt x="469" y="395" on="0"/>
        <pt x="406" y="315" on="0"/>
      </contour>
      <contour>
        <pt x="360" y="94" on="1"/>
        <pt x="331" y="94" on="0"/>
        <pt x="281" y="124" on="0"/>
        <pt x="239" y="160" on="0"/>
        <pt x="202" y="190" on="0"/>
        <pt x="186" y="190" on="1"/>
        <pt x="167" y="190" on="0"/>
        <pt x="132" y="137" on="0"/>
        <pt x="113" y="94" on="1"/>
        <pt x="47" y="121" on="1"/>
        <pt x="75" y="199" on="0"/>
        <pt x="146" y="284" on="0"/>
        <pt x="195" y="284" on="1"/>
        <pt x="224" y="284" on="0"/>
        <pt x="272" y="254" on="0"/>
        <pt x="313" y="219" on="0"/>
        <pt x="347" y="189" on="0"/>
        <pt x="363" y="189" on="1"/>
        <pt x="381" y="189" on="0"/>
        <pt x="413" y="240" on="0"/>
        <pt x="432" y="280" on="1"/>
        <pt x="497" y="252" on="1"/>
        <pt x="469" y="174" on="0"/>
        <pt x="406" y="94" on="0"/>
      </contour>
    </TTGlyph>
    <TTGlyph name="aring" xMin="59" yMin="-13" xMax="483" yMax="775">
      <contour>
        <pt x="271" y="775" on="1"/>
        <pt x="330" y="775" on="0"/>
        <pt x="405" y="712" on="0"/>
        <pt x="405" y="669" on="1"/>
        <pt x="405" y="621" on="0"/>
        <pt x="331" y="558" on="0"/>
        <pt x="271" y="558" on="1"/>
        <pt x="211" y="558" on="0"/>
        <pt x="137" y="620" on="0"/>
        <pt x="137" y="665" on="1"/>
        <pt x="137" y="711" on="0"/>
        <pt x="210" y="775" on="0"/>
      </contour>
      <contour>
        <pt x="253" y="73" on="1"/>
        <pt x="281" y="73" on="0"/>
        <pt x="341" y="94" on="0"/>
        <pt x="367" y="112" on="1"/>
        <pt x="366" y="134" on="0"/>
        <pt x="365" y="184" on="0"/>
        <pt x="364" y="215" on="1"/>
        <pt x="345" y="217" on="0"/>
        <pt x="309" y="219" on="0"/>
        <pt x="294" y="219" on="1"/>
        <pt x="222" y="219" on="0"/>
        <pt x="169" y="177" on="0"/>
        <pt x="169" y="143" on="1"/>
        <pt x="169" y="110" on="0"/>
        <pt x="215" y="73" on="0"/>
      </contour>
      <contour>
        <pt x="381" y="-3" on="1"/>
        <pt x="380" y="0" on="0"/>
        <pt x="374" y="39" on="0"/>
        <pt x="372" y="57" on="1"/>
        <pt x="344" y="29" on="0"/>
        <pt x="263" y="-13" on="0"/>
        <pt x="209" y="-13" on="1"/>
        <pt x="143" y="-13" on="0"/>
        <pt x="59" y="57" on="0"/>
        <pt x="59" y="117" on="1"/>
        <pt x="59" y="152" on="0"/>
        <pt x="92" y="215" on="0"/>
        <pt x="159" y="262" on="0"/>
        <pt x="262" y="289" on="0"/>
        <pt x="333" y="289" on="1"/>
        <pt x="340" y="289" on="0"/>
        <pt x="356" y="289" on="0"/>
        <pt x="363" y="288" on="1"/>
        <pt x="361" y="324" on="0"/>
        <pt x="334" y="370" on="0"/>
        <pt x="273" y="398" on="0"/>
        <pt x="168" y="411" on="0"/>
        <pt x="88" y="414" on="1"/>
        <pt x="99" y="508" on="1"/>
        <pt x="211" y="506" on="0"/>
        <pt x="357" y="479" on="0"/>
        <pt x="441" y="418" on="0"/>
        <pt x="474" y="319" on="0"/>
        <pt x="474" y="247" on="1"/>
        <pt x="474" y="175" on="0"/>
        <pt x="479" y="53" on="0"/>
        <pt x="483" y="2" on="1"/>
      </contour>
    </TTGlyph>
    <TTGlyph name="aringacute" xMin="59" yMin="-13" xMax="483" yMax="1037">
      <contour>
        <pt x="153" y="860" on="1"/>
        <pt x="175" y="874" on="0"/>
        <pt x="229" y="917" on="0"/>
        <pt x="285" y="965" on="0"/>
        <pt x="338" y="1015" on="0"/>
        <pt x="358" y="1037" on="1"/>
        <pt x="440" y="953" on="1"/>
        <pt x="415" y="933" on="0"/>
        <pt x="348" y="891" on="0"/>
        <pt x="278" y="853" on="0"/>
        <pt x="208" y="821" on="0"/>
        <pt x="181" y="811" on="1"/>
      </contour>
      <contour>
        <pt x="271" y="775" on="1"/>
        <pt x="330" y="775" on="0"/>
        <pt x="405" y="712" on="0"/>
        <pt x="405" y="669" on="1"/>
        <pt x="405" y="621" on="0"/>
        <pt x="331" y="558" on="0"/>
        <pt x="271" y="558" on="1"/>
        <pt x="211" y="558" on="0"/>
        <pt x="137" y="620" on="0"/>
        <pt x="137" y="665" on="1"/>
        <pt x="137" y="711" on="0"/>
        <pt x="210" y="775" on="0"/>
      </contour>
      <contour>
        <pt x="253" y="73" on="1"/>
        <pt x="281" y="73" on="0"/>
        <pt x="341" y="94" on="0"/>
        <pt x="367" y="112" on="1"/>
        <pt x="366" y="134" on="0"/>
        <pt x="365" y="184" on="0"/>
        <pt x="364" y="215" on="1"/>
        <pt x="345" y="217" on="0"/>
        <pt x="309" y="219" on="0"/>
        <pt x="294" y="219" on="1"/>
        <pt x="222" y="219" on="0"/>
        <pt x="169" y="177" on="0"/>
        <pt x="169" y="143" on="1"/>
        <pt x="169" y="110" on="0"/>
        <pt x="215" y="73" on="0"/>
      </contour>
      <contour>
        <pt x="381" y="-3" on="1"/>
        <pt x="380" y="0" on="0"/>
        <pt x="374" y="39" on="0"/>
        <pt x="372" y="57" on="1"/>
        <pt x="344" y="29" on="0"/>
        <pt x="263" y="-13" on="0"/>
        <pt x="209" y="-13" on="1"/>
        <pt x="143" y="-13" on="0"/>
        <pt x="59" y="57" on="0"/>
        <pt x="59" y="117" on="1"/>
        <pt x="59" y="152" on="0"/>
        <pt x="92" y="215" on="0"/>
        <pt x="159" y="262" on="0"/>
        <pt x="262" y="289" on="0"/>
        <pt x="333" y="289" on="1"/>
        <pt x="340" y="289" on="0"/>
        <pt x="356" y="289" on="0"/>
        <pt x="363" y="288" on="1"/>
        <pt x="361" y="324" on="0"/>
        <pt x="334" y="370" on="0"/>
        <pt x="273" y="398" on="0"/>
        <pt x="168" y="411" on="0"/>
        <pt x="88" y="414" on="1"/>
        <pt x="99" y="508" on="1"/>
        <pt x="211" y="506" on="0"/>
        <pt x="357" y="479" on="0"/>
        <pt x="441" y="418" on="0"/>
        <pt x="474" y="319" on="0"/>
        <pt x="474" y="247" on="1"/>
        <pt x="474" y="175" on="0"/>
        <pt x="479" y="53" on="0"/>
        <pt x="483" y="2" on="1"/>
      </contour>
    </TTGlyph>
    <TTGlyph name="asciicircum" xMin="49" yMin="147" xMax="507" yMax="503">
      <contour>
        <pt x="425" y="147" on="1"/>
        <pt x="271" y="359" on="1"/>
        <pt x="124" y="147" on="1"/>
        <pt x="49" y="203" on="1"/>
        <pt x="263" y="500" on="1"/>
        <pt x="283" y="503" on="1"/>
        <pt x="507" y="204" on="1"/>
      </contour>
    </TTGlyph>
    <TTGlyph name="asciitilde" xMin="30" yMin="189" xMax="520" yMax="421">
      <contour>
        <pt x="372" y="189" on="1"/>
        <pt x="343" y="189" on="0"/>
        <pt x="285" y="230" on="0"/>
        <pt x="234" y="278" on="0"/>
        <pt x="190" y="319" on="0"/>
        <pt x="174" y="319" on="1"/>
        <pt x="155" y="319" on="0"/>
        <pt x="119" y="250" on="0"/>
        <pt x="101" y="196" on="1"/>
        <pt x="30" y="223" on="1"/>
        <pt x="57" y="313" on="0"/>
        <pt x="132" y="421" on="0"/>
        <pt x="181" y="421" on="1"/>
        <pt x="210" y="421" on="0"/>
        <pt x="267" y="380" on="0"/>
        <pt x="317" y="332" on="0"/>
        <pt x="360" y="291" on="0"/>
        <pt x="376" y="291" on="1"/>
        <pt x="395" y="291" on="0"/>
        <pt x="430" y="360" on="0"/>
        <pt x="449" y="414" on="1"/>
        <pt x="520" y="387" on="1"/>
        <pt x="492" y="294" on="0"/>
        <pt x="421" y="189" on="0"/>
      </contour>
    </TTGlyph>
    <TTGlyph name="asterisk" xMin="50" yMin="244" xMax="511" yMax="694">
      <contour>
        <pt x="363" y="244" on="1"/>
        <pt x="269" y="361" on="1"/>
        <pt x="154" y="263" on="1"/>
        <pt x="98" y="313" on="1"/>
        <pt x="180" y="437" on="1"/>
        <pt x="50" y="518" on="1"/>
        <pt x="79" y="587" on="1"/>
        <pt x="224" y="546" on="1"/>
        <pt x="259" y="694" on="1"/>
        <pt x="334" y="689" on="1"/>
        <pt x="343" y="537" on="1"/>
        <pt x="494" y="549" on="1"/>
        <pt x="511" y="478" on="1"/>
        <pt x="369" y="422" on="1"/>
        <pt x="427" y="283" on="1"/>
      </contour>
    </TTGlyph>
    <TTGlyph name="asterisk.alt" xMin="41" yMin="225" xMax="510" yMax="702">
      <contour>
        <pt x="318" y="539" on="1"/>
        <pt x="264" y="550" on="1"/>
        <pt x="267" y="702" on="1"/>
        <pt x="365" y="682" on="1"/>
      </contour>
      <contour>
        <pt x="231" y="539" on="1"/>
        <pt x="195" y="496" on="1"/>
        <pt x="66" y="575" on="1"/>
        <pt x="131" y="651" on="1"/>
      </contour>
      <contour>
        <pt x="362" y="463" on="1"/>
        <pt x="343" y="516" on="1"/>
        <pt x="477" y="590" on="1"/>
        <pt x="510" y="495" on="1"/>
      </contour>
      <contour>
        <pt x="188" y="463" on="1"/>
        <pt x="207" y="410" on="1"/>
        <pt x="74" y="337" on="1"/>
        <pt x="41" y="431" on="1"/>
      </contour>
      <contour>
        <pt x="320" y="388" on="1"/>
        <pt x="356" y="431" on="1"/>
        <pt x="486" y="351" on="1"/>
        <pt x="420" y="276" on="1"/>
      </contour>
      <contour>
        <pt x="233" y="388" on="1"/>
        <pt x="286" y="377" on="1"/>
        <pt x="285" y="225" on="1"/>
        <pt x="184" y="244" on="1"/>
      </contour>
    </TTGlyph>
    <TTGlyph name="at" xMin="37" yMin="-157" xMax="505" yMax="685">
      <contour>
        <pt x="453" y="-151" on="1"/>
        <pt x="430" y="-154" on="0"/>
        <pt x="385" y="-157" on="0"/>
        <pt x="365" y="-157" on="1"/>
        <pt x="272" y="-157" on="0"/>
        <pt x="146" y="-98" on="0"/>
        <pt x="70" y="8" on="0"/>
        <pt x="37" y="155" on="0"/>
        <pt x="37" y="243" on="1"/>
        <pt x="37" y="343" on="0"/>
        <pt x="81" y="508" on="0"/>
        <pt x="157" y="622" on="0"/>
        <pt x="264" y="685" on="0"/>
        <pt x="326" y="685" on="1"/>
        <pt x="416" y="685" on="0"/>
        <pt x="499" y="566" on="0"/>
        <pt x="499" y="453" on="1"/>
        <pt x="499" y="376" on="0"/>
        <pt x="500" y="261" on="0"/>
        <pt x="502" y="174" on="0"/>
        <pt x="504" y="106" on="0"/>
        <pt x="505" y="75" on="1"/>
        <pt x="414" y="65" on="1"/>
        <pt x="413" y="68" on="0"/>
        <pt x="410" y="96" on="0"/>
        <pt x="409" y="109" on="1"/>
        <pt x="389" y="84" on="0"/>
        <pt x="346" y="59" on="0"/>
        <pt x="318" y="59" on="1"/>
        <pt x="269" y="59" on="0"/>
        <pt x="204" y="160" on="0"/>
        <pt x="204" y="243" on="1"/>
        <pt x="204" y="246" on="1"/>
        <pt x="204" y="308" on="0"/>
        <pt x="235" y="397" on="0"/>
        <pt x="287" y="453" on="0"/>
        <pt x="360" y="480" on="0"/>
        <pt x="402" y="480" on="1"/>
        <pt x="398" y="538" on="0"/>
        <pt x="357" y="596" on="0"/>
        <pt x="315" y="596" on="1"/>
        <pt x="279" y="596" on="0"/>
        <pt x="212" y="555" on="0"/>
        <pt x="161" y="472" on="0"/>
        <pt x="130" y="344" on="0"/>
        <pt x="130" y="257" on="1"/>
        <pt x="130" y="181" on="0"/>
        <pt x="151" y="59" on="0"/>
        <pt x="207" y="-25" on="0"/>
        <pt x="303" y="-70" on="0"/>
        <pt x="378" y="-70" on="1"/>
        <pt x="395" y="-70" on="0"/>
        <pt x="432" y="-67" on="0"/>
        <pt x="452" y="-65" on="1"/>
      </contour>
      <contour>
        <pt x="355" y="144" on="1"/>
        <pt x="369" y="144" on="0"/>
        <pt x="393" y="157" on="0"/>
        <pt x="403" y="167" on="1"/>
        <pt x="403" y="386" on="1"/>
        <pt x="396" y="387" on="0"/>
        <pt x="382" y="389" on="0"/>
        <pt x="376" y="389" on="1"/>
        <pt x="332" y="389" on="0"/>
        <pt x="303" y="321" on="0"/>
        <pt x="303" y="264" on="1"/>
        <pt x="303" y="204" on="0"/>
        <pt x="329" y="144" on="0"/>
      </contour>
    </TTGlyph>
    <TTGlyph name="atilde" xMin="59" yMin="-13" xMax="487" yMax="751">
      <contour>
        <pt x="348" y="575" on="1"/>
        <pt x="324" y="575" on="0"/>
        <pt x="282" y="602" on="0"/>
        <pt x="245" y="634" on="0"/>
        <pt x="212" y="661" on="0"/>
        <pt x="198" y="661" on="1"/>
        <pt x="184" y="661" on="0"/>
        <pt x="149" y="623" on="0"/>
        <pt x="129" y="583" on="1"/>
        <pt x="72" y="610" on="1"/>
        <pt x="98" y="671" on="0"/>
        <pt x="171" y="751" on="0"/>
        <pt x="211" y="751" on="1"/>
        <pt x="235" y="751" on="0"/>
        <pt x="277" y="724" on="0"/>
        <pt x="314" y="691" on="0"/>
        <pt x="346" y="664" on="0"/>
        <pt x="360" y="664" on="1"/>
        <pt x="374" y="664" on="0"/>
        <pt x="409" y="703" on="0"/>
        <pt x="429" y="743" on="1"/>
        <pt x="487" y="716" on="1"/>
        <pt x="460" y="654" on="0"/>
        <pt x="388" y="575" on="0"/>
      </contour>
      <contour>
        <pt x="253" y="73" on="1"/>
        <pt x="281" y="73" on="0"/>
        <pt x="341" y="94" on="0"/>
        <pt x="367" y="112" on="1"/>
        <pt x="366" y="134" on="0"/>
        <pt x="365" y="184" on="0"/>
        <pt x="364" y="215" on="1"/>
        <pt x="345" y="217" on="0"/>
        <pt x="309" y="219" on="0"/>
        <pt x="294" y="219" on="1"/>
        <pt x="222" y="219" on="0"/>
        <pt x="169" y="177" on="0"/>
        <pt x="169" y="143" on="1"/>
        <pt x="169" y="110" on="0"/>
        <pt x="215" y="73" on="0"/>
      </contour>
      <contour>
        <pt x="381" y="-3" on="1"/>
        <pt x="380" y="0" on="0"/>
        <pt x="374" y="39" on="0"/>
        <pt x="372" y="57" on="1"/>
        <pt x="344" y="29" on="0"/>
        <pt x="263" y="-13" on="0"/>
        <pt x="209" y="-13" on="1"/>
        <pt x="143" y="-13" on="0"/>
        <pt x="59" y="57" on="0"/>
        <pt x="59" y="117" on="1"/>
        <pt x="59" y="152" on="0"/>
        <pt x="92" y="215" on="0"/>
        <pt x="159" y="262" on="0"/>
        <pt x="262" y="289" on="0"/>
        <pt x="333" y="289" on="1"/>
        <pt x="340" y="289" on="0"/>
        <pt x="356" y="289" on="0"/>
        <pt x="363" y="288" on="1"/>
        <pt x="361" y="324" on="0"/>
        <pt x="334" y="370" on="0"/>
        <pt x="273" y="398" on="0"/>
        <pt x="168" y="411" on="0"/>
        <pt x="88" y="414" on="1"/>
        <pt x="99" y="508" on="1"/>
        <pt x="211" y="506" on="0"/>
        <pt x="357" y="479" on="0"/>
        <pt x="441" y="418" on="0"/>
        <pt x="474" y="319" on="0"/>
        <pt x="474" y="247" on="1"/>
        <pt x="474" y="175" on="0"/>
        <pt x="479" y="53" on="0"/>
        <pt x="483" y="2" on="1"/>
      </contour>
    </TTGlyph>
    <TTGlyph name="b" xMin="78" yMin="-13" xMax="501" yMax="711">
      <contour>
        <pt x="228" y="-13" on="1"/>
        <pt x="187" y="-13" on="0"/>
        <pt x="112" y="1" on="0"/>
        <pt x="78" y="14" on="1"/>
        <pt x="78" y="701" on="1"/>
        <pt x="189" y="711" on="1"/>
        <pt x="189" y="457" on="1"/>
        <pt x="214" y="479" on="0"/>
        <pt x="280" y="511" on="0"/>
        <pt x="320" y="511" on="1"/>
        <pt x="398" y="511" on="0"/>
        <pt x="501" y="382" on="0"/>
        <pt x="501" y="274" on="1"/>
        <pt x="501" y="207" on="0"/>
        <pt x="456" y="100" on="0"/>
        <pt x="381" y="27" on="0"/>
        <pt x="282" y="-13" on="0"/>
      </contour>
      <contour>
        <pt x="268" y="83" on="1"/>
        <pt x="325" y="83" on="0"/>
        <pt x="391" y="163" on="0"/>
        <pt x="391" y="247" on="1"/>
        <pt x="391" y="333" on="0"/>
        <pt x="326" y="420" on="0"/>
        <pt x="275" y="420" on="1"/>
        <pt x="253" y="420" on="0"/>
        <pt x="209" y="404" on="0"/>
        <pt x="189" y="390" on="1"/>
        <pt x="189" y="97" on="1"/>
        <pt x="208" y="90" on="0"/>
        <pt x="247" y="83" on="0"/>
      </contour>
    </TTGlyph>
    <TTGlyph name="backslash" xMin="-9" yMin="-185" xMax="552" yMax="736">
      <contour>
        <pt x="88" y="736" on="1"/>
        <pt x="552" y="-155" on="1"/>
        <pt x="450" y="-185" on="1"/>
        <pt x="-9" y="695" on="1"/>
      </contour>
    </TTGlyph>
    <TTGlyph name="bar" xMin="223" yMin="-183" xMax="328" yMax="718">
      <contour>
        <pt x="223" y="709" on="1"/>
        <pt x="328" y="718" on="1"/>
        <pt x="328" y="-183" on="1"/>
        <pt x="223" y="-183" on="1"/>
      </contour>
    </TTGlyph>
    <TTGlyph name="braceleft" xMin="84" yMin="-213" xMax="486" yMax="733">
      <contour>
        <pt x="447" y="-213" on="1"/>
        <pt x="360" y="-185" on="0"/>
        <pt x="241" y="-138" on="0"/>
        <pt x="169" y="-92" on="0"/>
        <pt x="138" y="-44" on="0"/>
        <pt x="138" y="-16" on="1"/>
        <pt x="138" y="13" on="0"/>
        <pt x="167" y="61" on="0"/>
        <pt x="200" y="100" on="0"/>
        <pt x="229" y="135" on="0"/>
        <pt x="229" y="151" on="1"/>
        <pt x="229" y="177" on="0"/>
        <pt x="157" y="215" on="0"/>
        <pt x="84" y="221" on="1"/>
        <pt x="87" y="299" on="1"/>
        <pt x="173" y="308" on="0"/>
        <pt x="236" y="335" on="0"/>
        <pt x="236" y="355" on="1"/>
        <pt x="236" y="370" on="0"/>
        <pt x="205" y="403" on="0"/>
        <pt x="168" y="440" on="0"/>
        <pt x="136" y="486" on="0"/>
        <pt x="136" y="514" on="1"/>
        <pt x="136" y="568" on="0"/>
        <pt x="276" y="678" on="0"/>
        <pt x="451" y="733" on="1"/>
        <pt x="486" y="643" on="1"/>
        <pt x="361" y="609" on="0"/>
        <pt x="243" y="552" on="0"/>
        <pt x="243" y="522" on="1"/>
        <pt x="243" y="505" on="0"/>
        <pt x="272" y="470" on="0"/>
        <pt x="306" y="433" on="0"/>
        <pt x="335" y="393" on="0"/>
        <pt x="335" y="372" on="1"/>
        <pt x="335" y="344" on="0"/>
        <pt x="283" y="287" on="0"/>
        <pt x="222" y="268" on="1"/>
        <pt x="283" y="252" on="0"/>
        <pt x="335" y="196" on="0"/>
        <pt x="335" y="167" on="1"/>
        <pt x="335" y="143" on="0"/>
        <pt x="308" y="103" on="0"/>
        <pt x="276" y="66" on="0"/>
        <pt x="249" y="30" on="0"/>
        <pt x="249" y="10" on="1"/>
        <pt x="249" y="-27" on="0"/>
        <pt x="365" y="-88" on="0"/>
        <pt x="484" y="-124" on="1"/>
      </contour>
    </TTGlyph>
    <TTGlyph name="braceleft.cap" xMin="84" yMin="-166" xMax="486" yMax="780">
      <contour>
        <pt x="447" y="-166" on="1"/>
        <pt x="360" y="-138" on="0"/>
        <pt x="241" y="-91" on="0"/>
        <pt x="169" y="-45" on="0"/>
        <pt x="138" y="3" on="0"/>
        <pt x="138" y="31" on="1"/>
        <pt x="138" y="60" on="0"/>
        <pt x="167" y="108" on="0"/>
        <pt x="200" y="147" on="0"/>
        <pt x="229" y="182" on="0"/>
        <pt x="229" y="198" on="1"/>
        <pt x="229" y="224" on="0"/>
        <pt x="157" y="262" on="0"/>
        <pt x="84" y="268" on="1"/>
        <pt x="87" y="346" on="1"/>
        <pt x="173" y="355" on="0"/>
        <pt x="236" y="382" on="0"/>
        <pt x="236" y="402" on="1"/>
        <pt x="236" y="417" on="0"/>
        <pt x="205" y="450" on="0"/>
        <pt x="168" y="487" on="0"/>
        <pt x="136" y="533" on="0"/>
        <pt x="136" y="561" on="1"/>
        <pt x="136" y="615" on="0"/>
        <pt x="276" y="725" on="0"/>
        <pt x="451" y="780" on="1"/>
        <pt x="486" y="690" on="1"/>
        <pt x="361" y="656" on="0"/>
        <pt x="243" y="599" on="0"/>
        <pt x="243" y="569" on="1"/>
        <pt x="243" y="552" on="0"/>
        <pt x="272" y="517" on="0"/>
        <pt x="306" y="480" on="0"/>
        <pt x="335" y="440" on="0"/>
        <pt x="335" y="419" on="1"/>
        <pt x="335" y="391" on="0"/>
        <pt x="283" y="334" on="0"/>
        <pt x="222" y="315" on="1"/>
        <pt x="283" y="299" on="0"/>
        <pt x="335" y="243" on="0"/>
        <pt x="335" y="214" on="1"/>
        <pt x="335" y="190" on="0"/>
        <pt x="308" y="150" on="0"/>
        <pt x="276" y="113" on="0"/>
        <pt x="249" y="77" on="0"/>
        <pt x="249" y="57" on="1"/>
        <pt x="249" y="20" on="0"/>
        <pt x="365" y="-41" on="0"/>
        <pt x="484" y="-77" on="1"/>
      </contour>
    </TTGlyph>
    <TTGlyph name="braceright" xMin="66" yMin="-212" xMax="468" yMax="734">
      <contour>
        <pt x="101" y="-212" on="1"/>
        <pt x="66" y="-121" on="1"/>
        <pt x="191" y="-87" on="0"/>
        <pt x="308" y="-30" on="0"/>
        <pt x="308" y="-1" on="1"/>
        <pt x="308" y="16" on="0"/>
        <pt x="279" y="52" on="0"/>
        <pt x="246" y="89" on="0"/>
        <pt x="217" y="129" on="0"/>
        <pt x="217" y="150" on="1"/>
        <pt x="217" y="178" on="0"/>
        <pt x="269" y="235" on="0"/>
        <pt x="331" y="254" on="1"/>
        <pt x="269" y="270" on="0"/>
        <pt x="217" y="325" on="0"/>
        <pt x="217" y="354" on="1"/>
        <pt x="217" y="378" on="0"/>
        <pt x="244" y="418" on="0"/>
        <pt x="276" y="455" on="0"/>
        <pt x="303" y="491" on="0"/>
        <pt x="303" y="511" on="1"/>
        <pt x="303" y="548" on="0"/>
        <pt x="187" y="610" on="0"/>
        <pt x="68" y="646" on="1"/>
        <pt x="105" y="734" on="1"/>
        <pt x="192" y="706" on="0"/>
        <pt x="311" y="659" on="0"/>
        <pt x="383" y="614" on="0"/>
        <pt x="414" y="566" on="0"/>
        <pt x="414" y="538" on="1"/>
        <pt x="414" y="508" on="0"/>
        <pt x="385" y="461" on="0"/>
        <pt x="352" y="421" on="0"/>
        <pt x="323" y="387" on="0"/>
        <pt x="323" y="370" on="1"/>
        <pt x="323" y="345" on="0"/>
        <pt x="394" y="307" on="0"/>
        <pt x="468" y="301" on="1"/>
        <pt x="464" y="222" on="1"/>
        <pt x="379" y="214" on="0"/>
        <pt x="316" y="186" on="0"/>
        <pt x="316" y="166" on="1"/>
        <pt x="316" y="151" on="0"/>
        <pt x="347" y="119" on="0"/>
        <pt x="384" y="82" on="0"/>
        <pt x="415" y="36" on="0"/>
        <pt x="415" y="8" on="1"/>
        <pt x="415" y="7" on="1"/>
        <pt x="415" y="-47" on="0"/>
        <pt x="276" y="-156" on="0"/>
      </contour>
    </TTGlyph>
    <TTGlyph name="braceright.cap" xMin="66" yMin="-166" xMax="468" yMax="780">
      <contour>
        <pt x="101" y="-166" on="1"/>
        <pt x="66" y="-75" on="1"/>
        <pt x="191" y="-41" on="0"/>
        <pt x="308" y="16" on="0"/>
        <pt x="308" y="45" on="1"/>
        <pt x="308" y="62" on="0"/>
        <pt x="279" y="98" on="0"/>
        <pt x="246" y="135" on="0"/>
        <pt x="217" y="175" on="0"/>
        <pt x="217" y="196" on="1"/>
        <pt x="217" y="224" on="0"/>
        <pt x="269" y="281" on="0"/>
        <pt x="331" y="300" on="1"/>
        <pt x="269" y="316" on="0"/>
        <pt x="217" y="371" on="0"/>
        <pt x="217" y="400" on="1"/>
        <pt x="217" y="424" on="0"/>
        <pt x="244" y="464" on="0"/>
        <pt x="276" y="501" on="0"/>
        <pt x="303" y="537" on="0"/>
        <pt x="303" y="557" on="1"/>
        <pt x="303" y="594" on="0"/>
        <pt x="187" y="656" on="0"/>
        <pt x="68" y="692" on="1"/>
        <pt x="105" y="780" on="1"/>
        <pt x="192" y="752" on="0"/>
        <pt x="311" y="705" on="0"/>
        <pt x="383" y="660" on="0"/>
        <pt x="414" y="612" on="0"/>
        <pt x="414" y="584" on="1"/>
        <pt x="414" y="554" on="0"/>
        <pt x="385" y="507" on="0"/>
        <pt x="352" y="467" on="0"/>
        <pt x="323" y="433" on="0"/>
        <pt x="323" y="416" on="1"/>
        <pt x="323" y="391" on="0"/>
        <pt x="394" y="353" on="0"/>
        <pt x="468" y="347" on="1"/>
        <pt x="464" y="268" on="1"/>
        <pt x="379" y="260" on="0"/>
        <pt x="316" y="232" on="0"/>
        <pt x="316" y="212" on="1"/>
        <pt x="316" y="197" on="0"/>
        <pt x="347" y="165" on="0"/>
        <pt x="384" y="128" on="0"/>
        <pt x="415" y="82" on="0"/>
        <pt x="415" y="54" on="1"/>
        <pt x="415" y="53" on="1"/>
        <pt x="415" y="-1" on="0"/>
        <pt x="276" y="-110" on="0"/>
      </contour>
    </TTGlyph>
    <TTGlyph name="bracketleft" xMin="129" yMin="-179" xMax="470" yMax="698">
      <contour>
        <pt x="129" y="-179" on="1"/>
        <pt x="129" y="698" on="1"/>
        <pt x="465" y="698" on="1"/>
        <pt x="465" y="609" on="1"/>
        <pt x="235" y="609" on="1"/>
        <pt x="235" y="-91" on="1"/>
        <pt x="470" y="-91" on="1"/>
        <pt x="460" y="-179" on="1"/>
      </contour>
    </TTGlyph>
    <TTGlyph name="bracketleft.cap" xMin="129" yMin="-132" xMax="470" yMax="745">
      <contour>
        <pt x="129" y="-132" on="1"/>
        <pt x="129" y="745" on="1"/>
        <pt x="465" y="745" on="1"/>
        <pt x="465" y="656" on="1"/>
        <pt x="235" y="656" on="1"/>
        <pt x="235" y="-44" on="1"/>
        <pt x="470" y="-44" on="1"/>
        <pt x="460" y="-132" on="1"/>
      </contour>
    </TTGlyph>
    <TTGlyph name="bracketright" xMin="84" yMin="-179" xMax="422" yMax="699">
      <contour>
        <pt x="90" y="-90" on="1"/>
        <pt x="316" y="-90" on="1"/>
        <pt x="316" y="609" on="1"/>
        <pt x="88" y="609" on="1"/>
        <pt x="88" y="699" on="1"/>
        <pt x="422" y="699" on="1"/>
        <pt x="422" y="-179" on="1"/>
        <pt x="84" y="-179" on="1"/>
      </contour>
    </TTGlyph>
    <TTGlyph name="bracketright.cap" xMin="84" yMin="-132" xMax="422" yMax="746">
      <contour>
        <pt x="90" y="-43" on="1"/>
        <pt x="316" y="-43" on="1"/>
        <pt x="316" y="656" on="1"/>
        <pt x="88" y="656" on="1"/>
        <pt x="88" y="746" on="1"/>
        <pt x="422" y="746" on="1"/>
        <pt x="422" y="-132" on="1"/>
        <pt x="84" y="-132" on="1"/>
      </contour>
    </TTGlyph>
    <TTGlyph name="breve" xMin="78" yMin="564" xMax="473" yMax="755">
      <contour>
        <pt x="272" y="564" on="1"/>
        <pt x="218" y="564" on="0"/>
        <pt x="118" y="638" on="0"/>
        <pt x="78" y="710" on="1"/>
        <pt x="155" y="755" on="1"/>
        <pt x="189" y="701" on="0"/>
        <pt x="248" y="653" on="0"/>
        <pt x="282" y="653" on="1"/>
        <pt x="318" y="653" on="0"/>
        <pt x="378" y="704" on="0"/>
        <pt x="410" y="750" on="1"/>
        <pt x="473" y="718" on="1"/>
        <pt x="431" y="647" on="0"/>
        <pt x="328" y="564" on="0"/>
      </contour>
    </TTGlyph>
</ttFont>
